<?xml version="1.0" encoding="UTF-8" standalone="no"?><svg xmlns="http://www.w3.org/2000/svg" xmlns:xlink="http://www.w3.org/1999/xlink" contentScriptType="application/ecmascript" contentStyleType="text/css" height="362px" preserveAspectRatio="none" style="width:248px;height:362px;" version="1.1" viewBox="0 0 248 362" width="248px" zoomAndPan="magnify"><defs><filter height="300%" id="f1xw9zocad3cpy" width="300%" x="-1" y="-1"><feGaussianBlur result="blurOut" stdDeviation="2.0"/><feColorMatrix in="blurOut" result="blurOut2" type="matrix" values="0 0 0 0 0 0 0 0 0 0 0 0 0 0 0 0 0 0 .4 0"/><feOffset dx="4.0" dy="4.0" in="blurOut2" result="blurOut3"/><feBlend in="SourceGraphic" in2="blurOut3" mode="normal"/></filter></defs><g><ellipse cx="123" cy="20" fill="#000000" filter="url(#f1xw9zocad3cpy)" rx="10" ry="10" style="stroke: none; stroke-width: 1.0;"/><rect fill="#FEFECE" filter="url(#f1xw9zocad3cpy)" height="33.9688" rx="12.5" ry="12.5" style="stroke: #A80036; stroke-width: 1.5;" width="119" x="63.5" y="50"/><text fill="#000000" font-family="sans-serif" font-size="12" lengthAdjust="spacingAndGlyphs" textLength="99" x="73.5" y="71.1387">Bomba aparece</text><rect fill="#FEFECE" filter="url(#f1xw9zocad3cpy)" height="33.9688" rx="12.5" ry="12.5" style="stroke: #A80036; stroke-width: 1.5;" width="174" x="36" y="147.9688"/><text fill="#000000" font-family="sans-serif" font-size="12" lengthAdjust="spacingAndGlyphs" textLength="154" x="46" y="169.1074">Contador = Contador - 1</text><polygon fill="#FEFECE" filter="url(#f1xw9zocad3cpy)" points="80.5,103.9688,165.5,103.9688,177.5,115.9688,165.5,127.9688,80.5,127.9688,68.5,115.9688,80.5,103.9688" style="stroke: #A80036; stroke-width: 1.5;"/><text fill="#000000" font-family="sans-serif" font-size="11" lengthAdjust="spacingAndGlyphs" textLength="85" x="80.5" y="119.7769">Contador &lt;&gt; 0</text><rect fill="#FEFECE" filter="url(#f1xw9zocad3cpy)" height="33.9688" rx="12.5" ry="12.5" style="stroke: #A80036; stroke-width: 1.5;" width="113" x="66.5" y="223.9375"/><text fill="#000000" font-family="sans-serif" font-size="12" lengthAdjust="spacingAndGlyphs" textLength="93" x="76.5" y="245.0762">Bomba explota</text><rect fill="#FEFECE" filter="url(#f1xw9zocad3cpy)" height="33.9688" rx="12.5" ry="12.5" style="stroke: #A80036; stroke-width: 1.5;" width="142" x="52" y="277.9063"/><text fill="#000000" font-family="sans-serif" font-size="12" lengthAdjust="spacingAndGlyphs" textLength="122" x="62" y="299.0449">bomba desaparece</text><ellipse cx="123" cy="341.875" fill="#FFFFFF" filter="url(#f1xw9zocad3cpy)" rx="10" ry="10" style="stroke: #000000; stroke-width: 1.5;"/><line style="stroke: #000000; stroke-width: 2.5;" x1="116.8128" x2="129.1872" y1="335.6878" y2="348.0622"/><line style="stroke: #000000; stroke-width: 2.5;" x1="129.1872" x2="116.8128" y1="335.6878" y2="348.0622"/><line style="stroke: #A80036; stroke-width: 1.5;" x1="123" x2="123" y1="30" y2="50"/><polygon fill="#A80036" points="119,40,123,50,127,40,123,44" style="stroke: #A80036; stroke-width: 1.0;"/><line style="stroke: #A80036; stroke-width: 1.5;" x1="123" x2="123" y1="127.9688" y2="147.9688"/><polygon fill="#A80036" points="119,137.9688,123,147.9688,127,137.9688,123,141.9688" style="stroke: #A80036; stroke-width: 1.0;"/><line style="stroke: #A80036; stroke-width: 1.5;" x1="123" x2="123" y1="181.9375" y2="191.9375"/><line style="stroke: #A80036; stroke-width: 1.5;" x1="123" x2="222" y1="191.9375" y2="191.9375"/><polygon fill="#A80036" points="218,162.9531,222,152.9531,226,162.9531,222,158.9531" style="stroke: #A80036; stroke-width: 1.5;"/><line style="stroke: #A80036; stroke-width: 1.5;" x1="222" x2="222" y1="115.9688" y2="191.9375"/><line style="stroke: #A80036; stroke-width: 1.5;" x1="222" x2="177.5" y1="115.9688" y2="115.9688"/><polygon fill="#A80036" points="187.5,111.9688,177.5,115.9688,187.5,119.9688,183.5,115.9688" style="stroke: #A80036; stroke-width: 1.0;"/><line style="stroke: #A80036; stroke-width: 1.5;" x1="68.5" x2="24" y1="115.9688" y2="115.9688"/><polygon fill="#A80036" points="20,148.9531,24,158.9531,28,148.9531,24,152.9531" style="stroke: #A80036; stroke-width: 1.5;"/><line style="stroke: #A80036; stroke-width: 1.5;" x1="24" x2="24" y1="115.9688" y2="203.9375"/><line style="stroke: #A80036; stroke-width: 1.5;" x1="24" x2="123" y1="203.9375" y2="203.9375"/><line style="stroke: #A80036; stroke-width: 1.5;" x1="123" x2="123" y1="203.9375" y2="223.9375"/><polygon fill="#A80036" points="119,213.9375,123,223.9375,127,213.9375,123,217.9375" style="stroke: #A80036; stroke-width: 1.0;"/><line style="stroke: #A80036; stroke-width: 1.5;" x1="123" x2="123" y1="83.9688" y2="103.9688"/><polygon fill="#A80036" points="119,93.9688,123,103.9688,127,93.9688,123,97.9688" style="stroke: #A80036; stroke-width: 1.0;"/><line style="stroke: #A80036; stroke-width: 1.5;" x1="123" x2="123" y1="257.9063" y2="277.9063"/><polygon fill="#A80036" points="119,267.9063,123,277.9063,127,267.9063,123,271.9063" style="stroke: #A80036; stroke-width: 1.0;"/><line style="stroke: #A80036; stroke-width: 1.5;" x1="123" x2="123" y1="311.875" y2="331.875"/><polygon fill="#A80036" points="119,321.875,123,331.875,127,321.875,123,325.875" style="stroke: #A80036; stroke-width: 1.0;"/><!--
@startuml
start
:Bomba aparece;
while (Contador <> 0)
  :Contador = Contador - 1;
end while
:Bomba explota;
:bomba desaparece;
end
@enduml

PlantUML version 1.2019.04(Fri Mar 29 15:44:36 UTC 2019)
(GPL source distribution)
Java Runtime: OpenJDK Runtime Environment
JVM: OpenJDK 64-Bit Server VM
Java Version: 1.8.0_201-heroku-b09
Operating System: Linux
OS Version: 4.4.0-1048-aws
Default Encoding: UTF-8
Language: en
Country: US
--></g></svg>