<?xml version="1.0" encoding="UTF-8" standalone="no"?><svg xmlns="http://www.w3.org/2000/svg" xmlns:xlink="http://www.w3.org/1999/xlink" contentScriptType="application/ecmascript" contentStyleType="text/css" height="1183px" preserveAspectRatio="none" style="width:738px;height:1183px;" version="1.1" viewBox="0 0 738 1183" width="738px" zoomAndPan="magnify"><defs><filter height="300%" id="f166ji7al9l2cs" width="300%" x="-1" y="-1"><feGaussianBlur result="blurOut" stdDeviation="2.0"/><feColorMatrix in="blurOut" result="blurOut2" type="matrix" values="0 0 0 0 0 0 0 0 0 0 0 0 0 0 0 0 0 0 .4 0"/><feOffset dx="4.0" dy="4.0" in="blurOut2" result="blurOut3"/><feBlend in="SourceGraphic" in2="blurOut3" mode="normal"/></filter></defs><g><rect fill="#FFFFFF" filter="url(#f166ji7al9l2cs)" height="1085.6484" style="stroke: #A80036; stroke-width: 1.0;" width="10" x="28" y="48.2969"/><rect fill="#FFFFFF" filter="url(#f166ji7al9l2cs)" height="1085.6484" style="stroke: #A80036; stroke-width: 1.0;" width="10" x="191" y="48.2969"/><rect fill="#FFFFFF" filter="url(#f166ji7al9l2cs)" height="29.1328" style="stroke: #A80036; stroke-width: 1.0;" width="10" x="354" y="69.4297"/><rect fill="#FFFFFF" filter="url(#f166ji7al9l2cs)" height="71.2656" style="stroke: #A80036; stroke-width: 1.0;" width="10" x="354" y="273.3594"/><rect fill="#FFFFFF" filter="url(#f166ji7al9l2cs)" height="71.2656" style="stroke: #A80036; stroke-width: 1.0;" width="10" x="354" y="373.7578"/><rect fill="#FFFFFF" filter="url(#f166ji7al9l2cs)" height="71.2656" style="stroke: #A80036; stroke-width: 1.0;" width="10" x="354" y="561.5547"/><rect fill="#FFFFFF" filter="url(#f166ji7al9l2cs)" height="187.7969" style="stroke: #A80036; stroke-width: 1.0;" width="10" x="354" y="908.0156"/><rect fill="#FFFFFF" filter="url(#f166ji7al9l2cs)" height="29.1328" style="stroke: #A80036; stroke-width: 1.0;" width="10" x="499" y="127.6953"/><rect fill="#FFFFFF" filter="url(#f166ji7al9l2cs)" height="100.3984" style="stroke: #A80036; stroke-width: 1.0;" width="10" x="499" y="691.0859"/><rect fill="#FFFFFF" filter="url(#f166ji7al9l2cs)" height="29.1328" style="stroke: #A80036; stroke-width: 1.0;" width="10" x="617" y="185.9609"/><rect fill="#FFFFFF" filter="url(#f166ji7al9l2cs)" height="29.1328" style="stroke: #A80036; stroke-width: 1.0;" width="10" x="617" y="820.6172"/><rect fill="#FFFFFF" filter="url(#f166ji7al9l2cs)" height="58.2656" style="stroke: #A80036; stroke-width: 1.0;" width="10" x="617" y="1008.4141"/><rect fill="#FFFFFF" filter="url(#f166ji7al9l2cs)" height="187.7969" style="stroke: #A80036; stroke-width: 1.0;" width="10" x="696.5" y="474.1563"/><line style="stroke: #A80036; stroke-width: 1.0; stroke-dasharray: 5.0,5.0;" x1="33" x2="33" y1="38.2969" y2="1142.9453"/><line style="stroke: #A80036; stroke-width: 1.0; stroke-dasharray: 5.0,5.0;" x1="195.5" x2="195.5" y1="38.2969" y2="1142.9453"/><line style="stroke: #A80036; stroke-width: 1.0; stroke-dasharray: 5.0,5.0;" x1="358.5" x2="358.5" y1="38.2969" y2="1142.9453"/><line style="stroke: #A80036; stroke-width: 1.0; stroke-dasharray: 5.0,5.0;" x1="504" x2="504" y1="38.2969" y2="1142.9453"/><line style="stroke: #A80036; stroke-width: 1.0; stroke-dasharray: 5.0,5.0;" x1="622" x2="622" y1="38.2969" y2="1142.9453"/><line style="stroke: #A80036; stroke-width: 1.0; stroke-dasharray: 5.0,5.0;" x1="701" x2="701" y1="38.2969" y2="1142.9453"/><rect fill="#FEFECE" filter="url(#f166ji7al9l2cs)" height="30.2969" style="stroke: #A80036; stroke-width: 1.5;" width="46" x="8" y="3"/><text fill="#000000" font-family="sans-serif" font-size="14" lengthAdjust="spacingAndGlyphs" textLength="32" x="15" y="22.9951">User</text><rect fill="#FEFECE" filter="url(#f166ji7al9l2cs)" height="30.2969" style="stroke: #A80036; stroke-width: 1.5;" width="46" x="8" y="1141.9453"/><text fill="#000000" font-family="sans-serif" font-size="14" lengthAdjust="spacingAndGlyphs" textLength="32" x="15" y="1161.9404">User</text><rect fill="#FEFECE" filter="url(#f166ji7al9l2cs)" height="30.2969" style="stroke: #A80036; stroke-width: 1.5;" width="55" x="166.5" y="3"/><text fill="#000000" font-family="sans-serif" font-size="14" lengthAdjust="spacingAndGlyphs" textLength="41" x="173.5" y="22.9951">Game</text><rect fill="#FEFECE" filter="url(#f166ji7al9l2cs)" height="30.2969" style="stroke: #A80036; stroke-width: 1.5;" width="55" x="166.5" y="1141.9453"/><text fill="#000000" font-family="sans-serif" font-size="14" lengthAdjust="spacingAndGlyphs" textLength="41" x="173.5" y="1161.9404">Game</text><rect fill="#FEFECE" filter="url(#f166ji7al9l2cs)" height="30.2969" style="stroke: #A80036; stroke-width: 1.5;" width="99" x="307.5" y="3"/><text fill="#000000" font-family="sans-serif" font-size="14" lengthAdjust="spacingAndGlyphs" textLength="85" x="314.5" y="22.9951">Bomberman</text><rect fill="#FEFECE" filter="url(#f166ji7al9l2cs)" height="30.2969" style="stroke: #A80036; stroke-width: 1.5;" width="99" x="307.5" y="1141.9453"/><text fill="#000000" font-family="sans-serif" font-size="14" lengthAdjust="spacingAndGlyphs" textLength="85" x="314.5" y="1161.9404">Bomberman</text><rect fill="#FEFECE" filter="url(#f166ji7al9l2cs)" height="30.2969" style="stroke: #A80036; stroke-width: 1.5;" width="50" x="477" y="3"/><text fill="#000000" font-family="sans-serif" font-size="14" lengthAdjust="spacingAndGlyphs" textLength="36" x="484" y="22.9951">dWall</text><rect fill="#FEFECE" filter="url(#f166ji7al9l2cs)" height="30.2969" style="stroke: #A80036; stroke-width: 1.5;" width="50" x="477" y="1141.9453"/><text fill="#000000" font-family="sans-serif" font-size="14" lengthAdjust="spacingAndGlyphs" textLength="36" x="484" y="1161.9404">dWall</text><rect fill="#FEFECE" filter="url(#f166ji7al9l2cs)" height="30.2969" style="stroke: #A80036; stroke-width: 1.5;" width="76" x="582" y="3"/><text fill="#000000" font-family="sans-serif" font-size="14" lengthAdjust="spacingAndGlyphs" textLength="62" x="589" y="22.9951">powerUp</text><rect fill="#FEFECE" filter="url(#f166ji7al9l2cs)" height="30.2969" style="stroke: #A80036; stroke-width: 1.5;" width="76" x="582" y="1141.9453"/><text fill="#000000" font-family="sans-serif" font-size="14" lengthAdjust="spacingAndGlyphs" textLength="62" x="589" y="1161.9404">powerUp</text><rect fill="#FEFECE" filter="url(#f166ji7al9l2cs)" height="30.2969" style="stroke: #A80036; stroke-width: 1.5;" width="55" x="672" y="3"/><text fill="#000000" font-family="sans-serif" font-size="14" lengthAdjust="spacingAndGlyphs" textLength="41" x="679" y="22.9951">Bomb</text><rect fill="#FEFECE" filter="url(#f166ji7al9l2cs)" height="30.2969" style="stroke: #A80036; stroke-width: 1.5;" width="55" x="672" y="1141.9453"/><text fill="#000000" font-family="sans-serif" font-size="14" lengthAdjust="spacingAndGlyphs" textLength="41" x="679" y="1161.9404">Bomb</text><rect fill="#FFFFFF" filter="url(#f166ji7al9l2cs)" height="1085.6484" style="stroke: #A80036; stroke-width: 1.0;" width="10" x="28" y="48.2969"/><rect fill="#FFFFFF" filter="url(#f166ji7al9l2cs)" height="1085.6484" style="stroke: #A80036; stroke-width: 1.0;" width="10" x="191" y="48.2969"/><rect fill="#FFFFFF" filter="url(#f166ji7al9l2cs)" height="29.1328" style="stroke: #A80036; stroke-width: 1.0;" width="10" x="354" y="69.4297"/><rect fill="#FFFFFF" filter="url(#f166ji7al9l2cs)" height="71.2656" style="stroke: #A80036; stroke-width: 1.0;" width="10" x="354" y="273.3594"/><rect fill="#FFFFFF" filter="url(#f166ji7al9l2cs)" height="71.2656" style="stroke: #A80036; stroke-width: 1.0;" width="10" x="354" y="373.7578"/><rect fill="#FFFFFF" filter="url(#f166ji7al9l2cs)" height="71.2656" style="stroke: #A80036; stroke-width: 1.0;" width="10" x="354" y="561.5547"/><rect fill="#FFFFFF" filter="url(#f166ji7al9l2cs)" height="187.7969" style="stroke: #A80036; stroke-width: 1.0;" width="10" x="354" y="908.0156"/><rect fill="#FFFFFF" filter="url(#f166ji7al9l2cs)" height="29.1328" style="stroke: #A80036; stroke-width: 1.0;" width="10" x="499" y="127.6953"/><rect fill="#FFFFFF" filter="url(#f166ji7al9l2cs)" height="100.3984" style="stroke: #A80036; stroke-width: 1.0;" width="10" x="499" y="691.0859"/><rect fill="#FFFFFF" filter="url(#f166ji7al9l2cs)" height="29.1328" style="stroke: #A80036; stroke-width: 1.0;" width="10" x="617" y="185.9609"/><rect fill="#FFFFFF" filter="url(#f166ji7al9l2cs)" height="29.1328" style="stroke: #A80036; stroke-width: 1.0;" width="10" x="617" y="820.6172"/><rect fill="#FFFFFF" filter="url(#f166ji7al9l2cs)" height="58.2656" style="stroke: #A80036; stroke-width: 1.0;" width="10" x="617" y="1008.4141"/><rect fill="#FFFFFF" filter="url(#f166ji7al9l2cs)" height="187.7969" style="stroke: #A80036; stroke-width: 1.0;" width="10" x="696.5" y="474.1563"/><polygon fill="#A80036" points="342,65.4297,352,69.4297,342,73.4297,346,69.4297" style="stroke: #A80036; stroke-width: 1.0;"/><line style="stroke: #A80036; stroke-width: 1.0;" x1="201" x2="348" y1="69.4297" y2="69.4297"/><text fill="#000000" font-family="sans-serif" font-size="13" font-weight="bold" lengthAdjust="spacingAndGlyphs" textLength="9" x="208" y="64.3638">1</text><text fill="#000000" font-family="sans-serif" font-size="13" lengthAdjust="spacingAndGlyphs" textLength="50" x="221" y="64.3638">spawn()</text><polygon fill="#A80036" points="212,94.5625,202,98.5625,212,102.5625,208,98.5625" style="stroke: #A80036; stroke-width: 1.0;"/><line style="stroke: #A80036; stroke-width: 1.0;" x1="206" x2="358" y1="98.5625" y2="98.5625"/><text fill="#000000" font-family="sans-serif" font-size="13" font-weight="bold" lengthAdjust="spacingAndGlyphs" textLength="9" x="218" y="93.4966">2</text><text fill="#000000" font-family="sans-serif" font-size="13" lengthAdjust="spacingAndGlyphs" textLength="67" x="231" y="93.4966">spawnOk()</text><polygon fill="#A80036" points="487,123.6953,497,127.6953,487,131.6953,491,127.6953" style="stroke: #A80036; stroke-width: 1.0;"/><line style="stroke: #A80036; stroke-width: 1.0;" x1="201" x2="493" y1="127.6953" y2="127.6953"/><text fill="#000000" font-family="sans-serif" font-size="13" font-weight="bold" lengthAdjust="spacingAndGlyphs" textLength="9" x="208" y="122.6294">3</text><text fill="#000000" font-family="sans-serif" font-size="13" lengthAdjust="spacingAndGlyphs" textLength="50" x="221" y="122.6294">spawn()</text><polygon fill="#A80036" points="212,152.8281,202,156.8281,212,160.8281,208,156.8281" style="stroke: #A80036; stroke-width: 1.0;"/><line style="stroke: #A80036; stroke-width: 1.0;" x1="206" x2="503" y1="156.8281" y2="156.8281"/><text fill="#000000" font-family="sans-serif" font-size="13" font-weight="bold" lengthAdjust="spacingAndGlyphs" textLength="9" x="218" y="151.7622">4</text><text fill="#000000" font-family="sans-serif" font-size="13" lengthAdjust="spacingAndGlyphs" textLength="67" x="231" y="151.7622">spawnOk()</text><polygon fill="#A80036" points="605,181.9609,615,185.9609,605,189.9609,609,185.9609" style="stroke: #A80036; stroke-width: 1.0;"/><line style="stroke: #A80036; stroke-width: 1.0;" x1="201" x2="611" y1="185.9609" y2="185.9609"/><text fill="#000000" font-family="sans-serif" font-size="13" font-weight="bold" lengthAdjust="spacingAndGlyphs" textLength="9" x="208" y="180.895">5</text><text fill="#000000" font-family="sans-serif" font-size="13" lengthAdjust="spacingAndGlyphs" textLength="50" x="221" y="180.895">spawn()</text><polygon fill="#A80036" points="212,211.0938,202,215.0938,212,219.0938,208,215.0938" style="stroke: #A80036; stroke-width: 1.0;"/><line style="stroke: #A80036; stroke-width: 1.0;" x1="206" x2="621" y1="215.0938" y2="215.0938"/><text fill="#000000" font-family="sans-serif" font-size="13" font-weight="bold" lengthAdjust="spacingAndGlyphs" textLength="9" x="218" y="210.0278">6</text><text fill="#000000" font-family="sans-serif" font-size="13" lengthAdjust="spacingAndGlyphs" textLength="67" x="231" y="210.0278">spawnOk()</text><polygon fill="#A80036" points="179,240.2266,189,244.2266,179,248.2266,183,244.2266" style="stroke: #A80036; stroke-width: 1.0;"/><line style="stroke: #A80036; stroke-width: 1.0;" x1="38" x2="185" y1="244.2266" y2="244.2266"/><text fill="#000000" font-family="sans-serif" font-size="13" font-weight="bold" lengthAdjust="spacingAndGlyphs" textLength="9" x="45" y="239.1606">7</text><text fill="#000000" font-family="sans-serif" font-size="13" lengthAdjust="spacingAndGlyphs" textLength="92" x="58" y="239.1606">pressLeftKey()</text><polygon fill="#A80036" points="342,269.3594,352,273.3594,342,277.3594,346,273.3594" style="stroke: #A80036; stroke-width: 1.0;"/><line style="stroke: #A80036; stroke-width: 1.0;" x1="201" x2="348" y1="273.3594" y2="273.3594"/><text fill="#000000" font-family="sans-serif" font-size="13" font-weight="bold" lengthAdjust="spacingAndGlyphs" textLength="9" x="208" y="268.2935">8</text><text fill="#000000" font-family="sans-serif" font-size="13" lengthAdjust="spacingAndGlyphs" textLength="70" x="221" y="268.2935">moveLeft()</text><line style="stroke: #A80036; stroke-width: 1.0;" x1="364" x2="406" y1="302.4922" y2="302.4922"/><line style="stroke: #A80036; stroke-width: 1.0;" x1="406" x2="406" y1="302.4922" y2="315.4922"/><line style="stroke: #A80036; stroke-width: 1.0;" x1="365" x2="406" y1="315.4922" y2="315.4922"/><polygon fill="#A80036" points="375,311.4922,365,315.4922,375,319.4922,371,315.4922" style="stroke: #A80036; stroke-width: 1.0;"/><text fill="#000000" font-family="sans-serif" font-size="13" font-weight="bold" lengthAdjust="spacingAndGlyphs" textLength="9" x="371" y="297.4263">9</text><text fill="#000000" font-family="sans-serif" font-size="13" lengthAdjust="spacingAndGlyphs" textLength="81" x="384" y="297.4263">movingLeft()</text><polygon fill="#A80036" points="179,340.625,189,344.625,179,348.625,183,344.625" style="stroke: #A80036; stroke-width: 1.0;"/><line style="stroke: #A80036; stroke-width: 1.0;" x1="38" x2="185" y1="344.625" y2="344.625"/><text fill="#000000" font-family="sans-serif" font-size="13" font-weight="bold" lengthAdjust="spacingAndGlyphs" textLength="18" x="45" y="339.5591">10</text><text fill="#000000" font-family="sans-serif" font-size="13" lengthAdjust="spacingAndGlyphs" textLength="107" x="67" y="339.5591">pressSpaceBar()</text><polygon fill="#A80036" points="342,369.7578,352,373.7578,342,377.7578,346,373.7578" style="stroke: #A80036; stroke-width: 1.0;"/><line style="stroke: #A80036; stroke-width: 1.0;" x1="201" x2="348" y1="373.7578" y2="373.7578"/><text fill="#000000" font-family="sans-serif" font-size="13" font-weight="bold" lengthAdjust="spacingAndGlyphs" textLength="18" x="208" y="368.6919">11</text><text fill="#000000" font-family="sans-serif" font-size="13" lengthAdjust="spacingAndGlyphs" textLength="80" x="230" y="368.6919">plantBomb()</text><line style="stroke: #A80036; stroke-width: 1.0;" x1="364" x2="406" y1="402.8906" y2="402.8906"/><line style="stroke: #A80036; stroke-width: 1.0;" x1="406" x2="406" y1="402.8906" y2="415.8906"/><line style="stroke: #A80036; stroke-width: 1.0;" x1="365" x2="406" y1="415.8906" y2="415.8906"/><polygon fill="#A80036" points="375,411.8906,365,415.8906,375,419.8906,371,415.8906" style="stroke: #A80036; stroke-width: 1.0;"/><text fill="#000000" font-family="sans-serif" font-size="13" font-weight="bold" lengthAdjust="spacingAndGlyphs" textLength="18" x="371" y="397.8247">12</text><text fill="#000000" font-family="sans-serif" font-size="13" lengthAdjust="spacingAndGlyphs" textLength="99" x="393" y="397.8247">plantingBomb()</text><polygon fill="#A80036" points="212,441.0234,202,445.0234,212,449.0234,208,445.0234" style="stroke: #A80036; stroke-width: 1.0;"/><line style="stroke: #A80036; stroke-width: 1.0;" x1="206" x2="358" y1="445.0234" y2="445.0234"/><text fill="#000000" font-family="sans-serif" font-size="13" font-weight="bold" lengthAdjust="spacingAndGlyphs" textLength="18" x="218" y="439.9575">13</text><text fill="#000000" font-family="sans-serif" font-size="13" lengthAdjust="spacingAndGlyphs" textLength="95" x="240" y="439.9575">bombPlanted()</text><polygon fill="#A80036" points="684.5,470.1563,694.5,474.1563,684.5,478.1563,688.5,474.1563" style="stroke: #A80036; stroke-width: 1.0;"/><line style="stroke: #A80036; stroke-width: 1.0;" x1="201" x2="690.5" y1="474.1563" y2="474.1563"/><text fill="#000000" font-family="sans-serif" font-size="13" font-weight="bold" lengthAdjust="spacingAndGlyphs" textLength="18" x="208" y="469.0903">14</text><text fill="#000000" font-family="sans-serif" font-size="13" lengthAdjust="spacingAndGlyphs" textLength="50" x="230" y="469.0903">spawn()</text><polygon fill="#A80036" points="212,499.2891,202,503.2891,212,507.2891,208,503.2891" style="stroke: #A80036; stroke-width: 1.0;"/><line style="stroke: #A80036; stroke-width: 1.0;" x1="206" x2="695.5" y1="503.2891" y2="503.2891"/><text fill="#000000" font-family="sans-serif" font-size="13" font-weight="bold" lengthAdjust="spacingAndGlyphs" textLength="18" x="218" y="498.2231">15</text><text fill="#000000" font-family="sans-serif" font-size="13" lengthAdjust="spacingAndGlyphs" textLength="67" x="240" y="498.2231">spawnOk()</text><polygon fill="#A80036" points="179,528.4219,189,532.4219,179,536.4219,183,532.4219" style="stroke: #A80036; stroke-width: 1.0;"/><line style="stroke: #A80036; stroke-width: 1.0;" x1="38" x2="185" y1="532.4219" y2="532.4219"/><text fill="#000000" font-family="sans-serif" font-size="13" font-weight="bold" lengthAdjust="spacingAndGlyphs" textLength="18" x="45" y="527.356">16</text><text fill="#000000" font-family="sans-serif" font-size="13" lengthAdjust="spacingAndGlyphs" textLength="100" x="67" y="527.356">pressRightKey()</text><polygon fill="#A80036" points="342,557.5547,352,561.5547,342,565.5547,346,561.5547" style="stroke: #A80036; stroke-width: 1.0;"/><line style="stroke: #A80036; stroke-width: 1.0;" x1="201" x2="348" y1="561.5547" y2="561.5547"/><text fill="#000000" font-family="sans-serif" font-size="13" font-weight="bold" lengthAdjust="spacingAndGlyphs" textLength="18" x="208" y="556.4888">17</text><text fill="#000000" font-family="sans-serif" font-size="13" lengthAdjust="spacingAndGlyphs" textLength="78" x="230" y="556.4888">moveRight()</text><line style="stroke: #A80036; stroke-width: 1.0;" x1="364" x2="406" y1="590.6875" y2="590.6875"/><line style="stroke: #A80036; stroke-width: 1.0;" x1="406" x2="406" y1="590.6875" y2="603.6875"/><line style="stroke: #A80036; stroke-width: 1.0;" x1="365" x2="406" y1="603.6875" y2="603.6875"/><polygon fill="#A80036" points="375,599.6875,365,603.6875,375,607.6875,371,603.6875" style="stroke: #A80036; stroke-width: 1.0;"/><text fill="#000000" font-family="sans-serif" font-size="13" font-weight="bold" lengthAdjust="spacingAndGlyphs" textLength="18" x="371" y="585.6216">18</text><text fill="#000000" font-family="sans-serif" font-size="13" lengthAdjust="spacingAndGlyphs" textLength="89" x="393" y="585.6216">movingRight()</text><polygon fill="#A80036" points="212,628.8203,202,632.8203,212,636.8203,208,632.8203" style="stroke: #A80036; stroke-width: 1.0;"/><line style="stroke: #A80036; stroke-width: 1.0;" x1="206" x2="695.5" y1="632.8203" y2="632.8203"/><text fill="#000000" font-family="sans-serif" font-size="13" font-weight="bold" lengthAdjust="spacingAndGlyphs" textLength="18" x="218" y="627.7544">19</text><text fill="#000000" font-family="sans-serif" font-size="13" lengthAdjust="spacingAndGlyphs" textLength="68" x="240" y="627.7544">explotion()</text><polygon fill="#A80036" points="689.5,657.9531,699.5,661.9531,689.5,665.9531,693.5,661.9531" style="stroke: #A80036; stroke-width: 1.0;"/><line style="stroke: #A80036; stroke-width: 1.0;" x1="201" x2="695.5" y1="661.9531" y2="661.9531"/><text fill="#000000" font-family="sans-serif" font-size="13" font-weight="bold" lengthAdjust="spacingAndGlyphs" textLength="18" x="208" y="656.8872">20</text><text fill="#000000" font-family="sans-serif" font-size="13" lengthAdjust="spacingAndGlyphs" textLength="66" x="230" y="656.8872">despawn()</text><polygon fill="#A80036" points="487,687.0859,497,691.0859,487,695.0859,491,691.0859" style="stroke: #A80036; stroke-width: 1.0;"/><line style="stroke: #A80036; stroke-width: 1.0;" x1="201" x2="493" y1="691.0859" y2="691.0859"/><text fill="#000000" font-family="sans-serif" font-size="13" font-weight="bold" lengthAdjust="spacingAndGlyphs" textLength="18" x="208" y="686.02">21</text><text fill="#000000" font-family="sans-serif" font-size="13" lengthAdjust="spacingAndGlyphs" textLength="63" x="230" y="686.02">damage()</text><line style="stroke: #A80036; stroke-width: 1.0;" x1="509" x2="551" y1="720.2188" y2="720.2188"/><line style="stroke: #A80036; stroke-width: 1.0;" x1="551" x2="551" y1="720.2188" y2="733.2188"/><line style="stroke: #A80036; stroke-width: 1.0;" x1="510" x2="551" y1="733.2188" y2="733.2188"/><polygon fill="#A80036" points="520,729.2188,510,733.2188,520,737.2188,516,733.2188" style="stroke: #A80036; stroke-width: 1.0;"/><text fill="#000000" font-family="sans-serif" font-size="13" font-weight="bold" lengthAdjust="spacingAndGlyphs" textLength="18" x="516" y="715.1528">22</text><text fill="#000000" font-family="sans-serif" font-size="13" lengthAdjust="spacingAndGlyphs" textLength="72" x="538" y="715.1528">reduceHp()</text><polygon fill="#A80036" points="212,758.3516,202,762.3516,212,766.3516,208,762.3516" style="stroke: #A80036; stroke-width: 1.0;"/><line style="stroke: #A80036; stroke-width: 1.0;" x1="206" x2="498" y1="762.3516" y2="762.3516"/><text fill="#000000" font-family="sans-serif" font-size="13" font-weight="bold" lengthAdjust="spacingAndGlyphs" textLength="18" x="218" y="757.2856">23</text><text fill="#000000" font-family="sans-serif" font-size="13" lengthAdjust="spacingAndGlyphs" textLength="44" x="240" y="757.2856">noHp()</text><polygon fill="#A80036" points="492,787.4844,502,791.4844,492,795.4844,496,791.4844" style="stroke: #A80036; stroke-width: 1.0;"/><line style="stroke: #A80036; stroke-width: 1.0;" x1="201" x2="498" y1="791.4844" y2="791.4844"/><text fill="#000000" font-family="sans-serif" font-size="13" font-weight="bold" lengthAdjust="spacingAndGlyphs" textLength="18" x="208" y="786.4185">24</text><text fill="#000000" font-family="sans-serif" font-size="13" lengthAdjust="spacingAndGlyphs" textLength="66" x="230" y="786.4185">despawn()</text><polygon fill="#A80036" points="605,816.6172,615,820.6172,605,824.6172,609,820.6172" style="stroke: #A80036; stroke-width: 1.0;"/><line style="stroke: #A80036; stroke-width: 1.0;" x1="201" x2="611" y1="820.6172" y2="820.6172"/><text fill="#000000" font-family="sans-serif" font-size="13" font-weight="bold" lengthAdjust="spacingAndGlyphs" textLength="18" x="208" y="815.5513">25</text><text fill="#000000" font-family="sans-serif" font-size="13" lengthAdjust="spacingAndGlyphs" textLength="49" x="230" y="815.5513">visible()</text><polygon fill="#A80036" points="212,845.75,202,849.75,212,853.75,208,849.75" style="stroke: #A80036; stroke-width: 1.0;"/><line style="stroke: #A80036; stroke-width: 1.0;" x1="206" x2="621" y1="849.75" y2="849.75"/><text fill="#000000" font-family="sans-serif" font-size="13" font-weight="bold" lengthAdjust="spacingAndGlyphs" textLength="18" x="218" y="844.6841">26</text><text fill="#000000" font-family="sans-serif" font-size="13" lengthAdjust="spacingAndGlyphs" textLength="66" x="240" y="844.6841">visibleOk()</text><polygon fill="#A80036" points="179,874.8828,189,878.8828,179,882.8828,183,878.8828" style="stroke: #A80036; stroke-width: 1.0;"/><line style="stroke: #A80036; stroke-width: 1.0;" x1="38" x2="185" y1="878.8828" y2="878.8828"/><text fill="#000000" font-family="sans-serif" font-size="13" font-weight="bold" lengthAdjust="spacingAndGlyphs" textLength="18" x="45" y="873.8169">27</text><text fill="#000000" font-family="sans-serif" font-size="13" lengthAdjust="spacingAndGlyphs" textLength="92" x="67" y="873.8169">pressLeftKey()</text><polygon fill="#A80036" points="342,904.0156,352,908.0156,342,912.0156,346,908.0156" style="stroke: #A80036; stroke-width: 1.0;"/><line style="stroke: #A80036; stroke-width: 1.0;" x1="201" x2="348" y1="908.0156" y2="908.0156"/><text fill="#000000" font-family="sans-serif" font-size="13" font-weight="bold" lengthAdjust="spacingAndGlyphs" textLength="18" x="208" y="902.9497">28</text><text fill="#000000" font-family="sans-serif" font-size="13" lengthAdjust="spacingAndGlyphs" textLength="70" x="230" y="902.9497">moveLeft()</text><line style="stroke: #A80036; stroke-width: 1.0;" x1="364" x2="406" y1="937.1484" y2="937.1484"/><line style="stroke: #A80036; stroke-width: 1.0;" x1="406" x2="406" y1="937.1484" y2="950.1484"/><line style="stroke: #A80036; stroke-width: 1.0;" x1="365" x2="406" y1="950.1484" y2="950.1484"/><polygon fill="#A80036" points="375,946.1484,365,950.1484,375,954.1484,371,950.1484" style="stroke: #A80036; stroke-width: 1.0;"/><text fill="#000000" font-family="sans-serif" font-size="13" font-weight="bold" lengthAdjust="spacingAndGlyphs" textLength="18" x="371" y="932.0825">29</text><text fill="#000000" font-family="sans-serif" font-size="13" lengthAdjust="spacingAndGlyphs" textLength="81" x="393" y="932.0825">movingLeft()</text><polygon fill="#A80036" points="212,975.2813,202,979.2813,212,983.2813,208,979.2813" style="stroke: #A80036; stroke-width: 1.0;"/><line style="stroke: #A80036; stroke-width: 1.0;" x1="206" x2="353" y1="979.2813" y2="979.2813"/><text fill="#000000" font-family="sans-serif" font-size="13" font-weight="bold" lengthAdjust="spacingAndGlyphs" textLength="18" x="218" y="974.2153">30</text><text fill="#000000" font-family="sans-serif" font-size="13" lengthAdjust="spacingAndGlyphs" textLength="107" x="240" y="974.2153">pickedPowerUp()</text><polygon fill="#A80036" points="605,1004.4141,615,1008.4141,605,1012.4141,609,1008.4141" style="stroke: #A80036; stroke-width: 1.0;"/><line style="stroke: #A80036; stroke-width: 1.0;" x1="201" x2="611" y1="1008.4141" y2="1008.4141"/><text fill="#000000" font-family="sans-serif" font-size="13" font-weight="bold" lengthAdjust="spacingAndGlyphs" textLength="18" x="208" y="1003.3481">31</text><text fill="#000000" font-family="sans-serif" font-size="13" lengthAdjust="spacingAndGlyphs" textLength="53" x="230" y="1003.3481">modify()</text><polygon fill="#A80036" points="212,1033.5469,202,1037.5469,212,1041.5469,208,1037.5469" style="stroke: #A80036; stroke-width: 1.0;"/><line style="stroke: #A80036; stroke-width: 1.0;" x1="206" x2="616" y1="1037.5469" y2="1037.5469"/><text fill="#000000" font-family="sans-serif" font-size="13" font-weight="bold" lengthAdjust="spacingAndGlyphs" textLength="18" x="218" y="1032.481">32</text><text fill="#000000" font-family="sans-serif" font-size="13" lengthAdjust="spacingAndGlyphs" textLength="103" x="240" y="1032.481">modifyVelocity()</text><polygon fill="#A80036" points="610,1062.6797,620,1066.6797,610,1070.6797,614,1066.6797" style="stroke: #A80036; stroke-width: 1.0;"/><line style="stroke: #A80036; stroke-width: 1.0;" x1="201" x2="616" y1="1066.6797" y2="1066.6797"/><text fill="#000000" font-family="sans-serif" font-size="13" font-weight="bold" lengthAdjust="spacingAndGlyphs" textLength="18" x="208" y="1061.6138">33</text><text fill="#000000" font-family="sans-serif" font-size="13" lengthAdjust="spacingAndGlyphs" textLength="66" x="230" y="1061.6138">despawn()</text><polygon fill="#A80036" points="347,1091.8125,357,1095.8125,347,1099.8125,351,1095.8125" style="stroke: #A80036; stroke-width: 1.0;"/><line style="stroke: #A80036; stroke-width: 1.0;" x1="201" x2="353" y1="1095.8125" y2="1095.8125"/><text fill="#000000" font-family="sans-serif" font-size="13" font-weight="bold" lengthAdjust="spacingAndGlyphs" textLength="18" x="208" y="1090.7466">34</text><text fill="#000000" font-family="sans-serif" font-size="13" lengthAdjust="spacingAndGlyphs" textLength="103" x="230" y="1090.7466">modifyVelocity()</text><polygon fill="#A80036" points="49,1120.9453,39,1124.9453,49,1128.9453,45,1124.9453" style="stroke: #A80036; stroke-width: 1.0;"/><line style="stroke: #A80036; stroke-width: 1.0;" x1="43" x2="190" y1="1124.9453" y2="1124.9453"/><text fill="#000000" font-family="sans-serif" font-size="13" font-weight="bold" lengthAdjust="spacingAndGlyphs" textLength="18" x="55" y="1119.8794">35</text><text fill="#000000" font-family="sans-serif" font-size="13" lengthAdjust="spacingAndGlyphs" textLength="88" x="77" y="1119.8794">showResults()</text><!--
@startuml
autonumber
activate User
activate Game
Game -> Bomberman: spawn()
activate Bomberman
Bomberman -> Game: spawnOk()
deactivate Bomberman
Game -> dWall: spawn()
activate dWall
dWall -> Game: spawnOk()
deactivate dWall
Game -> powerUp: spawn()
activate powerUp
powerUp-> Game: spawnOk()
deactivate powerUp
User -> Game: pressLeftKey()
Game -> Bomberman: moveLeft()
activate Bomberman
Bomberman -> Bomberman: movingLeft()
User -> Game: pressSpaceBar()
deactivate Bomberman
Game -> Bomberman: plantBomb()
activate Bomberman
Bomberman -> Bomberman: plantingBomb()
Bomberman -> Game: bombPlanted()
deactivate Bomberman
Game -> Bomb: spawn()
activate Bomb
Bomb -> Game: spawnOk()
User -> Game: pressRightKey()
Game -> Bomberman: moveRight()
activate Bomberman
Bomberman -> Bomberman: movingRight()
Bomb -> Game: explotion()
deactivate Bomberman
Game -> Bomb: despawn()
deactivate Bomb
Game -> dWall: damage()
activate dWall
dWall -> dWall: reduceHp()
dWall -> Game: noHp()
Game -> dWall: despawn()
deactivate dWall
Game -> powerUp: visible()
activate powerUp
powerUp -> Game: visibleOk()
deactivate powerUp
User -> Game: pressLeftKey()
Game -> Bomberman: moveLeft()
activate Bomberman
Bomberman -> Bomberman: movingLeft()
Bomberman -> Game: pickedPowerUp()
Game -> powerUp: modify()
activate powerUp
powerUp -> Game: modifyVelocity()
Game -> powerUp: despawn()
deactivate powerUp
Game -> Bomberman: modifyVelocity()
deactivate Bomberman
Game -> User: showResults()
@enduml

PlantUML version 1.2019.04(Fri Mar 29 15:44:36 UTC 2019)
(GPL source distribution)
Java Runtime: OpenJDK Runtime Environment
JVM: OpenJDK 64-Bit Server VM
Java Version: 1.8.0_201-heroku-b09
Operating System: Linux
OS Version: 4.4.0-1048-aws
Default Encoding: UTF-8
Language: en
Country: US
--></g></svg>