<?xml version="1.0" encoding="UTF-8" standalone="no"?><svg xmlns="http://www.w3.org/2000/svg" xmlns:xlink="http://www.w3.org/1999/xlink" contentScriptType="application/ecmascript" contentStyleType="text/css" height="635px" preserveAspectRatio="none" style="width:1473px;height:635px;" version="1.1" viewBox="0 0 1473 635" width="1473px" zoomAndPan="magnify"><defs><filter height="300%" id="f1d08dfsy0rhkt" width="300%" x="-1" y="-1"><feGaussianBlur result="blurOut" stdDeviation="2.0"/><feColorMatrix in="blurOut" result="blurOut2" type="matrix" values="0 0 0 0 0 0 0 0 0 0 0 0 0 0 0 0 0 0 .4 0"/><feOffset dx="4.0" dy="4.0" in="blurOut2" result="blurOut3"/><feBlend in="SourceGraphic" in2="blurOut3" mode="normal"/></filter></defs><g><!--class Game--><rect fill="#FEFECE" filter="url(#f1d08dfsy0rhkt)" height="60.8047" id="Game" style="stroke: #A80036; stroke-width: 1.5;" width="68" x="125" y="33.5"/><ellipse cx="140" cy="49.5" fill="#ADD1B2" rx="11" ry="11" style="stroke: #A80036; stroke-width: 1.0;"/><path d="M142.9688,55.1406 Q142.3906,55.4375 141.75,55.5859 Q141.1094,55.7344 140.4063,55.7344 Q137.9063,55.7344 136.5859,54.0859 Q135.2656,52.4375 135.2656,49.3125 Q135.2656,46.1875 136.5859,44.5313 Q137.9063,42.875 140.4063,42.875 Q141.1094,42.875 141.7578,43.0313 Q142.4063,43.1875 142.9688,43.4844 L142.9688,46.2031 Q142.3438,45.625 141.75,45.3516 Q141.1563,45.0781 140.5313,45.0781 Q139.1875,45.0781 138.5,46.1484 Q137.8125,47.2188 137.8125,49.3125 Q137.8125,51.4063 138.5,52.4766 Q139.1875,53.5469 140.5313,53.5469 Q141.1563,53.5469 141.75,53.2734 Q142.3438,53 142.9688,52.4219 L142.9688,55.1406 Z "/><text fill="#000000" font-family="sans-serif" font-size="12" lengthAdjust="spacingAndGlyphs" textLength="36" x="154" y="53.6543">Game</text><line style="stroke: #A80036; stroke-width: 1.5;" x1="126" x2="192" y1="65.5" y2="65.5"/><text fill="#000000" font-family="sans-serif" font-size="11" lengthAdjust="spacingAndGlyphs" textLength="9" x="131" y="79.7104">+</text><line style="stroke: #A80036; stroke-width: 1.5;" x1="126" x2="192" y1="86.3047" y2="86.3047"/><!--class Map--><rect fill="#FEFECE" filter="url(#f1d08dfsy0rhkt)" height="73.6094" id="Map" style="stroke: #A80036; stroke-width: 1.5;" width="58" x="6" y="311"/><ellipse cx="21" cy="327" fill="#ADD1B2" rx="11" ry="11" style="stroke: #A80036; stroke-width: 1.0;"/><path d="M23.9688,332.6406 Q23.3906,332.9375 22.75,333.0859 Q22.1094,333.2344 21.4063,333.2344 Q18.9063,333.2344 17.5859,331.5859 Q16.2656,329.9375 16.2656,326.8125 Q16.2656,323.6875 17.5859,322.0313 Q18.9063,320.375 21.4063,320.375 Q22.1094,320.375 22.7578,320.5313 Q23.4063,320.6875 23.9688,320.9844 L23.9688,323.7031 Q23.3438,323.125 22.75,322.8516 Q22.1563,322.5781 21.5313,322.5781 Q20.1875,322.5781 19.5,323.6484 Q18.8125,324.7188 18.8125,326.8125 Q18.8125,328.9063 19.5,329.9766 Q20.1875,331.0469 21.5313,331.0469 Q22.1563,331.0469 22.75,330.7734 Q23.3438,330.5 23.9688,329.9219 L23.9688,332.6406 Z "/><text fill="#000000" font-family="sans-serif" font-size="12" lengthAdjust="spacingAndGlyphs" textLength="26" x="35" y="331.1543">Map</text><line style="stroke: #A80036; stroke-width: 1.5;" x1="7" x2="63" y1="343" y2="343"/><text fill="#000000" font-family="sans-serif" font-size="11" lengthAdjust="spacingAndGlyphs" textLength="28" x="12" y="357.2104">Time</text><text fill="#000000" font-family="sans-serif" font-size="11" lengthAdjust="spacingAndGlyphs" textLength="38" x="12" y="370.0151">Lenght</text><line style="stroke: #A80036; stroke-width: 1.5;" x1="7" x2="63" y1="376.6094" y2="376.6094"/><!--class Character--><rect fill="#FEFECE" filter="url(#f1d08dfsy0rhkt)" height="214.4609" id="Character" style="stroke: #A80036; stroke-width: 1.5;" width="120" x="99" y="241"/><ellipse cx="125.7" cy="257" fill="#A9DCDF" rx="11" ry="11" style="stroke: #A80036; stroke-width: 1.0;"/><path d="M125.8094,252.3438 L124.6531,257.4219 L126.9813,257.4219 L125.8094,252.3438 Z M124.325,250.1094 L127.3094,250.1094 L130.6688,262.5 L128.2156,262.5 L127.45,259.4375 L124.1688,259.4375 L123.4188,262.5 L120.9813,262.5 L124.325,250.1094 Z "/><text fill="#000000" font-family="sans-serif" font-size="12" font-style="italic" lengthAdjust="spacingAndGlyphs" textLength="62" x="142.3" y="261.1543">Character</text><line style="stroke: #A80036; stroke-width: 1.5;" x1="100" x2="218" y1="273" y2="273"/><text fill="#000000" font-family="sans-serif" font-size="11" lengthAdjust="spacingAndGlyphs" textLength="33" x="105" y="287.2104">Bomb</text><text fill="#000000" font-family="sans-serif" font-size="11" lengthAdjust="spacingAndGlyphs" textLength="20" x="105" y="300.0151">Life</text><text fill="#000000" font-family="sans-serif" font-size="11" lengthAdjust="spacingAndGlyphs" textLength="36" x="105" y="312.8198">Speed</text><text fill="#000000" font-family="sans-serif" font-size="11" lengthAdjust="spacingAndGlyphs" textLength="45" x="105" y="325.6245">Position</text><text fill="#000000" font-family="sans-serif" font-size="11" lengthAdjust="spacingAndGlyphs" textLength="34" x="105" y="338.4292">Punch</text><line style="stroke: #A80036; stroke-width: 1.5;" x1="100" x2="218" y1="345.0234" y2="345.0234"/><ellipse cx="110" cy="356.9258" fill="#84BE84" rx="3" ry="3" style="stroke: #038048; stroke-width: 1.0;"/><text fill="#000000" font-family="sans-serif" font-size="11" lengthAdjust="spacingAndGlyphs" textLength="67" x="119" y="359.2339">moveRight()</text><ellipse cx="110" cy="369.7305" fill="#84BE84" rx="3" ry="3" style="stroke: #038048; stroke-width: 1.0;"/><text fill="#000000" font-family="sans-serif" font-size="11" lengthAdjust="spacingAndGlyphs" textLength="60" x="119" y="372.0386">moveLeft()</text><ellipse cx="110" cy="382.5352" fill="#84BE84" rx="3" ry="3" style="stroke: #038048; stroke-width: 1.0;"/><text fill="#000000" font-family="sans-serif" font-size="11" lengthAdjust="spacingAndGlyphs" textLength="54" x="119" y="384.8433">moveUp()</text><ellipse cx="110" cy="395.3398" fill="#84BE84" rx="3" ry="3" style="stroke: #038048; stroke-width: 1.0;"/><text fill="#000000" font-family="sans-serif" font-size="11" lengthAdjust="spacingAndGlyphs" textLength="70" x="119" y="397.6479">moveDown()</text><ellipse cx="110" cy="408.1445" fill="#84BE84" rx="3" ry="3" style="stroke: #038048; stroke-width: 1.0;"/><text fill="#000000" font-family="sans-serif" font-size="11" lengthAdjust="spacingAndGlyphs" textLength="69" x="119" y="410.4526">plantBomb()</text><ellipse cx="110" cy="420.9492" fill="#84BE84" rx="3" ry="3" style="stroke: #038048; stroke-width: 1.0;"/><text fill="#000000" font-family="sans-serif" font-size="11" lengthAdjust="spacingAndGlyphs" textLength="54" x="119" y="423.2573">damage()</text><ellipse cx="110" cy="433.7539" fill="#84BE84" rx="3" ry="3" style="stroke: #038048; stroke-width: 1.0;"/><text fill="#000000" font-family="sans-serif" font-size="11" lengthAdjust="spacingAndGlyphs" textLength="94" x="119" y="436.062">pickUpPowerup()</text><ellipse cx="110" cy="446.5586" fill="#84BE84" rx="3" ry="3" style="stroke: #038048; stroke-width: 1.0;"/><text fill="#000000" font-family="sans-serif" font-size="11" lengthAdjust="spacingAndGlyphs" textLength="70" x="119" y="448.8667">setAtribute()</text><!--class Player--><rect fill="#FEFECE" filter="url(#f1d08dfsy0rhkt)" height="48" id="Player" style="stroke: #A80036; stroke-width: 1.5;" width="70" x="71" y="576"/><ellipse cx="86" cy="592" fill="#ADD1B2" rx="11" ry="11" style="stroke: #A80036; stroke-width: 1.0;"/><path d="M88.9688,597.6406 Q88.3906,597.9375 87.75,598.0859 Q87.1094,598.2344 86.4063,598.2344 Q83.9063,598.2344 82.5859,596.5859 Q81.2656,594.9375 81.2656,591.8125 Q81.2656,588.6875 82.5859,587.0313 Q83.9063,585.375 86.4063,585.375 Q87.1094,585.375 87.7578,585.5313 Q88.4063,585.6875 88.9688,585.9844 L88.9688,588.7031 Q88.3438,588.125 87.75,587.8516 Q87.1563,587.5781 86.5313,587.5781 Q85.1875,587.5781 84.5,588.6484 Q83.8125,589.7188 83.8125,591.8125 Q83.8125,593.9063 84.5,594.9766 Q85.1875,596.0469 86.5313,596.0469 Q87.1563,596.0469 87.75,595.7734 Q88.3438,595.5 88.9688,594.9219 L88.9688,597.6406 Z "/><text fill="#000000" font-family="sans-serif" font-size="12" lengthAdjust="spacingAndGlyphs" textLength="38" x="100" y="596.1543">Player</text><line style="stroke: #A80036; stroke-width: 1.5;" x1="72" x2="140" y1="608" y2="608"/><line style="stroke: #A80036; stroke-width: 1.5;" x1="72" x2="140" y1="616" y2="616"/><!--class Enemy--><rect fill="#FEFECE" filter="url(#f1d08dfsy0rhkt)" height="48" id="Enemy" style="stroke: #A80036; stroke-width: 1.5;" width="73" x="176.5" y="576"/><ellipse cx="191.5" cy="592" fill="#ADD1B2" rx="11" ry="11" style="stroke: #A80036; stroke-width: 1.0;"/><path d="M194.4688,597.6406 Q193.8906,597.9375 193.25,598.0859 Q192.6094,598.2344 191.9063,598.2344 Q189.4063,598.2344 188.0859,596.5859 Q186.7656,594.9375 186.7656,591.8125 Q186.7656,588.6875 188.0859,587.0313 Q189.4063,585.375 191.9063,585.375 Q192.6094,585.375 193.2578,585.5313 Q193.9063,585.6875 194.4688,585.9844 L194.4688,588.7031 Q193.8438,588.125 193.25,587.8516 Q192.6563,587.5781 192.0313,587.5781 Q190.6875,587.5781 190,588.6484 Q189.3125,589.7188 189.3125,591.8125 Q189.3125,593.9063 190,594.9766 Q190.6875,596.0469 192.0313,596.0469 Q192.6563,596.0469 193.25,595.7734 Q193.8438,595.5 194.4688,594.9219 L194.4688,597.6406 Z "/><text fill="#000000" font-family="sans-serif" font-size="12" lengthAdjust="spacingAndGlyphs" textLength="41" x="205.5" y="596.1543">Enemy</text><line style="stroke: #A80036; stroke-width: 1.5;" x1="177.5" x2="248.5" y1="608" y2="608"/><line style="stroke: #A80036; stroke-width: 1.5;" x1="177.5" x2="248.5" y1="616" y2="616"/><!--class Bomb--><rect fill="#FEFECE" filter="url(#f1d08dfsy0rhkt)" height="150.4375" id="Bomb" style="stroke: #A80036; stroke-width: 1.5;" width="117" x="254.5" y="273"/><ellipse cx="292" cy="289" fill="#ADD1B2" rx="11" ry="11" style="stroke: #A80036; stroke-width: 1.0;"/><path d="M294.9688,294.6406 Q294.3906,294.9375 293.75,295.0859 Q293.1094,295.2344 292.4063,295.2344 Q289.9063,295.2344 288.5859,293.5859 Q287.2656,291.9375 287.2656,288.8125 Q287.2656,285.6875 288.5859,284.0313 Q289.9063,282.375 292.4063,282.375 Q293.1094,282.375 293.7578,282.5313 Q294.4063,282.6875 294.9688,282.9844 L294.9688,285.7031 Q294.3438,285.125 293.75,284.8516 Q293.1563,284.5781 292.5313,284.5781 Q291.1875,284.5781 290.5,285.6484 Q289.8125,286.7188 289.8125,288.8125 Q289.8125,290.9063 290.5,291.9766 Q291.1875,293.0469 292.5313,293.0469 Q293.1563,293.0469 293.75,292.7734 Q294.3438,292.5 294.9688,291.9219 L294.9688,294.6406 Z "/><text fill="#000000" font-family="sans-serif" font-size="12" lengthAdjust="spacingAndGlyphs" textLength="35" x="311" y="293.1543">Bomb</text><line style="stroke: #A80036; stroke-width: 1.5;" x1="255.5" x2="370.5" y1="305" y2="305"/><text fill="#000000" font-family="sans-serif" font-size="11" lengthAdjust="spacingAndGlyphs" textLength="28" x="260.5" y="319.2104">Time</text><text fill="#000000" font-family="sans-serif" font-size="11" lengthAdjust="spacingAndGlyphs" textLength="35" x="260.5" y="332.0151">Range</text><text fill="#000000" font-family="sans-serif" font-size="11" lengthAdjust="spacingAndGlyphs" textLength="87" x="260.5" y="344.8198">DestructionWall</text><line style="stroke: #A80036; stroke-width: 1.5;" x1="255.5" x2="370.5" y1="351.4141" y2="351.4141"/><ellipse cx="265.5" cy="363.3164" fill="#84BE84" rx="3" ry="3" style="stroke: #038048; stroke-width: 1.0;"/><text fill="#000000" font-family="sans-serif" font-size="11" lengthAdjust="spacingAndGlyphs" textLength="54" x="274.5" y="365.6245">damage()</text><ellipse cx="265.5" cy="376.1211" fill="#84BE84" rx="3" ry="3" style="stroke: #038048; stroke-width: 1.0;"/><text fill="#000000" font-family="sans-serif" font-size="11" lengthAdjust="spacingAndGlyphs" textLength="76" x="274.5" y="378.4292">damageWall()</text><ellipse cx="265.5" cy="388.9258" fill="#84BE84" rx="3" ry="3" style="stroke: #038048; stroke-width: 1.0;"/><text fill="#000000" font-family="sans-serif" font-size="11" lengthAdjust="spacingAndGlyphs" textLength="49" x="274.5" y="391.2339">explote()</text><ellipse cx="265.5" cy="401.7305" fill="#84BE84" rx="3" ry="3" style="stroke: #038048; stroke-width: 1.0;"/><text fill="#000000" font-family="sans-serif" font-size="11" lengthAdjust="spacingAndGlyphs" textLength="61" x="274.5" y="404.0386">setRange()</text><ellipse cx="265.5" cy="414.5352" fill="#84BE84" rx="3" ry="3" style="stroke: #038048; stroke-width: 1.0;"/><text fill="#000000" font-family="sans-serif" font-size="11" lengthAdjust="spacingAndGlyphs" textLength="91" x="274.5" y="416.8433">setDestruction()</text><!--class Wall--><rect fill="#FEFECE" filter="url(#f1d08dfsy0rhkt)" height="73.6094" id="Wall" style="stroke: #A80036; stroke-width: 1.5;" width="91" x="477.5" y="27"/><ellipse cx="507.8" cy="43" fill="#A9DCDF" rx="11" ry="11" style="stroke: #A80036; stroke-width: 1.0;"/><path d="M507.9094,38.3438 L506.7531,43.4219 L509.0813,43.4219 L507.9094,38.3438 Z M506.425,36.1094 L509.4094,36.1094 L512.7688,48.5 L510.3156,48.5 L509.55,45.4375 L506.2688,45.4375 L505.5188,48.5 L503.0813,48.5 L506.425,36.1094 Z "/><text fill="#000000" font-family="sans-serif" font-size="12" font-style="italic" lengthAdjust="spacingAndGlyphs" textLength="25" x="525.2" y="47.1543">Wall</text><line style="stroke: #A80036; stroke-width: 1.5;" x1="478.5" x2="567.5" y1="59" y2="59"/><line style="stroke: #A80036; stroke-width: 1.5;" x1="478.5" x2="567.5" y1="67" y2="67"/><ellipse cx="488.5" cy="78.9023" fill="#84BE84" rx="3" ry="3" style="stroke: #038048; stroke-width: 1.0;"/><text fill="#000000" font-family="sans-serif" font-size="11" lengthAdjust="spacingAndGlyphs" textLength="25" x="497.5" y="81.2104">life()</text><ellipse cx="488.5" cy="91.707" fill="#84BE84" rx="3" ry="3" style="stroke: #038048; stroke-width: 1.0;"/><text fill="#000000" font-family="sans-serif" font-size="11" lengthAdjust="spacingAndGlyphs" textLength="65" x="497.5" y="94.0151">disappear()</text><!--class Breakable--><rect fill="#FEFECE" filter="url(#f1d08dfsy0rhkt)" height="86.4141" id="Breakable" style="stroke: #A80036; stroke-width: 1.5;" width="95" x="406.5" y="305"/><ellipse cx="421.5" cy="321" fill="#ADD1B2" rx="11" ry="11" style="stroke: #A80036; stroke-width: 1.0;"/><path d="M424.4688,326.6406 Q423.8906,326.9375 423.25,327.0859 Q422.6094,327.2344 421.9063,327.2344 Q419.4063,327.2344 418.0859,325.5859 Q416.7656,323.9375 416.7656,320.8125 Q416.7656,317.6875 418.0859,316.0313 Q419.4063,314.375 421.9063,314.375 Q422.6094,314.375 423.2578,314.5313 Q423.9063,314.6875 424.4688,314.9844 L424.4688,317.7031 Q423.8438,317.125 423.25,316.8516 Q422.6563,316.5781 422.0313,316.5781 Q420.6875,316.5781 420,317.6484 Q419.3125,318.7188 419.3125,320.8125 Q419.3125,322.9063 420,323.9766 Q420.6875,325.0469 422.0313,325.0469 Q422.6563,325.0469 423.25,324.7734 Q423.8438,324.5 424.4688,323.9219 L424.4688,326.6406 Z "/><text fill="#000000" font-family="sans-serif" font-size="12" lengthAdjust="spacingAndGlyphs" textLength="63" x="435.5" y="325.1543">Breakable</text><line style="stroke: #A80036; stroke-width: 1.5;" x1="407.5" x2="500.5" y1="337" y2="337"/><line style="stroke: #A80036; stroke-width: 1.5;" x1="407.5" x2="500.5" y1="345" y2="345"/><ellipse cx="417.5" cy="356.9023" fill="#84BE84" rx="3" ry="3" style="stroke: #038048; stroke-width: 1.0;"/><text fill="#000000" font-family="sans-serif" font-size="11" lengthAdjust="spacingAndGlyphs" textLength="25" x="426.5" y="359.2104">life()</text><ellipse cx="417.5" cy="369.707" fill="#84BE84" rx="3" ry="3" style="stroke: #038048; stroke-width: 1.0;"/><text fill="#000000" font-family="sans-serif" font-size="11" lengthAdjust="spacingAndGlyphs" textLength="58" x="426.5" y="372.0151">disapear()</text><ellipse cx="417.5" cy="382.5117" fill="#84BE84" rx="3" ry="3" style="stroke: #038048; stroke-width: 1.0;"/><text fill="#000000" font-family="sans-serif" font-size="11" lengthAdjust="spacingAndGlyphs" textLength="58" x="426.5" y="384.8198">powerUp()</text><!--class Unbreakable--><rect fill="#FEFECE" filter="url(#f1d08dfsy0rhkt)" height="73.6094" id="Unbreakable" style="stroke: #A80036; stroke-width: 1.5;" width="112" x="537" y="311"/><ellipse cx="552" cy="327" fill="#ADD1B2" rx="11" ry="11" style="stroke: #A80036; stroke-width: 1.0;"/><path d="M554.9688,332.6406 Q554.3906,332.9375 553.75,333.0859 Q553.1094,333.2344 552.4063,333.2344 Q549.9063,333.2344 548.5859,331.5859 Q547.2656,329.9375 547.2656,326.8125 Q547.2656,323.6875 548.5859,322.0313 Q549.9063,320.375 552.4063,320.375 Q553.1094,320.375 553.7578,320.5313 Q554.4063,320.6875 554.9688,320.9844 L554.9688,323.7031 Q554.3438,323.125 553.75,322.8516 Q553.1563,322.5781 552.5313,322.5781 Q551.1875,322.5781 550.5,323.6484 Q549.8125,324.7188 549.8125,326.8125 Q549.8125,328.9063 550.5,329.9766 Q551.1875,331.0469 552.5313,331.0469 Q553.1563,331.0469 553.75,330.7734 Q554.3438,330.5 554.9688,329.9219 L554.9688,332.6406 Z "/><text fill="#000000" font-family="sans-serif" font-size="12" lengthAdjust="spacingAndGlyphs" textLength="80" x="566" y="331.1543">Unbreakable</text><line style="stroke: #A80036; stroke-width: 1.5;" x1="538" x2="648" y1="343" y2="343"/><line style="stroke: #A80036; stroke-width: 1.5;" x1="538" x2="648" y1="351" y2="351"/><ellipse cx="548" cy="362.9023" fill="#84BE84" rx="3" ry="3" style="stroke: #038048; stroke-width: 1.0;"/><text fill="#000000" font-family="sans-serif" font-size="11" lengthAdjust="spacingAndGlyphs" textLength="25" x="557" y="365.2104">life()</text><ellipse cx="548" cy="375.707" fill="#84BE84" rx="3" ry="3" style="stroke: #038048; stroke-width: 1.0;"/><text fill="#000000" font-family="sans-serif" font-size="11" lengthAdjust="spacingAndGlyphs" textLength="58" x="557" y="378.0151">disapear()</text><!--class PowerUp--><rect fill="#FEFECE" filter="url(#f1d08dfsy0rhkt)" height="112.0234" id="PowerUp" style="stroke: #A80036; stroke-width: 1.5;" width="87" x="1037.5" y="8"/><ellipse cx="1052.5" cy="24" fill="#A9DCDF" rx="11" ry="11" style="stroke: #A80036; stroke-width: 1.0;"/><path d="M1052.6094,19.3438 L1051.4531,24.4219 L1053.7813,24.4219 L1052.6094,19.3438 Z M1051.125,17.1094 L1054.1094,17.1094 L1057.4688,29.5 L1055.0156,29.5 L1054.25,26.4375 L1050.9688,26.4375 L1050.2188,29.5 L1047.7813,29.5 L1051.125,17.1094 Z "/><text fill="#000000" font-family="sans-serif" font-size="12" font-style="italic" lengthAdjust="spacingAndGlyphs" textLength="55" x="1066.5" y="28.1543">PowerUp</text><line style="stroke: #A80036; stroke-width: 1.5;" x1="1038.5" x2="1123.5" y1="40" y2="40"/><text fill="#000000" font-family="sans-serif" font-size="11" lengthAdjust="spacingAndGlyphs" textLength="36" x="1043.5" y="54.2104">visible</text><line style="stroke: #A80036; stroke-width: 1.5;" x1="1038.5" x2="1123.5" y1="60.8047" y2="60.8047"/><ellipse cx="1048.5" cy="72.707" fill="#84BE84" rx="3" ry="3" style="stroke: #038048; stroke-width: 1.0;"/><text fill="#000000" font-family="sans-serif" font-size="11" lengthAdjust="spacingAndGlyphs" textLength="45" x="1057.5" y="75.0151">spawn()</text><ellipse cx="1048.5" cy="85.5117" fill="#84BE84" rx="3" ry="3" style="stroke: #038048; stroke-width: 1.0;"/><text fill="#000000" font-family="sans-serif" font-size="11" lengthAdjust="spacingAndGlyphs" textLength="44" x="1057.5" y="87.8198">visible()</text><ellipse cx="1048.5" cy="98.3164" fill="#84BE84" rx="3" ry="3" style="stroke: #038048; stroke-width: 1.0;"/><text fill="#000000" font-family="sans-serif" font-size="11" lengthAdjust="spacingAndGlyphs" textLength="41" x="1057.5" y="100.6245">active()</text><ellipse cx="1048.5" cy="111.1211" fill="#84BE84" rx="3" ry="3" style="stroke: #038048; stroke-width: 1.0;"/><text fill="#000000" font-family="sans-serif" font-size="11" lengthAdjust="spacingAndGlyphs" textLength="44" x="1057.5" y="113.4292">Modify()</text><!--class PSpeed--><rect fill="#FEFECE" filter="url(#f1d08dfsy0rhkt)" height="60.8047" id="PSpeed" style="stroke: #A80036; stroke-width: 1.5;" width="80" x="684" y="317.5"/><ellipse cx="699" cy="333.5" fill="#ADD1B2" rx="11" ry="11" style="stroke: #A80036; stroke-width: 1.0;"/><path d="M701.9688,339.1406 Q701.3906,339.4375 700.75,339.5859 Q700.1094,339.7344 699.4063,339.7344 Q696.9063,339.7344 695.5859,338.0859 Q694.2656,336.4375 694.2656,333.3125 Q694.2656,330.1875 695.5859,328.5313 Q696.9063,326.875 699.4063,326.875 Q700.1094,326.875 700.7578,327.0313 Q701.4063,327.1875 701.9688,327.4844 L701.9688,330.2031 Q701.3438,329.625 700.75,329.3516 Q700.1563,329.0781 699.5313,329.0781 Q698.1875,329.0781 697.5,330.1484 Q696.8125,331.2188 696.8125,333.3125 Q696.8125,335.4063 697.5,336.4766 Q698.1875,337.5469 699.5313,337.5469 Q700.1563,337.5469 700.75,337.2734 Q701.3438,337 701.9688,336.4219 L701.9688,339.1406 Z "/><text fill="#000000" font-family="sans-serif" font-size="12" lengthAdjust="spacingAndGlyphs" textLength="48" x="713" y="337.6543">PSpeed</text><line style="stroke: #A80036; stroke-width: 1.5;" x1="685" x2="763" y1="349.5" y2="349.5"/><line style="stroke: #A80036; stroke-width: 1.5;" x1="685" x2="763" y1="357.5" y2="357.5"/><ellipse cx="695" cy="369.4023" fill="#84BE84" rx="3" ry="3" style="stroke: #038048; stroke-width: 1.0;"/><text fill="#000000" font-family="sans-serif" font-size="11" lengthAdjust="spacingAndGlyphs" textLength="44" x="704" y="371.7104">Modify()</text><!--class PRange--><rect fill="#FEFECE" filter="url(#f1d08dfsy0rhkt)" height="60.8047" id="PRange" style="stroke: #A80036; stroke-width: 1.5;" width="80" x="799" y="317.5"/><ellipse cx="814" cy="333.5" fill="#ADD1B2" rx="11" ry="11" style="stroke: #A80036; stroke-width: 1.0;"/><path d="M816.9688,339.1406 Q816.3906,339.4375 815.75,339.5859 Q815.1094,339.7344 814.4063,339.7344 Q811.9063,339.7344 810.5859,338.0859 Q809.2656,336.4375 809.2656,333.3125 Q809.2656,330.1875 810.5859,328.5313 Q811.9063,326.875 814.4063,326.875 Q815.1094,326.875 815.7578,327.0313 Q816.4063,327.1875 816.9688,327.4844 L816.9688,330.2031 Q816.3438,329.625 815.75,329.3516 Q815.1563,329.0781 814.5313,329.0781 Q813.1875,329.0781 812.5,330.1484 Q811.8125,331.2188 811.8125,333.3125 Q811.8125,335.4063 812.5,336.4766 Q813.1875,337.5469 814.5313,337.5469 Q815.1563,337.5469 815.75,337.2734 Q816.3438,337 816.9688,336.4219 L816.9688,339.1406 Z "/><text fill="#000000" font-family="sans-serif" font-size="12" lengthAdjust="spacingAndGlyphs" textLength="48" x="828" y="337.6543">PRange</text><line style="stroke: #A80036; stroke-width: 1.5;" x1="800" x2="878" y1="349.5" y2="349.5"/><line style="stroke: #A80036; stroke-width: 1.5;" x1="800" x2="878" y1="357.5" y2="357.5"/><ellipse cx="810" cy="369.4023" fill="#84BE84" rx="3" ry="3" style="stroke: #038048; stroke-width: 1.0;"/><text fill="#000000" font-family="sans-serif" font-size="11" lengthAdjust="spacingAndGlyphs" textLength="44" x="819" y="371.7104">Modify()</text><!--class PBomb--><rect fill="#FEFECE" filter="url(#f1d08dfsy0rhkt)" height="60.8047" id="PBomb" style="stroke: #A80036; stroke-width: 1.5;" width="75" x="914.5" y="317.5"/><ellipse cx="929.5" cy="333.5" fill="#ADD1B2" rx="11" ry="11" style="stroke: #A80036; stroke-width: 1.0;"/><path d="M932.4688,339.1406 Q931.8906,339.4375 931.25,339.5859 Q930.6094,339.7344 929.9063,339.7344 Q927.4063,339.7344 926.0859,338.0859 Q924.7656,336.4375 924.7656,333.3125 Q924.7656,330.1875 926.0859,328.5313 Q927.4063,326.875 929.9063,326.875 Q930.6094,326.875 931.2578,327.0313 Q931.9063,327.1875 932.4688,327.4844 L932.4688,330.2031 Q931.8438,329.625 931.25,329.3516 Q930.6563,329.0781 930.0313,329.0781 Q928.6875,329.0781 928,330.1484 Q927.3125,331.2188 927.3125,333.3125 Q927.3125,335.4063 928,336.4766 Q928.6875,337.5469 930.0313,337.5469 Q930.6563,337.5469 931.25,337.2734 Q931.8438,337 932.4688,336.4219 L932.4688,339.1406 Z "/><text fill="#000000" font-family="sans-serif" font-size="12" lengthAdjust="spacingAndGlyphs" textLength="43" x="943.5" y="337.6543">PBomb</text><line style="stroke: #A80036; stroke-width: 1.5;" x1="915.5" x2="988.5" y1="349.5" y2="349.5"/><line style="stroke: #A80036; stroke-width: 1.5;" x1="915.5" x2="988.5" y1="357.5" y2="357.5"/><ellipse cx="925.5" cy="369.4023" fill="#84BE84" rx="3" ry="3" style="stroke: #038048; stroke-width: 1.0;"/><text fill="#000000" font-family="sans-serif" font-size="11" lengthAdjust="spacingAndGlyphs" textLength="44" x="934.5" y="371.7104">Modify()</text><!--class PDestruction--><rect fill="#FEFECE" filter="url(#f1d08dfsy0rhkt)" height="60.8047" id="PDestruction" style="stroke: #A80036; stroke-width: 1.5;" width="113" x="1024.5" y="317.5"/><ellipse cx="1039.5" cy="333.5" fill="#ADD1B2" rx="11" ry="11" style="stroke: #A80036; stroke-width: 1.0;"/><path d="M1042.4688,339.1406 Q1041.8906,339.4375 1041.25,339.5859 Q1040.6094,339.7344 1039.9063,339.7344 Q1037.4063,339.7344 1036.0859,338.0859 Q1034.7656,336.4375 1034.7656,333.3125 Q1034.7656,330.1875 1036.0859,328.5313 Q1037.4063,326.875 1039.9063,326.875 Q1040.6094,326.875 1041.2578,327.0313 Q1041.9063,327.1875 1042.4688,327.4844 L1042.4688,330.2031 Q1041.8438,329.625 1041.25,329.3516 Q1040.6563,329.0781 1040.0313,329.0781 Q1038.6875,329.0781 1038,330.1484 Q1037.3125,331.2188 1037.3125,333.3125 Q1037.3125,335.4063 1038,336.4766 Q1038.6875,337.5469 1040.0313,337.5469 Q1040.6563,337.5469 1041.25,337.2734 Q1041.8438,337 1042.4688,336.4219 L1042.4688,339.1406 Z "/><text fill="#000000" font-family="sans-serif" font-size="12" lengthAdjust="spacingAndGlyphs" textLength="81" x="1053.5" y="337.6543">PDestruction</text><line style="stroke: #A80036; stroke-width: 1.5;" x1="1025.5" x2="1136.5" y1="349.5" y2="349.5"/><line style="stroke: #A80036; stroke-width: 1.5;" x1="1025.5" x2="1136.5" y1="357.5" y2="357.5"/><ellipse cx="1035.5" cy="369.4023" fill="#84BE84" rx="3" ry="3" style="stroke: #038048; stroke-width: 1.0;"/><text fill="#000000" font-family="sans-serif" font-size="11" lengthAdjust="spacingAndGlyphs" textLength="44" x="1044.5" y="371.7104">Modify()</text><!--class PPunch--><rect fill="#FEFECE" filter="url(#f1d08dfsy0rhkt)" height="60.8047" id="PPunch" style="stroke: #A80036; stroke-width: 1.5;" width="79" x="1172.5" y="317.5"/><ellipse cx="1187.5" cy="333.5" fill="#ADD1B2" rx="11" ry="11" style="stroke: #A80036; stroke-width: 1.0;"/><path d="M1190.4688,339.1406 Q1189.8906,339.4375 1189.25,339.5859 Q1188.6094,339.7344 1187.9063,339.7344 Q1185.4063,339.7344 1184.0859,338.0859 Q1182.7656,336.4375 1182.7656,333.3125 Q1182.7656,330.1875 1184.0859,328.5313 Q1185.4063,326.875 1187.9063,326.875 Q1188.6094,326.875 1189.2578,327.0313 Q1189.9063,327.1875 1190.4688,327.4844 L1190.4688,330.2031 Q1189.8438,329.625 1189.25,329.3516 Q1188.6563,329.0781 1188.0313,329.0781 Q1186.6875,329.0781 1186,330.1484 Q1185.3125,331.2188 1185.3125,333.3125 Q1185.3125,335.4063 1186,336.4766 Q1186.6875,337.5469 1188.0313,337.5469 Q1188.6563,337.5469 1189.25,337.2734 Q1189.8438,337 1190.4688,336.4219 L1190.4688,339.1406 Z "/><text fill="#000000" font-family="sans-serif" font-size="12" lengthAdjust="spacingAndGlyphs" textLength="47" x="1201.5" y="337.6543">PPunch</text><line style="stroke: #A80036; stroke-width: 1.5;" x1="1173.5" x2="1250.5" y1="349.5" y2="349.5"/><line style="stroke: #A80036; stroke-width: 1.5;" x1="1173.5" x2="1250.5" y1="357.5" y2="357.5"/><ellipse cx="1183.5" cy="369.4023" fill="#84BE84" rx="3" ry="3" style="stroke: #038048; stroke-width: 1.0;"/><text fill="#000000" font-family="sans-serif" font-size="11" lengthAdjust="spacingAndGlyphs" textLength="44" x="1192.5" y="371.7104">Modify()</text><!--class PLife--><rect fill="#FEFECE" filter="url(#f1d08dfsy0rhkt)" height="60.8047" id="PLife" style="stroke: #A80036; stroke-width: 1.5;" width="70" x="1287" y="317.5"/><ellipse cx="1306.05" cy="333.5" fill="#ADD1B2" rx="11" ry="11" style="stroke: #A80036; stroke-width: 1.0;"/><path d="M1309.0188,339.1406 Q1308.4406,339.4375 1307.8,339.5859 Q1307.1594,339.7344 1306.4563,339.7344 Q1303.9563,339.7344 1302.6359,338.0859 Q1301.3156,336.4375 1301.3156,333.3125 Q1301.3156,330.1875 1302.6359,328.5313 Q1303.9563,326.875 1306.4563,326.875 Q1307.1594,326.875 1307.8078,327.0313 Q1308.4563,327.1875 1309.0188,327.4844 L1309.0188,330.2031 Q1308.3938,329.625 1307.8,329.3516 Q1307.2063,329.0781 1306.5813,329.0781 Q1305.2375,329.0781 1304.55,330.1484 Q1303.8625,331.2188 1303.8625,333.3125 Q1303.8625,335.4063 1304.55,336.4766 Q1305.2375,337.5469 1306.5813,337.5469 Q1307.2063,337.5469 1307.8,337.2734 Q1308.3938,337 1309.0188,336.4219 L1309.0188,339.1406 Z "/><text fill="#000000" font-family="sans-serif" font-size="12" lengthAdjust="spacingAndGlyphs" textLength="29" x="1320.95" y="337.6543">PLife</text><line style="stroke: #A80036; stroke-width: 1.5;" x1="1288" x2="1356" y1="349.5" y2="349.5"/><line style="stroke: #A80036; stroke-width: 1.5;" x1="1288" x2="1356" y1="357.5" y2="357.5"/><ellipse cx="1298" cy="369.4023" fill="#84BE84" rx="3" ry="3" style="stroke: #038048; stroke-width: 1.0;"/><text fill="#000000" font-family="sans-serif" font-size="11" lengthAdjust="spacingAndGlyphs" textLength="44" x="1307" y="371.7104">Modify()</text><!--class PTime--><rect fill="#FEFECE" filter="url(#f1d08dfsy0rhkt)" height="60.8047" id="PTime" style="stroke: #A80036; stroke-width: 1.5;" width="70" x="1392" y="317.5"/><ellipse cx="1407.45" cy="333.5" fill="#ADD1B2" rx="11" ry="11" style="stroke: #A80036; stroke-width: 1.0;"/><path d="M1410.4188,339.1406 Q1409.8406,339.4375 1409.2,339.5859 Q1408.5594,339.7344 1407.8563,339.7344 Q1405.3563,339.7344 1404.0359,338.0859 Q1402.7156,336.4375 1402.7156,333.3125 Q1402.7156,330.1875 1404.0359,328.5313 Q1405.3563,326.875 1407.8563,326.875 Q1408.5594,326.875 1409.2078,327.0313 Q1409.8563,327.1875 1410.4188,327.4844 L1410.4188,330.2031 Q1409.7938,329.625 1409.2,329.3516 Q1408.6063,329.0781 1407.9813,329.0781 Q1406.6375,329.0781 1405.95,330.1484 Q1405.2625,331.2188 1405.2625,333.3125 Q1405.2625,335.4063 1405.95,336.4766 Q1406.6375,337.5469 1407.9813,337.5469 Q1408.6063,337.5469 1409.2,337.2734 Q1409.7938,337 1410.4188,336.4219 L1410.4188,339.1406 Z "/><text fill="#000000" font-family="sans-serif" font-size="12" lengthAdjust="spacingAndGlyphs" textLength="37" x="1421.55" y="337.6543">PTime</text><line style="stroke: #A80036; stroke-width: 1.5;" x1="1393" x2="1461" y1="349.5" y2="349.5"/><line style="stroke: #A80036; stroke-width: 1.5;" x1="1393" x2="1461" y1="357.5" y2="357.5"/><ellipse cx="1403" cy="369.4023" fill="#84BE84" rx="3" ry="3" style="stroke: #038048; stroke-width: 1.0;"/><text fill="#000000" font-family="sans-serif" font-size="11" lengthAdjust="spacingAndGlyphs" textLength="44" x="1412" y="371.7104">Modify()</text><!--link Wall to Breakable--><path d="M509.1852,120.8607 C496.0044,175.1124 476.4374,255.6488 464.4902,304.8231 " fill="none" id="Wall-Breakable" style="stroke: #A80036; stroke-width: 1.0;"/><polygon fill="none" points="502.4555,118.91,513.9795,101.128,516.0597,122.2153,502.4555,118.91" style="stroke: #A80036; stroke-width: 1.0;"/><!--link Wall to Unbreakable--><path d="M537.0259,120.905 C550.9608,177.4408 571.9234,262.4893 583.8465,310.8628 " fill="none" id="Wall-Unbreakable" style="stroke: #A80036; stroke-width: 1.0;"/><polygon fill="none" points="530.1411,122.2221,532.1513,101.128,543.7343,118.8716,530.1411,122.2221" style="stroke: #A80036; stroke-width: 1.0;"/><!--link Character to Player--><path d="M132.2827,475.0333 C124.1707,513.6037 116.0858,552.045 111.0689,575.8987 " fill="none" id="Character-Player" style="stroke: #A80036; stroke-width: 1.0;"/><polygon fill="none" points="125.4799,473.3672,136.4464,455.2361,139.1801,476.2486,125.4799,473.3672" style="stroke: #A80036; stroke-width: 1.0;"/><!--link Character to Enemy--><path d="M186.2214,475.0333 C194.4865,513.6037 202.7239,552.045 207.8354,575.8987 " fill="none" id="Character-Enemy" style="stroke: #A80036; stroke-width: 1.0;"/><polygon fill="none" points="179.3252,476.2589,181.9792,455.2361,193.0144,473.3254,179.3252,476.2589" style="stroke: #A80036; stroke-width: 1.0;"/><!--link PowerUp to PSpeed--><path d="M1018.5546,88.6656 C952.7521,117.2044 849.3647,169.5904 781,241 C760.0403,262.8933 744.6251,294.0121 735.1486,317.0505 " fill="none" id="PowerUp-PSpeed" style="stroke: #A80036; stroke-width: 1.0;"/><polygon fill="none" points="1016.1335,82.0893,1037.2807,80.7477,1021.5858,94.984,1016.1335,82.0893" style="stroke: #A80036; stroke-width: 1.0;"/><!--link PowerUp to PRange--><path d="M1022.2543,112.1044 C983.655,145.6187 933.6982,192.8015 897,241 C878.8236,264.8724 862.9663,295.183 852.4479,317.4443 " fill="none" id="PowerUp-PRange" style="stroke: #A80036; stroke-width: 1.0;"/><polygon fill="none" points="1017.7497,106.746,1037.4975,99.0633,1026.8509,117.3841,1017.7497,106.746" style="stroke: #A80036; stroke-width: 1.0;"/><!--link PowerUp to PPunch--><path d="M1115.2647,138.2838 C1142.1801,196.6346 1178.2834,274.9044 1197.8893,317.409 " fill="none" id="PowerUp-PPunch" style="stroke: #A80036; stroke-width: 1.0;"/><polygon fill="none" points="1108.9022,141.2023,1106.8814,120.1093,1121.6149,135.3383,1108.9022,141.2023" style="stroke: #A80036; stroke-width: 1.0;"/><!--link PowerUp to PLife--><path d="M1140.2756,110.2557 C1180.1947,143.5413 1232.0905,191.1893 1269,241 C1286.5257,264.6515 1300.9158,294.9862 1310.2565,317.3129 " fill="none" id="PowerUp-PLife" style="stroke: #A80036; stroke-width: 1.0;"/><polygon fill="none" points="1135.8292,115.6622,1124.8019,97.568,1144.706,104.8362,1135.8292,115.6622" style="stroke: #A80036; stroke-width: 1.0;"/><!--link PowerUp to PTime--><path d="M1143.2397,88.7172 C1208.1724,117.1527 1309.4648,169.3168 1375,241 C1395.0681,262.9507 1409.0127,294.0623 1417.3731,317.0835 " fill="none" id="PowerUp-PTime" style="stroke: #A80036; stroke-width: 1.0;"/><polygon fill="none" points="1140.3895,95.1117,1124.7393,80.8264,1145.8821,82.2341,1140.3895,95.1117" style="stroke: #A80036; stroke-width: 1.0;"/><!--link PowerUp to PBomb--><path d="M1047.0862,138.663 C1020.6002,196.9733 985.1601,274.9964 965.8952,317.409 " fill="none" id="PowerUp-PBomb" style="stroke: #A80036; stroke-width: 1.0;"/><polygon fill="none" points="1040.8691,135.4238,1055.5138,120.1093,1053.6158,141.2137,1040.8691,135.4238" style="stroke: #A80036; stroke-width: 1.0;"/><!--link PowerUp to PDestruction--><path d="M1081,140.1853 C1081,198.3246 1081,275.3644 1081,317.409 " fill="none" id="PowerUp-PDestruction" style="stroke: #A80036; stroke-width: 1.0;"/><polygon fill="none" points="1074.0001,140.1093,1081,120.1093,1088.0001,140.1092,1074.0001,140.1093" style="stroke: #A80036; stroke-width: 1.0;"/><!--link Game to Map--><path d="M145.3882,94.6599 C129.7556,129.9246 103.382,189.5804 81,241 C70.9123,264.175 59.7086,290.229 50.8839,310.8251 " fill="none" id="Game-Map" style="stroke: #A80036; stroke-width: 1.0;"/><!--link Game to Character--><path d="M159,94.6628 C159,129.588 159,188.5937 159,240.8756 " fill="none" id="Game-Character" style="stroke: #A80036; stroke-width: 1.0;"/><!--link Game to Bomb--><path d="M175.627,94.6628 C198.5708,136.9747 240.6797,214.6301 272.2522,272.8547 " fill="none" id="Game-Bomb" style="stroke: #A80036; stroke-width: 1.0;"/><!--
@startuml
class Game{
  +
}
class Map{
  Time
  Lenght
}
abstract class Character{
  Bomb
  Life
  Speed
  Position
  Punch
  +moveRight()
  +moveLeft()
  +moveUp()
  +moveDown()
  +plantBomb()
  +damage()
  +pickUpPowerup()
  +setAtribute()
}

class Player{
}

class Enemy{
}

class Bomb{
  Time
  Range
  DestructionWall
  +damage()
  +damageWall()
  +explote()
  +setRange()
  +setDestruction()
}

abstract class Wall{
  +life()
  +disappear()
  
} 
class Breakable{
  +life()
  +disapear()
  +powerUp()
}

class Unbreakable{
  +life()
  +disapear()
}

abstract class PowerUp{
  visible
  +spawn()
  +visible()
  +active()
  +Modify()
}
class PSpeed {
  +Modify()
}
class PRange{
  +Modify()
}
class PBomb{
  +Modify()
}
class PDestruction{
  +Modify()
}
class PPunch{
  +Modify()
}
class PLife{
  +Modify()
}
class PTime{
  +Modify()
}

Wall <|- - - Breakable
Wall <|- - - Unbreakable

Character <|- - - Player
Character <|- - - Enemy

PowerUp <|- - - PSpeed
PowerUp <|- - - PRange
PowerUp <|- - - PPunch
PowerUp <|- - - PLife
PowerUp <|- - - PTime
PowerUp <|- - - PBomb
PowerUp <|- - - PDestruction
Game - - - Map
Game - - - Character
Game - - - Bomb
@enduml

PlantUML version 1.2019.04(Fri Mar 29 15:44:36 UTC 2019)
(GPL source distribution)
Java Runtime: OpenJDK Runtime Environment
JVM: OpenJDK 64-Bit Server VM
Java Version: 1.8.0_201-heroku-b09
Operating System: Linux
OS Version: 4.4.0-1048-aws
Default Encoding: UTF-8
Language: en
Country: US
--></g></svg>