<?xml version="1.0" encoding="UTF-8" standalone="no"?><svg xmlns="http://www.w3.org/2000/svg" xmlns:xlink="http://www.w3.org/1999/xlink" contentScriptType="application/ecmascript" contentStyleType="text/css" height="820px" preserveAspectRatio="none" style="width:639px;height:820px;" version="1.1" viewBox="0 0 639 820" width="639px" zoomAndPan="magnify"><defs><filter height="300%" id="fxt1pewkjaul3" width="300%" x="-1" y="-1"><feGaussianBlur result="blurOut" stdDeviation="2.0"/><feColorMatrix in="blurOut" result="blurOut2" type="matrix" values="0 0 0 0 0 0 0 0 0 0 0 0 0 0 0 0 0 0 .4 0"/><feOffset dx="4.0" dy="4.0" in="blurOut2" result="blurOut3"/><feBlend in="SourceGraphic" in2="blurOut3" mode="normal"/></filter></defs><g><rect fill="#FFFFFF" filter="url(#fxt1pewkjaul3)" height="723.0547" style="stroke: #A80036; stroke-width: 1.0;" width="10" x="28" y="48.2969"/><rect fill="#FFFFFF" filter="url(#fxt1pewkjaul3)" height="723.0547" style="stroke: #A80036; stroke-width: 1.0;" width="10" x="184" y="48.2969"/><rect fill="#FFFFFF" filter="url(#fxt1pewkjaul3)" height="29.1328" style="stroke: #A80036; stroke-width: 1.0;" width="10" x="335" y="69.4297"/><rect fill="#FFFFFF" filter="url(#fxt1pewkjaul3)" height="71.2656" style="stroke: #A80036; stroke-width: 1.0;" width="10" x="335" y="215.0938"/><rect fill="#FFFFFF" filter="url(#fxt1pewkjaul3)" height="71.2656" style="stroke: #A80036; stroke-width: 1.0;" width="10" x="335" y="315.4922"/><rect fill="#FFFFFF" filter="url(#fxt1pewkjaul3)" height="71.2656" style="stroke: #A80036; stroke-width: 1.0;" width="10" x="335" y="503.2891"/><rect fill="#FFFFFF" filter="url(#fxt1pewkjaul3)" height="605.5234" style="stroke: #A80036; stroke-width: 1.0;" width="10" x="480" y="127.6953"/><rect fill="#FFFFFF" filter="url(#fxt1pewkjaul3)" height="187.7969" style="stroke: #A80036; stroke-width: 1.0;" width="10" x="598" y="415.8906"/><line style="stroke: #A80036; stroke-width: 1.0; stroke-dasharray: 5.0,5.0;" x1="33" x2="33" y1="38.2969" y2="780.3516"/><line style="stroke: #A80036; stroke-width: 1.0; stroke-dasharray: 5.0,5.0;" x1="188.5" x2="188.5" y1="38.2969" y2="780.3516"/><line style="stroke: #A80036; stroke-width: 1.0; stroke-dasharray: 5.0,5.0;" x1="339.5" x2="339.5" y1="38.2969" y2="780.3516"/><line style="stroke: #A80036; stroke-width: 1.0; stroke-dasharray: 5.0,5.0;" x1="484.5" x2="484.5" y1="38.2969" y2="780.3516"/><line style="stroke: #A80036; stroke-width: 1.0; stroke-dasharray: 5.0,5.0;" x1="602.5" x2="602.5" y1="38.2969" y2="780.3516"/><rect fill="#FEFECE" filter="url(#fxt1pewkjaul3)" height="30.2969" style="stroke: #A80036; stroke-width: 1.5;" width="46" x="8" y="3"/><text fill="#000000" font-family="sans-serif" font-size="14" lengthAdjust="spacingAndGlyphs" textLength="32" x="15" y="22.9951">User</text><rect fill="#FEFECE" filter="url(#fxt1pewkjaul3)" height="30.2969" style="stroke: #A80036; stroke-width: 1.5;" width="46" x="8" y="779.3516"/><text fill="#000000" font-family="sans-serif" font-size="14" lengthAdjust="spacingAndGlyphs" textLength="32" x="15" y="799.3467">User</text><rect fill="#FEFECE" filter="url(#fxt1pewkjaul3)" height="30.2969" style="stroke: #A80036; stroke-width: 1.5;" width="55" x="159.5" y="3"/><text fill="#000000" font-family="sans-serif" font-size="14" lengthAdjust="spacingAndGlyphs" textLength="41" x="166.5" y="22.9951">Game</text><rect fill="#FEFECE" filter="url(#fxt1pewkjaul3)" height="30.2969" style="stroke: #A80036; stroke-width: 1.5;" width="55" x="159.5" y="779.3516"/><text fill="#000000" font-family="sans-serif" font-size="14" lengthAdjust="spacingAndGlyphs" textLength="41" x="166.5" y="799.3467">Game</text><rect fill="#FEFECE" filter="url(#fxt1pewkjaul3)" height="30.2969" style="stroke: #A80036; stroke-width: 1.5;" width="99" x="288.5" y="3"/><text fill="#000000" font-family="sans-serif" font-size="14" lengthAdjust="spacingAndGlyphs" textLength="85" x="295.5" y="22.9951">Bomberman</text><rect fill="#FEFECE" filter="url(#fxt1pewkjaul3)" height="30.2969" style="stroke: #A80036; stroke-width: 1.5;" width="99" x="288.5" y="779.3516"/><text fill="#000000" font-family="sans-serif" font-size="14" lengthAdjust="spacingAndGlyphs" textLength="85" x="295.5" y="799.3467">Bomberman</text><rect fill="#FEFECE" filter="url(#fxt1pewkjaul3)" height="30.2969" style="stroke: #A80036; stroke-width: 1.5;" width="61" x="452.5" y="3"/><text fill="#000000" font-family="sans-serif" font-size="14" lengthAdjust="spacingAndGlyphs" textLength="47" x="459.5" y="22.9951">Enemy</text><rect fill="#FEFECE" filter="url(#fxt1pewkjaul3)" height="30.2969" style="stroke: #A80036; stroke-width: 1.5;" width="61" x="452.5" y="779.3516"/><text fill="#000000" font-family="sans-serif" font-size="14" lengthAdjust="spacingAndGlyphs" textLength="47" x="459.5" y="799.3467">Enemy</text><rect fill="#FEFECE" filter="url(#fxt1pewkjaul3)" height="30.2969" style="stroke: #A80036; stroke-width: 1.5;" width="55" x="573.5" y="3"/><text fill="#000000" font-family="sans-serif" font-size="14" lengthAdjust="spacingAndGlyphs" textLength="41" x="580.5" y="22.9951">Bomb</text><rect fill="#FEFECE" filter="url(#fxt1pewkjaul3)" height="30.2969" style="stroke: #A80036; stroke-width: 1.5;" width="55" x="573.5" y="779.3516"/><text fill="#000000" font-family="sans-serif" font-size="14" lengthAdjust="spacingAndGlyphs" textLength="41" x="580.5" y="799.3467">Bomb</text><rect fill="#FFFFFF" filter="url(#fxt1pewkjaul3)" height="723.0547" style="stroke: #A80036; stroke-width: 1.0;" width="10" x="28" y="48.2969"/><rect fill="#FFFFFF" filter="url(#fxt1pewkjaul3)" height="723.0547" style="stroke: #A80036; stroke-width: 1.0;" width="10" x="184" y="48.2969"/><rect fill="#FFFFFF" filter="url(#fxt1pewkjaul3)" height="29.1328" style="stroke: #A80036; stroke-width: 1.0;" width="10" x="335" y="69.4297"/><rect fill="#FFFFFF" filter="url(#fxt1pewkjaul3)" height="71.2656" style="stroke: #A80036; stroke-width: 1.0;" width="10" x="335" y="215.0938"/><rect fill="#FFFFFF" filter="url(#fxt1pewkjaul3)" height="71.2656" style="stroke: #A80036; stroke-width: 1.0;" width="10" x="335" y="315.4922"/><rect fill="#FFFFFF" filter="url(#fxt1pewkjaul3)" height="71.2656" style="stroke: #A80036; stroke-width: 1.0;" width="10" x="335" y="503.2891"/><rect fill="#FFFFFF" filter="url(#fxt1pewkjaul3)" height="605.5234" style="stroke: #A80036; stroke-width: 1.0;" width="10" x="480" y="127.6953"/><rect fill="#FFFFFF" filter="url(#fxt1pewkjaul3)" height="187.7969" style="stroke: #A80036; stroke-width: 1.0;" width="10" x="598" y="415.8906"/><polygon fill="#A80036" points="323,65.4297,333,69.4297,323,73.4297,327,69.4297" style="stroke: #A80036; stroke-width: 1.0;"/><line style="stroke: #A80036; stroke-width: 1.0;" x1="194" x2="329" y1="69.4297" y2="69.4297"/><text fill="#000000" font-family="sans-serif" font-size="13" font-weight="bold" lengthAdjust="spacingAndGlyphs" textLength="9" x="201" y="64.3638">1</text><text fill="#000000" font-family="sans-serif" font-size="13" lengthAdjust="spacingAndGlyphs" textLength="50" x="214" y="64.3638">spawn()</text><polygon fill="#A80036" points="205,94.5625,195,98.5625,205,102.5625,201,98.5625" style="stroke: #A80036; stroke-width: 1.0;"/><line style="stroke: #A80036; stroke-width: 1.0;" x1="199" x2="339" y1="98.5625" y2="98.5625"/><text fill="#000000" font-family="sans-serif" font-size="13" font-weight="bold" lengthAdjust="spacingAndGlyphs" textLength="9" x="211" y="93.4966">2</text><text fill="#000000" font-family="sans-serif" font-size="13" lengthAdjust="spacingAndGlyphs" textLength="67" x="224" y="93.4966">spawnOk()</text><polygon fill="#A80036" points="468,123.6953,478,127.6953,468,131.6953,472,127.6953" style="stroke: #A80036; stroke-width: 1.0;"/><line style="stroke: #A80036; stroke-width: 1.0;" x1="194" x2="474" y1="127.6953" y2="127.6953"/><text fill="#000000" font-family="sans-serif" font-size="13" font-weight="bold" lengthAdjust="spacingAndGlyphs" textLength="9" x="201" y="122.6294">3</text><text fill="#000000" font-family="sans-serif" font-size="13" lengthAdjust="spacingAndGlyphs" textLength="50" x="214" y="122.6294">spawn()</text><polygon fill="#A80036" points="205,152.8281,195,156.8281,205,160.8281,201,156.8281" style="stroke: #A80036; stroke-width: 1.0;"/><line style="stroke: #A80036; stroke-width: 1.0;" x1="199" x2="479" y1="156.8281" y2="156.8281"/><text fill="#000000" font-family="sans-serif" font-size="13" font-weight="bold" lengthAdjust="spacingAndGlyphs" textLength="9" x="211" y="151.7622">4</text><text fill="#000000" font-family="sans-serif" font-size="13" lengthAdjust="spacingAndGlyphs" textLength="67" x="224" y="151.7622">spawnOk()</text><polygon fill="#A80036" points="172,181.9609,182,185.9609,172,189.9609,176,185.9609" style="stroke: #A80036; stroke-width: 1.0;"/><line style="stroke: #A80036; stroke-width: 1.0;" x1="38" x2="178" y1="185.9609" y2="185.9609"/><text fill="#000000" font-family="sans-serif" font-size="13" font-weight="bold" lengthAdjust="spacingAndGlyphs" textLength="9" x="45" y="180.895">5</text><text fill="#000000" font-family="sans-serif" font-size="13" lengthAdjust="spacingAndGlyphs" textLength="92" x="58" y="180.895">pressLeftKey()</text><polygon fill="#A80036" points="323,211.0938,333,215.0938,323,219.0938,327,215.0938" style="stroke: #A80036; stroke-width: 1.0;"/><line style="stroke: #A80036; stroke-width: 1.0;" x1="194" x2="329" y1="215.0938" y2="215.0938"/><text fill="#000000" font-family="sans-serif" font-size="13" font-weight="bold" lengthAdjust="spacingAndGlyphs" textLength="9" x="201" y="210.0278">6</text><text fill="#000000" font-family="sans-serif" font-size="13" lengthAdjust="spacingAndGlyphs" textLength="70" x="214" y="210.0278">moveLeft()</text><line style="stroke: #A80036; stroke-width: 1.0;" x1="345" x2="387" y1="244.2266" y2="244.2266"/><line style="stroke: #A80036; stroke-width: 1.0;" x1="387" x2="387" y1="244.2266" y2="257.2266"/><line style="stroke: #A80036; stroke-width: 1.0;" x1="346" x2="387" y1="257.2266" y2="257.2266"/><polygon fill="#A80036" points="356,253.2266,346,257.2266,356,261.2266,352,257.2266" style="stroke: #A80036; stroke-width: 1.0;"/><text fill="#000000" font-family="sans-serif" font-size="13" font-weight="bold" lengthAdjust="spacingAndGlyphs" textLength="9" x="352" y="239.1606">7</text><text fill="#000000" font-family="sans-serif" font-size="13" lengthAdjust="spacingAndGlyphs" textLength="81" x="365" y="239.1606">movingLeft()</text><polygon fill="#A80036" points="172,282.3594,182,286.3594,172,290.3594,176,286.3594" style="stroke: #A80036; stroke-width: 1.0;"/><line style="stroke: #A80036; stroke-width: 1.0;" x1="38" x2="178" y1="286.3594" y2="286.3594"/><text fill="#000000" font-family="sans-serif" font-size="13" font-weight="bold" lengthAdjust="spacingAndGlyphs" textLength="9" x="45" y="281.2935">8</text><text fill="#000000" font-family="sans-serif" font-size="13" lengthAdjust="spacingAndGlyphs" textLength="107" x="58" y="281.2935">pressSpaceBar()</text><polygon fill="#A80036" points="323,311.4922,333,315.4922,323,319.4922,327,315.4922" style="stroke: #A80036; stroke-width: 1.0;"/><line style="stroke: #A80036; stroke-width: 1.0;" x1="194" x2="329" y1="315.4922" y2="315.4922"/><text fill="#000000" font-family="sans-serif" font-size="13" font-weight="bold" lengthAdjust="spacingAndGlyphs" textLength="9" x="201" y="310.4263">9</text><text fill="#000000" font-family="sans-serif" font-size="13" lengthAdjust="spacingAndGlyphs" textLength="80" x="214" y="310.4263">plantBomb()</text><line style="stroke: #A80036; stroke-width: 1.0;" x1="345" x2="387" y1="344.625" y2="344.625"/><line style="stroke: #A80036; stroke-width: 1.0;" x1="387" x2="387" y1="344.625" y2="357.625"/><line style="stroke: #A80036; stroke-width: 1.0;" x1="346" x2="387" y1="357.625" y2="357.625"/><polygon fill="#A80036" points="356,353.625,346,357.625,356,361.625,352,357.625" style="stroke: #A80036; stroke-width: 1.0;"/><text fill="#000000" font-family="sans-serif" font-size="13" font-weight="bold" lengthAdjust="spacingAndGlyphs" textLength="18" x="352" y="339.5591">10</text><text fill="#000000" font-family="sans-serif" font-size="13" lengthAdjust="spacingAndGlyphs" textLength="99" x="374" y="339.5591">plantingBomb()</text><polygon fill="#A80036" points="205,382.7578,195,386.7578,205,390.7578,201,386.7578" style="stroke: #A80036; stroke-width: 1.0;"/><line style="stroke: #A80036; stroke-width: 1.0;" x1="199" x2="339" y1="386.7578" y2="386.7578"/><text fill="#000000" font-family="sans-serif" font-size="13" font-weight="bold" lengthAdjust="spacingAndGlyphs" textLength="18" x="211" y="381.6919">11</text><text fill="#000000" font-family="sans-serif" font-size="13" lengthAdjust="spacingAndGlyphs" textLength="95" x="233" y="381.6919">bombPlanted()</text><polygon fill="#A80036" points="586,411.8906,596,415.8906,586,419.8906,590,415.8906" style="stroke: #A80036; stroke-width: 1.0;"/><line style="stroke: #A80036; stroke-width: 1.0;" x1="194" x2="592" y1="415.8906" y2="415.8906"/><text fill="#000000" font-family="sans-serif" font-size="13" font-weight="bold" lengthAdjust="spacingAndGlyphs" textLength="18" x="201" y="410.8247">12</text><text fill="#000000" font-family="sans-serif" font-size="13" lengthAdjust="spacingAndGlyphs" textLength="50" x="223" y="410.8247">spawn()</text><polygon fill="#A80036" points="205,441.0234,195,445.0234,205,449.0234,201,445.0234" style="stroke: #A80036; stroke-width: 1.0;"/><line style="stroke: #A80036; stroke-width: 1.0;" x1="199" x2="597" y1="445.0234" y2="445.0234"/><text fill="#000000" font-family="sans-serif" font-size="13" font-weight="bold" lengthAdjust="spacingAndGlyphs" textLength="18" x="211" y="439.9575">13</text><text fill="#000000" font-family="sans-serif" font-size="13" lengthAdjust="spacingAndGlyphs" textLength="67" x="233" y="439.9575">spawnOk()</text><polygon fill="#A80036" points="172,470.1563,182,474.1563,172,478.1563,176,474.1563" style="stroke: #A80036; stroke-width: 1.0;"/><line style="stroke: #A80036; stroke-width: 1.0;" x1="38" x2="178" y1="474.1563" y2="474.1563"/><text fill="#000000" font-family="sans-serif" font-size="13" font-weight="bold" lengthAdjust="spacingAndGlyphs" textLength="18" x="45" y="469.0903">14</text><text fill="#000000" font-family="sans-serif" font-size="13" lengthAdjust="spacingAndGlyphs" textLength="100" x="67" y="469.0903">pressRightKey()</text><polygon fill="#A80036" points="323,499.2891,333,503.2891,323,507.2891,327,503.2891" style="stroke: #A80036; stroke-width: 1.0;"/><line style="stroke: #A80036; stroke-width: 1.0;" x1="194" x2="329" y1="503.2891" y2="503.2891"/><text fill="#000000" font-family="sans-serif" font-size="13" font-weight="bold" lengthAdjust="spacingAndGlyphs" textLength="18" x="201" y="498.2231">15</text><text fill="#000000" font-family="sans-serif" font-size="13" lengthAdjust="spacingAndGlyphs" textLength="78" x="223" y="498.2231">moveRight()</text><line style="stroke: #A80036; stroke-width: 1.0;" x1="345" x2="387" y1="532.4219" y2="532.4219"/><line style="stroke: #A80036; stroke-width: 1.0;" x1="387" x2="387" y1="532.4219" y2="545.4219"/><line style="stroke: #A80036; stroke-width: 1.0;" x1="346" x2="387" y1="545.4219" y2="545.4219"/><polygon fill="#A80036" points="356,541.4219,346,545.4219,356,549.4219,352,545.4219" style="stroke: #A80036; stroke-width: 1.0;"/><text fill="#000000" font-family="sans-serif" font-size="13" font-weight="bold" lengthAdjust="spacingAndGlyphs" textLength="18" x="352" y="527.356">16</text><text fill="#000000" font-family="sans-serif" font-size="13" lengthAdjust="spacingAndGlyphs" textLength="89" x="374" y="527.356">movingRight()</text><polygon fill="#A80036" points="205,570.5547,195,574.5547,205,578.5547,201,574.5547" style="stroke: #A80036; stroke-width: 1.0;"/><line style="stroke: #A80036; stroke-width: 1.0;" x1="199" x2="597" y1="574.5547" y2="574.5547"/><text fill="#000000" font-family="sans-serif" font-size="13" font-weight="bold" lengthAdjust="spacingAndGlyphs" textLength="18" x="211" y="569.4888">17</text><text fill="#000000" font-family="sans-serif" font-size="13" lengthAdjust="spacingAndGlyphs" textLength="68" x="233" y="569.4888">explotion()</text><polygon fill="#A80036" points="591,599.6875,601,603.6875,591,607.6875,595,603.6875" style="stroke: #A80036; stroke-width: 1.0;"/><line style="stroke: #A80036; stroke-width: 1.0;" x1="194" x2="597" y1="603.6875" y2="603.6875"/><text fill="#000000" font-family="sans-serif" font-size="13" font-weight="bold" lengthAdjust="spacingAndGlyphs" textLength="18" x="201" y="598.6216">18</text><text fill="#000000" font-family="sans-serif" font-size="13" lengthAdjust="spacingAndGlyphs" textLength="66" x="223" y="598.6216">despawn()</text><polygon fill="#A80036" points="468,628.8203,478,632.8203,468,636.8203,472,632.8203" style="stroke: #A80036; stroke-width: 1.0;"/><line style="stroke: #A80036; stroke-width: 1.0;" x1="194" x2="474" y1="632.8203" y2="632.8203"/><text fill="#000000" font-family="sans-serif" font-size="13" font-weight="bold" lengthAdjust="spacingAndGlyphs" textLength="18" x="201" y="627.7544">19</text><text fill="#000000" font-family="sans-serif" font-size="13" lengthAdjust="spacingAndGlyphs" textLength="63" x="223" y="627.7544">damage()</text><line style="stroke: #A80036; stroke-width: 1.0;" x1="490" x2="532" y1="661.9531" y2="661.9531"/><line style="stroke: #A80036; stroke-width: 1.0;" x1="532" x2="532" y1="661.9531" y2="674.9531"/><line style="stroke: #A80036; stroke-width: 1.0;" x1="491" x2="532" y1="674.9531" y2="674.9531"/><polygon fill="#A80036" points="501,670.9531,491,674.9531,501,678.9531,497,674.9531" style="stroke: #A80036; stroke-width: 1.0;"/><text fill="#000000" font-family="sans-serif" font-size="13" font-weight="bold" lengthAdjust="spacingAndGlyphs" textLength="18" x="497" y="656.8872">20</text><text fill="#000000" font-family="sans-serif" font-size="13" lengthAdjust="spacingAndGlyphs" textLength="72" x="519" y="656.8872">reduceHp()</text><polygon fill="#A80036" points="205,700.0859,195,704.0859,205,708.0859,201,704.0859" style="stroke: #A80036; stroke-width: 1.0;"/><line style="stroke: #A80036; stroke-width: 1.0;" x1="199" x2="479" y1="704.0859" y2="704.0859"/><text fill="#000000" font-family="sans-serif" font-size="13" font-weight="bold" lengthAdjust="spacingAndGlyphs" textLength="18" x="211" y="699.02">21</text><text fill="#000000" font-family="sans-serif" font-size="13" lengthAdjust="spacingAndGlyphs" textLength="44" x="233" y="699.02">noHp()</text><polygon fill="#A80036" points="473,729.2188,483,733.2188,473,737.2188,477,733.2188" style="stroke: #A80036; stroke-width: 1.0;"/><line style="stroke: #A80036; stroke-width: 1.0;" x1="194" x2="479" y1="733.2188" y2="733.2188"/><text fill="#000000" font-family="sans-serif" font-size="13" font-weight="bold" lengthAdjust="spacingAndGlyphs" textLength="18" x="201" y="728.1528">22</text><text fill="#000000" font-family="sans-serif" font-size="13" lengthAdjust="spacingAndGlyphs" textLength="66" x="223" y="728.1528">despawn()</text><polygon fill="#A80036" points="49,758.3516,39,762.3516,49,766.3516,45,762.3516" style="stroke: #A80036; stroke-width: 1.0;"/><line style="stroke: #A80036; stroke-width: 1.0;" x1="43" x2="183" y1="762.3516" y2="762.3516"/><text fill="#000000" font-family="sans-serif" font-size="13" font-weight="bold" lengthAdjust="spacingAndGlyphs" textLength="18" x="55" y="757.2856">23</text><text fill="#000000" font-family="sans-serif" font-size="13" lengthAdjust="spacingAndGlyphs" textLength="88" x="77" y="757.2856">showResults()</text><!--
@startuml
autonumber
activate User
activate Game
Game -> Bomberman: spawn()
activate Bomberman
Bomberman -> Game: spawnOk()
deactivate Bomberman
Game -> Enemy: spawn()
activate Enemy
Enemy -> Game: spawnOk()
User -> Game: pressLeftKey()
Game -> Bomberman: moveLeft()
activate Bomberman
Bomberman -> Bomberman: movingLeft()
User -> Game: pressSpaceBar()
deactivate Bomberman
Game -> Bomberman: plantBomb()
activate Bomberman
Bomberman -> Bomberman: plantingBomb()
Bomberman -> Game: bombPlanted()
deactivate Bomberman
Game -> Bomb: spawn()
activate Bomb
Bomb -> Game: spawnOk()
User -> Game: pressRightKey()
Game -> Bomberman: moveRight()
activate Bomberman
Bomberman -> Bomberman: movingRight()
Bomb -> Game: explotion()
deactivate Bomberman
Game -> Bomb: despawn()
deactivate Bomb
Game -> Enemy: damage()
Enemy-> Enemy: reduceHp()
Enemy -> Game: noHp()
Game -> Enemy: despawn()
deactivate Enemy
Game -> User: showResults()
@enduml

PlantUML version 1.2019.04(Fri Mar 29 15:44:36 UTC 2019)
(GPL source distribution)
Java Runtime: OpenJDK Runtime Environment
JVM: OpenJDK 64-Bit Server VM
Java Version: 1.8.0_201-heroku-b09
Operating System: Linux
OS Version: 4.4.0-1048-aws
Default Encoding: UTF-8
Language: en
Country: US
--></g></svg>