<?xml version="1.0" encoding="UTF-8" standalone="no"?><svg xmlns="http://www.w3.org/2000/svg" xmlns:xlink="http://www.w3.org/1999/xlink" contentScriptType="application/ecmascript" contentStyleType="text/css" height="474px" preserveAspectRatio="none" style="width:490px;height:474px;" version="1.1" viewBox="0 0 490 474" width="490px" zoomAndPan="magnify"><defs><filter height="300%" id="f1ebsevkldqpxi" width="300%" x="-1" y="-1"><feGaussianBlur result="blurOut" stdDeviation="2.0"/><feColorMatrix in="blurOut" result="blurOut2" type="matrix" values="0 0 0 0 0 0 0 0 0 0 0 0 0 0 0 0 0 0 .4 0"/><feOffset dx="4.0" dy="4.0" in="blurOut2" result="blurOut3"/><feBlend in="SourceGraphic" in2="blurOut3" mode="normal"/></filter></defs><g><rect fill="#FFFFFF" filter="url(#f1ebsevkldqpxi)" height="376.5938" style="stroke: #A80036; stroke-width: 1.0;" width="10" x="28" y="48.2969"/><rect fill="#FFFFFF" filter="url(#f1ebsevkldqpxi)" height="367.5938" style="stroke: #A80036; stroke-width: 1.0;" width="10" x="150" y="48.2969"/><rect fill="#FFFFFF" filter="url(#f1ebsevkldqpxi)" height="29.1328" style="stroke: #A80036; stroke-width: 1.0;" width="10" x="259" y="127.6953"/><rect fill="#FFFFFF" filter="url(#f1ebsevkldqpxi)" height="71.2656" style="stroke: #A80036; stroke-width: 1.0;" width="10" x="259" y="315.4922"/><rect fill="#FFFFFF" filter="url(#f1ebsevkldqpxi)" height="129.5313" style="stroke: #A80036; stroke-width: 1.0;" width="10" x="368" y="156.8281"/><line style="stroke: #A80036; stroke-width: 1.0; stroke-dasharray: 5.0,5.0;" x1="33" x2="33" y1="38.2969" y2="433.8906"/><line style="stroke: #A80036; stroke-width: 1.0; stroke-dasharray: 5.0,5.0;" x1="154.5" x2="154.5" y1="38.2969" y2="433.8906"/><line style="stroke: #A80036; stroke-width: 1.0; stroke-dasharray: 5.0,5.0;" x1="263.5" x2="263.5" y1="38.2969" y2="433.8906"/><line style="stroke: #A80036; stroke-width: 1.0; stroke-dasharray: 5.0,5.0;" x1="372.5" x2="372.5" y1="38.2969" y2="433.8906"/><rect fill="#FEFECE" filter="url(#f1ebsevkldqpxi)" height="30.2969" style="stroke: #A80036; stroke-width: 1.5;" width="46" x="8" y="3"/><text fill="#000000" font-family="sans-serif" font-size="14" lengthAdjust="spacingAndGlyphs" textLength="32" x="15" y="22.9951">User</text><rect fill="#FEFECE" filter="url(#f1ebsevkldqpxi)" height="30.2969" style="stroke: #A80036; stroke-width: 1.5;" width="46" x="8" y="432.8906"/><text fill="#000000" font-family="sans-serif" font-size="14" lengthAdjust="spacingAndGlyphs" textLength="32" x="15" y="452.8857">User</text><rect fill="#FEFECE" filter="url(#f1ebsevkldqpxi)" height="30.2969" style="stroke: #A80036; stroke-width: 1.5;" width="55" x="125.5" y="3"/><text fill="#000000" font-family="sans-serif" font-size="14" lengthAdjust="spacingAndGlyphs" textLength="41" x="132.5" y="22.9951">Game</text><rect fill="#FEFECE" filter="url(#f1ebsevkldqpxi)" height="30.2969" style="stroke: #A80036; stroke-width: 1.5;" width="55" x="125.5" y="432.8906"/><text fill="#000000" font-family="sans-serif" font-size="14" lengthAdjust="spacingAndGlyphs" textLength="41" x="132.5" y="452.8857">Game</text><rect fill="#FEFECE" filter="url(#f1ebsevkldqpxi)" height="30.2969" style="stroke: #A80036; stroke-width: 1.5;" width="99" x="212.5" y="3"/><text fill="#000000" font-family="sans-serif" font-size="14" lengthAdjust="spacingAndGlyphs" textLength="85" x="219.5" y="22.9951">Bomberman</text><rect fill="#FEFECE" filter="url(#f1ebsevkldqpxi)" height="30.2969" style="stroke: #A80036; stroke-width: 1.5;" width="99" x="212.5" y="432.8906"/><text fill="#000000" font-family="sans-serif" font-size="14" lengthAdjust="spacingAndGlyphs" textLength="85" x="219.5" y="452.8857">Bomberman</text><rect fill="#FEFECE" filter="url(#f1ebsevkldqpxi)" height="30.2969" style="stroke: #A80036; stroke-width: 1.5;" width="55" x="343.5" y="3"/><text fill="#000000" font-family="sans-serif" font-size="14" lengthAdjust="spacingAndGlyphs" textLength="41" x="350.5" y="22.9951">Bomb</text><rect fill="#FEFECE" filter="url(#f1ebsevkldqpxi)" height="30.2969" style="stroke: #A80036; stroke-width: 1.5;" width="55" x="343.5" y="432.8906"/><text fill="#000000" font-family="sans-serif" font-size="14" lengthAdjust="spacingAndGlyphs" textLength="41" x="350.5" y="452.8857">Bomb</text><rect fill="#FFFFFF" filter="url(#f1ebsevkldqpxi)" height="376.5938" style="stroke: #A80036; stroke-width: 1.0;" width="10" x="28" y="48.2969"/><rect fill="#FFFFFF" filter="url(#f1ebsevkldqpxi)" height="367.5938" style="stroke: #A80036; stroke-width: 1.0;" width="10" x="150" y="48.2969"/><rect fill="#FFFFFF" filter="url(#f1ebsevkldqpxi)" height="29.1328" style="stroke: #A80036; stroke-width: 1.0;" width="10" x="259" y="127.6953"/><rect fill="#FFFFFF" filter="url(#f1ebsevkldqpxi)" height="71.2656" style="stroke: #A80036; stroke-width: 1.0;" width="10" x="259" y="315.4922"/><rect fill="#FFFFFF" filter="url(#f1ebsevkldqpxi)" height="129.5313" style="stroke: #A80036; stroke-width: 1.0;" width="10" x="368" y="156.8281"/><polygon fill="#A80036" points="252,65.4297,262,69.4297,252,73.4297,256,69.4297" style="stroke: #A80036; stroke-width: 1.0;"/><line style="stroke: #A80036; stroke-width: 1.0;" x1="160" x2="258" y1="69.4297" y2="69.4297"/><text fill="#000000" font-family="sans-serif" font-size="13" lengthAdjust="spacingAndGlyphs" textLength="52" x="167" y="64.3638">Spawn()</text><polygon fill="#A80036" points="138,94.5625,148,98.5625,138,102.5625,142,98.5625" style="stroke: #A80036; stroke-width: 1.0;"/><line style="stroke: #A80036; stroke-width: 1.0;" x1="38" x2="144" y1="98.5625" y2="98.5625"/><text fill="#000000" font-family="sans-serif" font-size="13" lengthAdjust="spacingAndGlyphs" textLength="71" x="45" y="93.4966">spaceKey()</text><polygon fill="#A80036" points="247,123.6953,257,127.6953,247,131.6953,251,127.6953" style="stroke: #A80036; stroke-width: 1.0;"/><line style="stroke: #A80036; stroke-width: 1.0;" x1="160" x2="253" y1="127.6953" y2="127.6953"/><text fill="#000000" font-family="sans-serif" font-size="13" lengthAdjust="spacingAndGlyphs" textLength="80" x="167" y="122.6294">plantBomb()</text><polygon fill="#A80036" points="356,152.8281,366,156.8281,356,160.8281,360,156.8281" style="stroke: #A80036; stroke-width: 1.0;"/><line style="stroke: #A80036; stroke-width: 1.0;" x1="264" x2="362" y1="156.8281" y2="156.8281"/><text fill="#000000" font-family="sans-serif" font-size="13" lengthAdjust="spacingAndGlyphs" textLength="80" x="271" y="151.7622">plantBomb()</text><polygon fill="#A80036" points="171,181.9609,161,185.9609,171,189.9609,167,185.9609" style="stroke: #A80036; stroke-width: 1.0;"/><line style="stroke: #A80036; stroke-width: 1.0;" x1="165" x2="367" y1="185.9609" y2="185.9609"/><text fill="#000000" font-family="sans-serif" font-size="13" lengthAdjust="spacingAndGlyphs" textLength="102" x="177" y="180.895">Spawn((int, int))</text><line style="stroke: #A80036; stroke-width: 1.0;" x1="378" x2="420" y1="215.0938" y2="215.0938"/><line style="stroke: #A80036; stroke-width: 1.0;" x1="420" x2="420" y1="215.0938" y2="228.0938"/><line style="stroke: #A80036; stroke-width: 1.0;" x1="379" x2="420" y1="228.0938" y2="228.0938"/><polygon fill="#A80036" points="389,224.0938,379,228.0938,389,232.0938,385,228.0938" style="stroke: #A80036; stroke-width: 1.0;"/><text fill="#000000" font-family="sans-serif" font-size="13" lengthAdjust="spacingAndGlyphs" textLength="93" x="385" y="210.0278">endTimeBomb</text><polygon fill="#A80036" points="171,253.2266,161,257.2266,171,261.2266,167,257.2266" style="stroke: #A80036; stroke-width: 1.0;"/><line style="stroke: #A80036; stroke-width: 1.0;" x1="165" x2="367" y1="257.2266" y2="257.2266"/><text fill="#000000" font-family="sans-serif" font-size="13" lengthAdjust="spacingAndGlyphs" textLength="70" x="177" y="252.1606">explosion()</text><polygon fill="#A80036" points="171,282.3594,161,286.3594,171,290.3594,167,286.3594" style="stroke: #A80036; stroke-width: 1.0;"/><line style="stroke: #A80036; stroke-width: 1.0;" x1="165" x2="372" y1="286.3594" y2="286.3594"/><text fill="#000000" font-family="sans-serif" font-size="13" lengthAdjust="spacingAndGlyphs" textLength="66" x="177" y="281.2935">despawn()</text><polygon fill="#A80036" points="247,311.4922,257,315.4922,247,319.4922,251,315.4922" style="stroke: #A80036; stroke-width: 1.0;"/><line style="stroke: #A80036; stroke-width: 1.0;" x1="160" x2="253" y1="315.4922" y2="315.4922"/><text fill="#000000" font-family="sans-serif" font-size="13" lengthAdjust="spacingAndGlyphs" textLength="63" x="167" y="310.4263">damage()</text><line style="stroke: #A80036; stroke-width: 1.0;" x1="269" x2="311" y1="344.625" y2="344.625"/><line style="stroke: #A80036; stroke-width: 1.0;" x1="311" x2="311" y1="344.625" y2="357.625"/><line style="stroke: #A80036; stroke-width: 1.0;" x1="270" x2="311" y1="357.625" y2="357.625"/><polygon fill="#A80036" points="280,353.625,270,357.625,280,361.625,276,357.625" style="stroke: #A80036; stroke-width: 1.0;"/><text fill="#000000" font-family="sans-serif" font-size="13" lengthAdjust="spacingAndGlyphs" textLength="78" x="276" y="339.5591">LoseLife(int)</text><polygon fill="#A80036" points="171,382.7578,161,386.7578,171,390.7578,167,386.7578" style="stroke: #A80036; stroke-width: 1.0;"/><line style="stroke: #A80036; stroke-width: 1.0;" x1="165" x2="263" y1="386.7578" y2="386.7578"/><text fill="#000000" font-family="sans-serif" font-size="13" lengthAdjust="spacingAndGlyphs" textLength="66" x="177" y="381.6919">despawn()</text><polygon fill="#A80036" points="49,411.8906,39,415.8906,49,419.8906,45,415.8906" style="stroke: #A80036; stroke-width: 1.0;"/><line style="stroke: #A80036; stroke-width: 1.0;" x1="43" x2="154" y1="415.8906" y2="415.8906"/><text fill="#000000" font-family="sans-serif" font-size="13" lengthAdjust="spacingAndGlyphs" textLength="88" x="55" y="410.8247">showResults()</text><!--
@startuml
activate User
activate Game
Game -> Bomberman: Spawn()
User -> Game: spaceKey()
Game -> Bomberman: plantBomb()
activate Bomberman
Bomberman -> Bomb: plantBomb()
deactivate Bomberman
activate Bomb
Bomb -> Game: Spawn((int, int))
Bomb -> Bomb: endTimeBomb
Bomb -> Game: explosion()
Bomb -> Game: despawn()
deactivate Bomb
Game -> Bomberman: damage()
activate Bomberman
Bomberman -> Bomberman: LoseLife(int)
Bomberman -> Game: despawn()
deactivate Bomberman
Game -> User: showResults()
deactivate Game
@enduml

PlantUML version 1.2019.04(Fri Mar 29 15:44:36 UTC 2019)
(GPL source distribution)
Java Runtime: OpenJDK Runtime Environment
JVM: OpenJDK 64-Bit Server VM
Java Version: 1.8.0_201-heroku-b09
Operating System: Linux
OS Version: 4.4.0-1048-aws
Default Encoding: UTF-8
Language: en
Country: US
--></g></svg>