<?xml version="1.0" encoding="UTF-8" standalone="no"?><svg xmlns="http://www.w3.org/2000/svg" xmlns:xlink="http://www.w3.org/1999/xlink" contentScriptType="application/ecmascript" contentStyleType="text/css" height="498px" preserveAspectRatio="none" style="width:382px;height:498px;" version="1.1" viewBox="0 0 382 498" width="382px" zoomAndPan="magnify"><defs><filter height="300%" id="fa1qzi9fs8rr3" width="300%" x="-1" y="-1"><feGaussianBlur result="blurOut" stdDeviation="2.0"/><feColorMatrix in="blurOut" result="blurOut2" type="matrix" values="0 0 0 0 0 0 0 0 0 0 0 0 0 0 0 0 0 0 .4 0"/><feOffset dx="4.0" dy="4.0" in="blurOut2" result="blurOut3"/><feBlend in="SourceGraphic" in2="blurOut3" mode="normal"/></filter></defs><g><ellipse cx="190" cy="20" fill="#000000" filter="url(#fa1qzi9fs8rr3)" rx="10" ry="10" style="stroke: none; stroke-width: 1.0;"/><rect fill="#FEFECE" filter="url(#fa1qzi9fs8rr3)" height="33.9688" rx="12.5" ry="12.5" style="stroke: #A80036; stroke-width: 1.5;" width="151" x="114.5" y="50"/><text fill="#000000" font-family="sans-serif" font-size="12" lengthAdjust="spacingAndGlyphs" textLength="131" x="124.5" y="71.1387">Bomberman appears</text><rect fill="#FEFECE" filter="url(#fa1qzi9fs8rr3)" height="33.9688" rx="12.5" ry="12.5" style="stroke: #A80036; stroke-width: 1.5;" width="47" x="166.5" y="147.9688"/><text fill="#000000" font-family="sans-serif" font-size="12" lengthAdjust="spacingAndGlyphs" textLength="27" x="176.5" y="169.1074">Dies</text><ellipse cx="190" cy="219.4531" fill="#FFFFFF" filter="url(#fa1qzi9fs8rr3)" rx="10" ry="10" style="stroke: #000000; stroke-width: 1.5;"/><line style="stroke: #000000; stroke-width: 2.5;" x1="183.8128" x2="196.1872" y1="213.2659" y2="225.6403"/><line style="stroke: #000000; stroke-width: 2.5;" x1="196.1872" x2="183.8128" y1="213.2659" y2="225.6403"/><polygon fill="#FEFECE" filter="url(#fa1qzi9fs8rr3)" points="168,103.9688,212,103.9688,224,115.9688,212,127.9688,168,127.9688,156,115.9688,168,103.9688" style="stroke: #A80036; stroke-width: 1.5;"/><text fill="#000000" font-family="sans-serif" font-size="11" lengthAdjust="spacingAndGlyphs" textLength="44" x="168" y="119.7769">Life = 0</text><rect fill="#000000" filter="url(#fa1qzi9fs8rr3)" height="6" rx="2.5" ry="2.5" style="stroke: #000000; stroke-width: 1.0;" width="360" x="10" y="271.4531"/><rect fill="#FEFECE" filter="url(#fa1qzi9fs8rr3)" height="33.9688" rx="12.5" ry="12.5" style="stroke: #A80036; stroke-width: 1.5;" width="122" x="34" y="341.4531"/><text fill="#000000" font-family="sans-serif" font-size="12" lengthAdjust="spacingAndGlyphs" textLength="102" x="44" y="362.5918">Change Position</text><polygon fill="#FEFECE" filter="url(#fa1qzi9fs8rr3)" points="39,297.4531,151,297.4531,163,309.4531,151,321.4531,39,321.4531,27,309.4531,39,297.4531" style="stroke: #A80036; stroke-width: 1.5;"/><text fill="#000000" font-family="sans-serif" font-size="11" lengthAdjust="spacingAndGlyphs" textLength="112" x="39" y="313.2612">Bomberman moves</text><polygon fill="#FEFECE" filter="url(#fa1qzi9fs8rr3)" points="95,395.4219,107,407.4219,95,419.4219,83,407.4219,95,395.4219" style="stroke: #A80036; stroke-width: 1.5;"/><rect fill="#FEFECE" filter="url(#fa1qzi9fs8rr3)" height="33.9688" rx="12.5" ry="12.5" style="stroke: #A80036; stroke-width: 1.5;" width="113" x="218.5" y="341.4531"/><text fill="#000000" font-family="sans-serif" font-size="12" lengthAdjust="spacingAndGlyphs" textLength="93" x="228.5" y="362.5918">Change Status</text><polygon fill="#FEFECE" filter="url(#fa1qzi9fs8rr3)" points="218,297.4531,332,297.4531,344,309.4531,332,321.4531,218,321.4531,206,309.4531,218,297.4531" style="stroke: #A80036; stroke-width: 1.5;"/><text fill="#000000" font-family="sans-serif" font-size="11" lengthAdjust="spacingAndGlyphs" textLength="114" x="218" y="313.2612">Power_up Picked Up</text><polygon fill="#FEFECE" filter="url(#fa1qzi9fs8rr3)" points="275,395.4219,287,407.4219,275,419.4219,263,407.4219,275,395.4219" style="stroke: #A80036; stroke-width: 1.5;"/><rect fill="#000000" filter="url(#fa1qzi9fs8rr3)" height="6" rx="2.5" ry="2.5" style="stroke: #000000; stroke-width: 1.0;" width="360" x="10" y="439.4219"/><ellipse cx="190" cy="476.4219" fill="#FFFFFF" filter="url(#fa1qzi9fs8rr3)" rx="11" ry="11" style="stroke: #000000; stroke-width: 1.0;"/><ellipse cx="190" cy="476.4219" fill="#000000" rx="6" ry="6" style="stroke: #7F7F7F; stroke-width: 1.0;"/><line style="stroke: #A80036; stroke-width: 1.5;" x1="190" x2="190" y1="30" y2="50"/><polygon fill="#A80036" points="186,40,190,50,194,40,190,44" style="stroke: #A80036; stroke-width: 1.0;"/><line style="stroke: #A80036; stroke-width: 1.5;" x1="190" x2="190" y1="181.9375" y2="209.4531"/><polygon fill="#A80036" points="186,199.4531,190,209.4531,194,199.4531,190,203.4531" style="stroke: #A80036; stroke-width: 1.0;"/><line style="stroke: #A80036; stroke-width: 1.5;" x1="190" x2="190" y1="127.9688" y2="147.9688"/><polygon fill="#A80036" points="186,137.9688,190,147.9688,194,137.9688,190,141.9688" style="stroke: #A80036; stroke-width: 1.0;"/><line style="stroke: #A80036; stroke-width: 1.5;" x1="224" x2="236" y1="115.9688" y2="115.9688"/><polygon fill="#A80036" points="232,179.4531,236,189.4531,240,179.4531,236,183.4531" style="stroke: #A80036; stroke-width: 1.5;"/><line style="stroke: #A80036; stroke-width: 1.5;" x1="236" x2="236" y1="115.9688" y2="251.4531"/><line style="stroke: #A80036; stroke-width: 1.5;" x1="236" x2="190" y1="251.4531" y2="251.4531"/><line style="stroke: #A80036; stroke-width: 1.5;" x1="190" x2="190" y1="251.4531" y2="271.4531"/><polygon fill="#A80036" points="186,261.4531,190,271.4531,194,261.4531,190,265.4531" style="stroke: #A80036; stroke-width: 1.0;"/><line style="stroke: #A80036; stroke-width: 1.5;" x1="190" x2="190" y1="83.9688" y2="103.9688"/><polygon fill="#A80036" points="186,93.9688,190,103.9688,194,93.9688,190,97.9688" style="stroke: #A80036; stroke-width: 1.0;"/><line style="stroke: #A80036; stroke-width: 1.5;" x1="95" x2="95" y1="321.4531" y2="341.4531"/><polygon fill="#A80036" points="91,331.4531,95,341.4531,99,331.4531,95,335.4531" style="stroke: #A80036; stroke-width: 1.0;"/><line style="stroke: #A80036; stroke-width: 1.5;" x1="163" x2="175" y1="309.4531" y2="309.4531"/><polygon fill="#A80036" points="171,348.4375,175,358.4375,179,348.4375,175,352.4375" style="stroke: #A80036; stroke-width: 1.5;"/><line style="stroke: #A80036; stroke-width: 1.5;" x1="175" x2="175" y1="309.4531" y2="407.4219"/><line style="stroke: #A80036; stroke-width: 1.5;" x1="175" x2="107" y1="407.4219" y2="407.4219"/><polygon fill="#A80036" points="117,403.4219,107,407.4219,117,411.4219,113,407.4219" style="stroke: #A80036; stroke-width: 1.0;"/><line style="stroke: #A80036; stroke-width: 1.5;" x1="95" x2="95" y1="375.4219" y2="395.4219"/><polygon fill="#A80036" points="91,385.4219,95,395.4219,99,385.4219,95,389.4219" style="stroke: #A80036; stroke-width: 1.0;"/><line style="stroke: #A80036; stroke-width: 1.5;" x1="275" x2="275" y1="321.4531" y2="341.4531"/><polygon fill="#A80036" points="271,331.4531,275,341.4531,279,331.4531,275,335.4531" style="stroke: #A80036; stroke-width: 1.0;"/><line style="stroke: #A80036; stroke-width: 1.5;" x1="344" x2="356" y1="309.4531" y2="309.4531"/><polygon fill="#A80036" points="352,348.4375,356,358.4375,360,348.4375,356,352.4375" style="stroke: #A80036; stroke-width: 1.5;"/><line style="stroke: #A80036; stroke-width: 1.5;" x1="356" x2="356" y1="309.4531" y2="407.4219"/><line style="stroke: #A80036; stroke-width: 1.5;" x1="356" x2="287" y1="407.4219" y2="407.4219"/><polygon fill="#A80036" points="297,403.4219,287,407.4219,297,411.4219,293,407.4219" style="stroke: #A80036; stroke-width: 1.0;"/><line style="stroke: #A80036; stroke-width: 1.5;" x1="275" x2="275" y1="375.4219" y2="395.4219"/><polygon fill="#A80036" points="271,385.4219,275,395.4219,279,385.4219,275,389.4219" style="stroke: #A80036; stroke-width: 1.0;"/><line style="stroke: #A80036; stroke-width: 1.5;" x1="95" x2="95" y1="277.4531" y2="297.4531"/><polygon fill="#A80036" points="91,287.4531,95,297.4531,99,287.4531,95,291.4531" style="stroke: #A80036; stroke-width: 1.0;"/><line style="stroke: #A80036; stroke-width: 1.5;" x1="275" x2="275" y1="277.4531" y2="297.4531"/><polygon fill="#A80036" points="271,287.4531,275,297.4531,279,287.4531,275,291.4531" style="stroke: #A80036; stroke-width: 1.0;"/><line style="stroke: #A80036; stroke-width: 1.5;" x1="95" x2="95" y1="419.4219" y2="439.4219"/><polygon fill="#A80036" points="91,429.4219,95,439.4219,99,429.4219,95,433.4219" style="stroke: #A80036; stroke-width: 1.0;"/><line style="stroke: #A80036; stroke-width: 1.5;" x1="275" x2="275" y1="419.4219" y2="439.4219"/><polygon fill="#A80036" points="271,429.4219,275,439.4219,279,429.4219,275,433.4219" style="stroke: #A80036; stroke-width: 1.0;"/><line style="stroke: #A80036; stroke-width: 1.5;" x1="190" x2="190" y1="445.4219" y2="465.4219"/><polygon fill="#A80036" points="186,455.4219,190,465.4219,194,455.4219,190,459.4219" style="stroke: #A80036; stroke-width: 1.0;"/><!--
@startuml
start
:Bomberman appears;
if (Life = 0)
  :Dies;
  end
endif
fork
if (Bomberman moves)
  :Change Position;
endif
fork again
if (Power_up Picked Up)
  :Change Status;
endif
end fork
stop
@enduml

PlantUML version 1.2019.04(Fri Mar 29 15:44:36 UTC 2019)
(GPL source distribution)
Java Runtime: OpenJDK Runtime Environment
JVM: OpenJDK 64-Bit Server VM
Java Version: 1.8.0_201-heroku-b09
Operating System: Linux
OS Version: 4.4.0-1048-aws
Default Encoding: UTF-8
Language: en
Country: US
--></g></svg>