<?xml version="1.0" encoding="UTF-8" standalone="no"?><svg xmlns="http://www.w3.org/2000/svg" xmlns:xlink="http://www.w3.org/1999/xlink" contentScriptType="application/ecmascript" contentStyleType="text/css" height="209px" preserveAspectRatio="none" style="width:1378px;height:209px;" version="1.1" viewBox="0 0 1378 209" width="1378px" zoomAndPan="magnify"><defs><filter height="300%" id="f55hf71f8mz8l" width="300%" x="-1" y="-1"><feGaussianBlur result="blurOut" stdDeviation="2.0"/><feColorMatrix in="blurOut" result="blurOut2" type="matrix" values="0 0 0 0 0 0 0 0 0 0 0 0 0 0 0 0 0 0 .4 0"/><feOffset dx="4.0" dy="4.0" in="blurOut2" result="blurOut3"/><feBlend in="SourceGraphic" in2="blurOut3" mode="normal"/></filter></defs><g><!--cluster Sistem--><rect fill="#FFFFFF" filter="url(#f55hf71f8mz8l)" height="99" style="stroke: #000000; stroke-width: 1.5;" width="1353" x="14" y="99"/><text fill="#000000" font-family="sans-serif" font-size="14" font-weight="bold" lengthAdjust="spacingAndGlyphs" textLength="53" x="664" y="113.9951">Sistem</text><!--cluster Power_ups--><rect fill="#FFFFFF" filter="url(#f55hf71f8mz8l)" height="64" style="stroke: #000000; stroke-width: 1.5;" width="197" x="1162" y="126"/><text fill="#000000" font-family="sans-serif" font-size="14" font-weight="bold" lengthAdjust="spacingAndGlyphs" textLength="87" x="1217" y="140.9951">Power_ups</text><!--cluster Enemies--><rect fill="#FFFFFF" filter="url(#f55hf71f8mz8l)" height="64" style="stroke: #000000; stroke-width: 1.5;" width="96" x="1047" y="126"/><text fill="#000000" font-family="sans-serif" font-size="14" font-weight="bold" lengthAdjust="spacingAndGlyphs" textLength="66" x="1062" y="140.9951">Enemies</text><!--cluster Bombs--><rect fill="#FFFFFF" filter="url(#f55hf71f8mz8l)" height="64" style="stroke: #000000; stroke-width: 1.5;" width="239" x="788" y="126"/><text fill="#000000" font-family="sans-serif" font-size="14" font-weight="bold" lengthAdjust="spacingAndGlyphs" textLength="53" x="881" y="140.9951">Bombs</text><!--cluster Walls--><rect fill="#FFFFFF" filter="url(#f55hf71f8mz8l)" height="64" style="stroke: #000000; stroke-width: 1.5;" width="199" x="571" y="126"/><text fill="#000000" font-family="sans-serif" font-size="14" font-weight="bold" lengthAdjust="spacingAndGlyphs" textLength="41" x="650" y="140.9951">Walls</text><!--cluster Movement--><rect fill="#FFFFFF" filter="url(#f55hf71f8mz8l)" height="64" style="stroke: #000000; stroke-width: 1.5;" width="530" x="22" y="126"/><text fill="#000000" font-family="sans-serif" font-size="14" font-weight="bold" lengthAdjust="spacingAndGlyphs" textLength="82" x="246" y="140.9951">Movement</text><ellipse cx="1317.1127" cy="167.5236" fill="#FEFECE" filter="url(#f55hf71f8mz8l)" rx="34.1127" ry="14.5236" style="stroke: #A80036; stroke-width: 1.5;"/><text fill="#000000" font-family="sans-serif" font-size="14" lengthAdjust="spacingAndGlyphs" textLength="44" x="1295.1127" y="172.1721">Visible</text><ellipse cx="1208.8553" cy="167.5236" fill="#FEFECE" filter="url(#f55hf71f8mz8l)" rx="38.3553" ry="14.5236" style="stroke: #A80036; stroke-width: 1.5;"/><text fill="#000000" font-family="sans-serif" font-size="14" lengthAdjust="spacingAndGlyphs" textLength="50" x="1183.8553" y="172.1721">pick up</text><ellipse cx="1094.7696" cy="167.5236" fill="#FEFECE" filter="url(#f55hf71f8mz8l)" rx="39.7696" ry="14.5236" style="stroke: #A80036; stroke-width: 1.5;"/><text fill="#000000" font-family="sans-serif" font-size="14" lengthAdjust="spacingAndGlyphs" textLength="52" x="1068.7696" y="172.1721">Visibles</text><ellipse cx="963.8259" cy="167.5236" fill="#FEFECE" filter="url(#f55hf71f8mz8l)" rx="55.3259" ry="14.5236" style="stroke: #A80036; stroke-width: 1.5;"/><text fill="#000000" font-family="sans-serif" font-size="14" lengthAdjust="spacingAndGlyphs" textLength="74" x="926.8259" y="172.1721">Drop them</text><ellipse cx="834.8553" cy="167.5236" fill="#FEFECE" filter="url(#f55hf71f8mz8l)" rx="38.3553" ry="14.5236" style="stroke: #A80036; stroke-width: 1.5;"/><text fill="#000000" font-family="sans-serif" font-size="14" lengthAdjust="spacingAndGlyphs" textLength="50" x="809.8553" y="172.1721">visibles</text><ellipse cx="729.1985" cy="167.5236" fill="#FEFECE" filter="url(#f55hf71f8mz8l)" rx="32.6985" ry="14.5236" style="stroke: #A80036; stroke-width: 1.5;"/><text fill="#000000" font-family="sans-serif" font-size="14" lengthAdjust="spacingAndGlyphs" textLength="42" x="708.1985" y="172.1721">visible</text><ellipse cx="620.1838" cy="167.5236" fill="#FEFECE" filter="url(#f55hf71f8mz8l)" rx="41.1838" ry="14.5236" style="stroke: #A80036; stroke-width: 1.5;"/><text fill="#000000" font-family="sans-serif" font-size="14" lengthAdjust="spacingAndGlyphs" textLength="54" x="593.1838" y="172.1721">Destroy</text><ellipse cx="496.8406" cy="167.5236" fill="#FEFECE" filter="url(#f55hf71f8mz8l)" rx="46.8406" ry="14.5236" style="stroke: #A80036; stroke-width: 1.5;"/><text fill="#000000" font-family="sans-serif" font-size="14" lengthAdjust="spacingAndGlyphs" textLength="62" x="465.8406" y="172.1721">Move left</text><ellipse cx="360.9117" cy="167.5236" fill="#FEFECE" filter="url(#f55hf71f8mz8l)" rx="53.9117" ry="14.5236" style="stroke: #A80036; stroke-width: 1.5;"/><text fill="#000000" font-family="sans-serif" font-size="14" lengthAdjust="spacingAndGlyphs" textLength="72" x="324.9117" y="172.1721">Move right</text><ellipse cx="212.8614" cy="167.5236" fill="#FEFECE" filter="url(#f55hf71f8mz8l)" rx="58.8614" ry="14.5236" style="stroke: #A80036; stroke-width: 1.5;"/><text fill="#000000" font-family="sans-serif" font-size="14" lengthAdjust="spacingAndGlyphs" textLength="79" x="173.3614" y="172.1721">Move down</text><ellipse cx="74.2193" cy="167.5236" fill="#FEFECE" filter="url(#f55hf71f8mz8l)" rx="44.7193" ry="14.5236" style="stroke: #A80036; stroke-width: 1.5;"/><text fill="#000000" font-family="sans-serif" font-size="14" lengthAdjust="spacingAndGlyphs" textLength="59" x="44.7193" y="172.1721">Move up</text><!--entity Player--><ellipse cx="729" cy="18" fill="#FEFECE" filter="url(#f55hf71f8mz8l)" rx="8" ry="8" style="stroke: #A80036; stroke-width: 2.0;"/><path d="M729,26 L729,53 M716,34 L742,34 M729,53 L716,68 M729,53 L742,68 " fill="none" filter="url(#f55hf71f8mz8l)" style="stroke: #A80036; stroke-width: 2.0;"/><text fill="#000000" font-family="sans-serif" font-size="14" lengthAdjust="spacingAndGlyphs" textLength="41" x="708.5" y="87.9951">Player</text><!--link Player to Visible--><path d="M749.5751,50.4219 C842.3464,54.7093 1219.1938,73.5709 1265,99 C1284.8749,110.0335 1299.5019,132.1716 1308.0934,148.3033 " fill="none" id="Player-Visible" style="stroke: #A80036; stroke-width: 1.0;"/><polygon fill="#A80036" points="1310.5651,153.098,1309.9967,143.2656,1308.2741,148.6537,1302.8859,146.9311,1310.5651,153.098" style="stroke: #A80036; stroke-width: 1.0;"/><!--link Player to pick up--><path d="M749.708,49.9417 C824.5369,51.8394 1080.2315,61.0264 1151,99 C1172.0855,110.3142 1188.7444,132.7027 1198.7002,148.8084 " fill="none" id="Player-pick up" style="stroke: #A80036; stroke-width: 1.0;"/><polygon fill="#A80036" points="1201.3286,153.17,1200.1092,143.3969,1198.7478,148.8875,1193.2573,147.5261,1201.3286,153.17" style="stroke: #A80036; stroke-width: 1.0;"/><!--link Player to Visibles--><path d="M749.8677,51.0339 C810.4951,55.7749 985.4543,71.5515 1035,99 C1056.1097,110.6949 1073.3779,132.7982 1083.8802,148.7391 " fill="none" id="Player-Visibles" style="stroke: #A80036; stroke-width: 1.0;"/><polygon fill="#A80036" points="1086.6605,153.0581,1085.152,143.3255,1083.9539,148.854,1078.4254,147.6559,1086.6605,153.0581" style="stroke: #A80036; stroke-width: 1.0;"/><!--link Player to Drop them--><path d="M749.6461,52.6986 C781.6596,58.3197 844.4322,72.0223 891,99 C913.8746,112.2518 935.3385,133.9394 948.9923,149.3597 " fill="none" id="Player-Drop them" style="stroke: #A80036; stroke-width: 1.0;"/><polygon fill="#A80036" points="952.2914,153.1361,949.3825,143.7266,949.0018,149.3707,943.3578,148.99,952.2914,153.1361" style="stroke: #A80036; stroke-width: 1.0;"/><!--link Player to visibles--><path d="M749.9094,69.8269 C758.7546,78.6279 769.0589,89.152 778,99 C793.0795,115.6089 809.3632,135.3789 820.6493,149.4007 " fill="none" id="Player-visibles" style="stroke: #A80036; stroke-width: 1.0;"/><polygon fill="#A80036" points="823.9846,153.5579,821.4726,144.0348,820.8557,149.6579,815.2326,149.041,823.9846,153.5579" style="stroke: #A80036; stroke-width: 1.0;"/><!--link Player to visible--><path d="M729,91.1024 C729,110.2495 729,132.0812 729,147.4895 " fill="none" id="Player-visible" style="stroke: #A80036; stroke-width: 1.0;"/><polygon fill="#A80036" points="729,152.8588,733,143.8588,729,147.8588,725,143.8588,729,152.8588" style="stroke: #A80036; stroke-width: 1.0;"/><!--link Player to Destroy--><path d="M708.1956,69.3712 C699.0694,78.2717 688.3326,88.9967 679,99 C663.4749,115.6409 646.6087,135.4067 634.9013,149.4188 " fill="none" id="Player-Destroy" style="stroke: #A80036; stroke-width: 1.0;"/><polygon fill="#A80036" points="631.4408,153.5728,640.2746,149.218,634.641,149.7311,634.1279,144.0976,631.4408,153.5728" style="stroke: #A80036; stroke-width: 1.0;"/><!--link Player to Move left--><path d="M708.4768,52.1746 C675.6958,57.1712 610.3927,70.1456 563,99 C541.7259,111.9524 522.6109,133.4188 510.495,148.8716 " fill="none" id="Player-Move left" style="stroke: #A80036; stroke-width: 1.0;"/><polygon fill="#A80036" points="507.2673,153.0585,515.9301,148.3727,510.32,149.0986,509.5942,143.4885,507.2673,153.0585" style="stroke: #A80036; stroke-width: 1.0;"/><!--link Player to Move right--><path d="M708.0828,51.393 C648.9734,56.9922 481.829,74.6193 433,99 C409.2356,110.8658 388.0147,133.2334 374.8727,149.1803 " fill="none" id="Player-Move right" style="stroke: #A80036; stroke-width: 1.0;"/><polygon fill="#A80036" points="371.7089,153.086,380.4821,148.6104,374.8561,149.2008,374.2657,143.5748,371.7089,153.086" style="stroke: #A80036; stroke-width: 1.0;"/><!--link Player to Move down--><path d="M708.4259,50.1775 C632.2251,52.9374 366.5218,64.8583 290,99 C264.6939,110.2908 241.8251,132.9913 227.7066,149.1637 " fill="none" id="Player-Move down" style="stroke: #A80036; stroke-width: 1.0;"/><polygon fill="#A80036" points="224.3095,153.1238,233.2054,148.8973,227.565,149.3289,227.1335,143.6885,224.3095,153.1238" style="stroke: #A80036; stroke-width: 1.0;"/><!--link Player to Move up--><path d="M708.3455,50.3379 C609.7144,54.458 189.2777,73.4037 137,99 C114.7162,109.9106 96.4975,132.3797 85.4852,148.6145 " fill="none" id="Player-Move up" style="stroke: #A80036; stroke-width: 1.0;"/><polygon fill="#A80036" points="82.5729,153.0134,90.8766,147.7173,85.3331,148.8443,84.2061,143.3009,82.5729,153.0134" style="stroke: #A80036; stroke-width: 1.0;"/><!--
@startuml
actor Player
rectangle Sistem {
rectangle Power_ups {
Player -down-> (Visible)
Player -down-> (pick up)
}
rectangle Enemies {
Player -down-> (Visibles)
}
rectangle Bombs {
Player -down-> (Drop them)
Player -down-> (visibles)
}
rectangle Walls {
Player -down-> (visible)
Player -down-> (Destroy)
}
rectangle Movement {
Player -down-> (Move left)
Player -down-> (Move right)  
Player -down-> (Move down)
Player -down-> (Move up)
}
@enduml

PlantUML version 1.2019.04(Fri Mar 29 15:44:36 UTC 2019)
(GPL source distribution)
Java Runtime: OpenJDK Runtime Environment
JVM: OpenJDK 64-Bit Server VM
Java Version: 1.8.0_201-heroku-b09
Operating System: Linux
OS Version: 4.4.0-1048-aws
Default Encoding: UTF-8
Language: en
Country: US
--></g></svg>