<?xml version="1.0" encoding="UTF-8" standalone="no"?><svg xmlns="http://www.w3.org/2000/svg" xmlns:xlink="http://www.w3.org/1999/xlink" contentScriptType="application/ecmascript" contentStyleType="text/css" height="446px" preserveAspectRatio="none" style="width:169px;height:446px;" version="1.1" viewBox="0 0 169 446" width="169px" zoomAndPan="magnify"><defs><filter height="300%" id="f1kj6x3qqkr3vn" width="300%" x="-1" y="-1"><feGaussianBlur result="blurOut" stdDeviation="2.0"/><feColorMatrix in="blurOut" result="blurOut2" type="matrix" values="0 0 0 0 0 0 0 0 0 0 0 0 0 0 0 0 0 0 .4 0"/><feOffset dx="4.0" dy="4.0" in="blurOut2" result="blurOut3"/><feBlend in="SourceGraphic" in2="blurOut3" mode="normal"/></filter></defs><g><ellipse cx="72" cy="20" fill="#000000" filter="url(#f1kj6x3qqkr3vn)" rx="10" ry="10" style="stroke: none; stroke-width: 1.0;"/><rect fill="#FEFECE" filter="url(#f1kj6x3qqkr3vn)" height="33.9688" rx="12.5" ry="12.5" style="stroke: #A80036; stroke-width: 1.5;" width="117" x="13.5" y="50"/><text fill="#000000" font-family="sans-serif" font-size="12" lengthAdjust="spacingAndGlyphs" textLength="97" x="23.5" y="71.1387">Enemy appears</text><rect fill="#FEFECE" filter="url(#f1kj6x3qqkr3vn)" height="33.9688" rx="12.5" ry="12.5" style="stroke: #A80036; stroke-width: 1.5;" width="47" x="48.5" y="147.9688"/><text fill="#000000" font-family="sans-serif" font-size="12" lengthAdjust="spacingAndGlyphs" textLength="27" x="58.5" y="169.1074">Dies</text><ellipse cx="72" cy="219.4531" fill="#FFFFFF" filter="url(#f1kj6x3qqkr3vn)" rx="10" ry="10" style="stroke: #000000; stroke-width: 1.5;"/><line style="stroke: #000000; stroke-width: 2.5;" x1="65.8128" x2="78.1872" y1="213.2659" y2="225.6403"/><line style="stroke: #000000; stroke-width: 2.5;" x1="78.1872" x2="65.8128" y1="213.2659" y2="225.6403"/><polygon fill="#FEFECE" filter="url(#f1kj6x3qqkr3vn)" points="52.5,103.9688,91.5,103.9688,103.5,115.9688,91.5,127.9688,52.5,127.9688,40.5,115.9688,52.5,103.9688" style="stroke: #A80036; stroke-width: 1.5;"/><text fill="#000000" font-family="sans-serif" font-size="11" lengthAdjust="spacingAndGlyphs" textLength="39" x="52.5" y="119.7769">HP = 0</text><rect fill="#FEFECE" filter="url(#f1kj6x3qqkr3vn)" height="33.9688" rx="12.5" ry="12.5" style="stroke: #A80036; stroke-width: 1.5;" width="122" x="11" y="315.4531"/><text fill="#000000" font-family="sans-serif" font-size="12" lengthAdjust="spacingAndGlyphs" textLength="102" x="21" y="336.5918">Change Position</text><polygon fill="#FEFECE" filter="url(#f1kj6x3qqkr3vn)" points="32,271.4531,112,271.4531,124,283.4531,112,295.4531,32,295.4531,20,283.4531,32,271.4531" style="stroke: #A80036; stroke-width: 1.5;"/><text fill="#000000" font-family="sans-serif" font-size="11" lengthAdjust="spacingAndGlyphs" textLength="80" x="32" y="287.2612">Enemy moves</text><polygon fill="#FEFECE" filter="url(#f1kj6x3qqkr3vn)" points="72,369.4219,84,381.4219,72,393.4219,60,381.4219,72,369.4219" style="stroke: #A80036; stroke-width: 1.5;"/><ellipse cx="72" cy="424.4219" fill="#FFFFFF" filter="url(#f1kj6x3qqkr3vn)" rx="11" ry="11" style="stroke: #000000; stroke-width: 1.0;"/><ellipse cx="72" cy="424.4219" fill="#000000" rx="6" ry="6" style="stroke: #7F7F7F; stroke-width: 1.0;"/><line style="stroke: #A80036; stroke-width: 1.5;" x1="72" x2="72" y1="30" y2="50"/><polygon fill="#A80036" points="68,40,72,50,76,40,72,44" style="stroke: #A80036; stroke-width: 1.0;"/><line style="stroke: #A80036; stroke-width: 1.5;" x1="72" x2="72" y1="181.9375" y2="209.4531"/><polygon fill="#A80036" points="68,199.4531,72,209.4531,76,199.4531,72,203.4531" style="stroke: #A80036; stroke-width: 1.0;"/><line style="stroke: #A80036; stroke-width: 1.5;" x1="72" x2="72" y1="127.9688" y2="147.9688"/><polygon fill="#A80036" points="68,137.9688,72,147.9688,76,137.9688,72,141.9688" style="stroke: #A80036; stroke-width: 1.0;"/><line style="stroke: #A80036; stroke-width: 1.5;" x1="103.5" x2="115.5" y1="115.9688" y2="115.9688"/><polygon fill="#A80036" points="111.5,179.4531,115.5,189.4531,119.5,179.4531,115.5,183.4531" style="stroke: #A80036; stroke-width: 1.5;"/><line style="stroke: #A80036; stroke-width: 1.5;" x1="115.5" x2="115.5" y1="115.9688" y2="251.4531"/><line style="stroke: #A80036; stroke-width: 1.5;" x1="115.5" x2="72" y1="251.4531" y2="251.4531"/><line style="stroke: #A80036; stroke-width: 1.5;" x1="72" x2="72" y1="251.4531" y2="271.4531"/><polygon fill="#A80036" points="68,261.4531,72,271.4531,76,261.4531,72,265.4531" style="stroke: #A80036; stroke-width: 1.0;"/><line style="stroke: #A80036; stroke-width: 1.5;" x1="72" x2="72" y1="83.9688" y2="103.9688"/><polygon fill="#A80036" points="68,93.9688,72,103.9688,76,93.9688,72,97.9688" style="stroke: #A80036; stroke-width: 1.0;"/><line style="stroke: #A80036; stroke-width: 1.5;" x1="72" x2="72" y1="295.4531" y2="315.4531"/><polygon fill="#A80036" points="68,305.4531,72,315.4531,76,305.4531,72,309.4531" style="stroke: #A80036; stroke-width: 1.0;"/><line style="stroke: #A80036; stroke-width: 1.5;" x1="124" x2="143" y1="283.4531" y2="283.4531"/><polygon fill="#A80036" points="139,322.4375,143,332.4375,147,322.4375,143,326.4375" style="stroke: #A80036; stroke-width: 1.5;"/><line style="stroke: #A80036; stroke-width: 1.5;" x1="143" x2="143" y1="283.4531" y2="381.4219"/><line style="stroke: #A80036; stroke-width: 1.5;" x1="143" x2="84" y1="381.4219" y2="381.4219"/><polygon fill="#A80036" points="94,377.4219,84,381.4219,94,385.4219,90,381.4219" style="stroke: #A80036; stroke-width: 1.0;"/><line style="stroke: #A80036; stroke-width: 1.5;" x1="72" x2="72" y1="349.4219" y2="369.4219"/><polygon fill="#A80036" points="68,359.4219,72,369.4219,76,359.4219,72,363.4219" style="stroke: #A80036; stroke-width: 1.0;"/><line style="stroke: #A80036; stroke-width: 1.5;" x1="72" x2="72" y1="393.4219" y2="413.4219"/><polygon fill="#A80036" points="68,403.4219,72,413.4219,76,403.4219,72,407.4219" style="stroke: #A80036; stroke-width: 1.0;"/><!--
@startuml
start
:Enemy appears;
if (HP = 0)
  :Dies;
  end
endif
if (Enemy moves)
  :Change Position;
endif
stop
@enduml

PlantUML version 1.2019.04(Fri Mar 29 15:44:36 UTC 2019)
(GPL source distribution)
Java Runtime: OpenJDK Runtime Environment
JVM: OpenJDK 64-Bit Server VM
Java Version: 1.8.0_201-heroku-b09
Operating System: Linux
OS Version: 4.4.0-1048-aws
Default Encoding: UTF-8
Language: en
Country: US
--></g></svg>