<?xml version="1.0" encoding="UTF-8" standalone="no"?><svg xmlns="http://www.w3.org/2000/svg" xmlns:xlink="http://www.w3.org/1999/xlink" contentScriptType="application/ecmascript" contentStyleType="text/css" height="304px" preserveAspectRatio="none" style="width:201px;height:304px;" version="1.1" viewBox="0 0 201 304" width="201px" zoomAndPan="magnify"><defs><filter height="300%" id="f115d1xv1vmjn2" width="300%" x="-1" y="-1"><feGaussianBlur result="blurOut" stdDeviation="2.0"/><feColorMatrix in="blurOut" result="blurOut2" type="matrix" values="0 0 0 0 0 0 0 0 0 0 0 0 0 0 0 0 0 0 .4 0"/><feOffset dx="4.0" dy="4.0" in="blurOut2" result="blurOut3"/><feBlend in="SourceGraphic" in2="blurOut3" mode="normal"/></filter></defs><g><ellipse cx="87.5" cy="20" fill="#000000" filter="url(#f115d1xv1vmjn2)" rx="10" ry="10" style="stroke: none; stroke-width: 1.0;"/><rect fill="#FEFECE" filter="url(#f115d1xv1vmjn2)" height="33.9688" rx="12.5" ry="12.5" style="stroke: #A80036; stroke-width: 1.5;" width="137" x="19" y="50"/><text fill="#000000" font-family="sans-serif" font-size="12" lengthAdjust="spacingAndGlyphs" textLength="117" x="29" y="71.1387">Power_Up Appears</text><rect fill="#FEFECE" filter="url(#f115d1xv1vmjn2)" height="33.9688" rx="12.5" ry="12.5" style="stroke: #A80036; stroke-width: 1.5;" width="155" x="10" y="147.9688"/><text fill="#000000" font-family="sans-serif" font-size="12" lengthAdjust="spacingAndGlyphs" textLength="135" x="20" y="169.1074">Power_Up disappears</text><ellipse cx="87.5" cy="219.4531" fill="#FFFFFF" filter="url(#f115d1xv1vmjn2)" rx="10" ry="10" style="stroke: #000000; stroke-width: 1.5;"/><line style="stroke: #000000; stroke-width: 2.5;" x1="81.3128" x2="93.6872" y1="213.2659" y2="225.6403"/><line style="stroke: #000000; stroke-width: 2.5;" x1="93.6872" x2="81.3128" y1="213.2659" y2="225.6403"/><polygon fill="#FEFECE" filter="url(#f115d1xv1vmjn2)" points="38.5,103.9688,136.5,103.9688,148.5,115.9688,136.5,127.9688,38.5,127.9688,26.5,115.9688,38.5,103.9688" style="stroke: #A80036; stroke-width: 1.5;"/><text fill="#000000" font-family="sans-serif" font-size="11" lengthAdjust="spacingAndGlyphs" textLength="98" x="38.5" y="119.7769">Picked Up = True</text><ellipse cx="87.5" cy="282.4531" fill="#FFFFFF" filter="url(#f115d1xv1vmjn2)" rx="11" ry="11" style="stroke: #000000; stroke-width: 1.0;"/><ellipse cx="87.5" cy="282.4531" fill="#000000" rx="6" ry="6" style="stroke: #7F7F7F; stroke-width: 1.0;"/><line style="stroke: #A80036; stroke-width: 1.5;" x1="87.5" x2="87.5" y1="30" y2="50"/><polygon fill="#A80036" points="83.5,40,87.5,50,91.5,40,87.5,44" style="stroke: #A80036; stroke-width: 1.0;"/><line style="stroke: #A80036; stroke-width: 1.5;" x1="87.5" x2="87.5" y1="181.9375" y2="209.4531"/><polygon fill="#A80036" points="83.5,199.4531,87.5,209.4531,91.5,199.4531,87.5,203.4531" style="stroke: #A80036; stroke-width: 1.0;"/><line style="stroke: #A80036; stroke-width: 1.5;" x1="87.5" x2="87.5" y1="127.9688" y2="147.9688"/><polygon fill="#A80036" points="83.5,137.9688,87.5,147.9688,91.5,137.9688,87.5,141.9688" style="stroke: #A80036; stroke-width: 1.0;"/><line style="stroke: #A80036; stroke-width: 1.5;" x1="148.5" x2="175" y1="115.9688" y2="115.9688"/><polygon fill="#A80036" points="171,179.4531,175,189.4531,179,179.4531,175,183.4531" style="stroke: #A80036; stroke-width: 1.5;"/><line style="stroke: #A80036; stroke-width: 1.5;" x1="175" x2="175" y1="115.9688" y2="251.4531"/><line style="stroke: #A80036; stroke-width: 1.5;" x1="175" x2="87.5" y1="251.4531" y2="251.4531"/><line style="stroke: #A80036; stroke-width: 1.5;" x1="87.5" x2="87.5" y1="251.4531" y2="271.4531"/><polygon fill="#A80036" points="83.5,261.4531,87.5,271.4531,91.5,261.4531,87.5,265.4531" style="stroke: #A80036; stroke-width: 1.0;"/><line style="stroke: #A80036; stroke-width: 1.5;" x1="87.5" x2="87.5" y1="83.9688" y2="103.9688"/><polygon fill="#A80036" points="83.5,93.9688,87.5,103.9688,91.5,93.9688,87.5,97.9688" style="stroke: #A80036; stroke-width: 1.0;"/><!--
@startuml
start
:Power_Up Appears;
if (Picked Up = True)
  :Power_Up disappears;
  end
endif
stop
@enduml

PlantUML version 1.2019.04(Fri Mar 29 15:44:36 UTC 2019)
(GPL source distribution)
Java Runtime: OpenJDK Runtime Environment
JVM: OpenJDK 64-Bit Server VM
Java Version: 1.8.0_201-heroku-b09
Operating System: Linux
OS Version: 4.4.0-1048-aws
Default Encoding: UTF-8
Language: en
Country: US
--></g></svg>