<?xml version="1.0" encoding="UTF-8" standalone="no"?><svg xmlns="http://www.w3.org/2000/svg" xmlns:xlink="http://www.w3.org/1999/xlink" contentScriptType="application/ecmascript" contentStyleType="text/css" height="1124px" preserveAspectRatio="none" style="width:1480px;height:1124px;" version="1.1" viewBox="0 0 1480 1124" width="1480px" zoomAndPan="magnify"><defs><filter height="300%" id="f12piddpk8ad6x" width="300%" x="-1" y="-1"><feGaussianBlur result="blurOut" stdDeviation="2.0"/><feColorMatrix in="blurOut" result="blurOut2" type="matrix" values="0 0 0 0 0 0 0 0 0 0 0 0 0 0 0 0 0 0 .4 0"/><feOffset dx="4.0" dy="4.0" in="blurOut2" result="blurOut3"/><feBlend in="SourceGraphic" in2="blurOut3" mode="normal"/></filter></defs><g><ellipse cx="1053.375" cy="20" fill="#000000" filter="url(#f12piddpk8ad6x)" rx="10" ry="10" style="stroke: none; stroke-width: 1.0;"/><rect fill="#FEFECE" filter="url(#f12piddpk8ad6x)" height="33.9688" rx="12.5" ry="12.5" style="stroke: #A80036; stroke-width: 1.5;" width="97" x="1004.875" y="50"/><text fill="#000000" font-family="sans-serif" font-size="12" lengthAdjust="spacingAndGlyphs" textLength="77" x="1014.875" y="71.1387">Game starts</text><rect fill="#FEFECE" filter="url(#f12piddpk8ad6x)" height="33.9688" rx="12.5" ry="12.5" style="stroke: #A80036; stroke-width: 1.5;" width="91" x="1007.875" y="159.6792"/><text fill="#000000" font-family="sans-serif" font-size="12" lengthAdjust="spacingAndGlyphs" textLength="71" x="1017.875" y="180.8179">Time = 300</text><rect fill="#FEFECE" filter="url(#f12piddpk8ad6x)" height="33.9688" rx="12.5" ry="12.5" style="stroke: #A80036; stroke-width: 1.5;" width="116" x="995.375" y="213.6479"/><text fill="#000000" font-family="sans-serif" font-size="12" lengthAdjust="spacingAndGlyphs" textLength="96" x="1005.375" y="234.7866">Time = Time - 1</text><polygon fill="#FEFECE" filter="url(#f12piddpk8ad6x)" points="1028.875,267.6167,1077.875,267.6167,1089.875,279.6167,1077.875,291.6167,1028.875,291.6167,1016.875,279.6167,1028.875,267.6167" style="stroke: #A80036; stroke-width: 1.5;"/><text fill="#000000" font-family="sans-serif" font-size="11" lengthAdjust="spacingAndGlyphs" textLength="49" x="1028.875" y="283.4248">time = 0</text><text fill="#000000" font-family="sans-serif" font-size="11" lengthAdjust="spacingAndGlyphs" textLength="28" x="988.875" y="277.0225">false</text><text fill="#000000" font-family="sans-serif" font-size="11" lengthAdjust="spacingAndGlyphs" textLength="23" x="1089.875" y="277.0225">true</text><rect fill="#000000" filter="url(#f12piddpk8ad6x)" height="6" rx="2.5" ry="2.5" style="stroke: #000000; stroke-width: 1.0;" width="1314.5" x="38" y="301.6167"/><rect fill="#FEFECE" filter="url(#f12piddpk8ad6x)" height="33.9688" rx="12.5" ry="12.5" style="stroke: #A80036; stroke-width: 1.5;" width="91" x="341.25" y="327.6167"/><text fill="#000000" font-family="sans-serif" font-size="12" lengthAdjust="spacingAndGlyphs" textLength="71" x="351.25" y="348.7554">Plant Bomb</text><rect fill="#FEFECE" filter="url(#f12piddpk8ad6x)" height="33.9688" rx="12.5" ry="12.5" style="stroke: #A80036; stroke-width: 1.5;" width="79" x="347.25" y="396.5854"/><text fill="#000000" font-family="sans-serif" font-size="12" lengthAdjust="spacingAndGlyphs" textLength="59" x="357.25" y="417.7241">Explosion</text><rect fill="#000000" filter="url(#f12piddpk8ad6x)" height="6" rx="2.5" ry="2.5" style="stroke: #000000; stroke-width: 1.0;" width="649.5" x="62" y="498.9565"/><rect fill="#FEFECE" filter="url(#f12piddpk8ad6x)" height="33.9688" rx="12.5" ry="12.5" style="stroke: #A80036; stroke-width: 1.5;" width="61" x="124" y="578.8433"/><text fill="#000000" font-family="sans-serif" font-size="12" lengthAdjust="spacingAndGlyphs" textLength="41" x="134" y="599.9819">Enemy</text><rect fill="#FEFECE" filter="url(#f12piddpk8ad6x)" height="33.9688" rx="12.5" ry="12.5" style="stroke: #A80036; stroke-width: 1.5;" width="74" x="117.5" y="647.812"/><text fill="#000000" font-family="sans-serif" font-size="12" lengthAdjust="spacingAndGlyphs" textLength="54" x="127.5" y="668.9507">Lose Life</text><polygon fill="#FEFECE" filter="url(#f12piddpk8ad6x)" points="134,716.7808,175,716.7808,187,728.7808,175,740.7808,134,740.7808,122,728.7808,134,716.7808" style="stroke: #A80036; stroke-width: 1.5;"/><text fill="#000000" font-family="sans-serif" font-size="11" lengthAdjust="spacingAndGlyphs" textLength="41" x="134" y="732.5889">life = 0</text><text fill="#000000" font-family="sans-serif" font-size="11" lengthAdjust="spacingAndGlyphs" textLength="23" x="99" y="726.1865">true</text><text fill="#000000" font-family="sans-serif" font-size="11" lengthAdjust="spacingAndGlyphs" textLength="28" x="187" y="726.1865">false</text><rect fill="#FEFECE" filter="url(#f12piddpk8ad6x)" height="33.9688" rx="12.5" ry="12.5" style="stroke: #A80036; stroke-width: 1.5;" width="52" x="86" y="750.7808"/><text fill="#000000" font-family="sans-serif" font-size="12" lengthAdjust="spacingAndGlyphs" textLength="32" x="96" y="771.9194">dead</text><ellipse cx="112" cy="829.7495" fill="#FFFFFF" filter="url(#f12piddpk8ad6x)" rx="10" ry="10" style="stroke: #000000; stroke-width: 1.5;"/><line style="stroke: #000000; stroke-width: 2.5;" x1="105.8128" x2="118.1872" y1="823.5623" y2="835.9367"/><line style="stroke: #000000; stroke-width: 2.5;" x1="118.1872" x2="105.8128" y1="823.5623" y2="835.9367"/><rect fill="#FEFECE" filter="url(#f12piddpk8ad6x)" height="33.9688" rx="12.5" ry="12.5" style="stroke: #A80036; stroke-width: 1.5;" width="75" x="159.5" y="750.7808"/><text fill="#000000" font-family="sans-serif" font-size="12" lengthAdjust="spacingAndGlyphs" textLength="55" x="169.5" y="771.9194">continue</text><rect fill="#FEFECE" filter="url(#f12piddpk8ad6x)" height="33.9688" rx="12.5" ry="12.5" style="stroke: #A80036; stroke-width: 1.5;" width="45" x="409" y="545.9409"/><text fill="#000000" font-family="sans-serif" font-size="12" lengthAdjust="spacingAndGlyphs" textLength="25" x="419" y="567.0796">Wall</text><polygon fill="#FEFECE" filter="url(#f12piddpk8ad6x)" points="382,614.9097,481,614.9097,493,626.9097,481,638.9097,382,638.9097,370,626.9097,382,614.9097" style="stroke: #A80036; stroke-width: 1.5;"/><text fill="#000000" font-family="sans-serif" font-size="11" lengthAdjust="spacingAndGlyphs" textLength="99" x="382" y="630.7178">can be destroyed</text><text fill="#000000" font-family="sans-serif" font-size="11" lengthAdjust="spacingAndGlyphs" textLength="23" x="347" y="624.3154">true</text><text fill="#000000" font-family="sans-serif" font-size="11" lengthAdjust="spacingAndGlyphs" textLength="28" x="493" y="624.3154">false</text><rect fill="#FEFECE" filter="url(#f12piddpk8ad6x)" height="33.9688" rx="12.5" ry="12.5" style="stroke: #A80036; stroke-width: 1.5;" width="95" x="310" y="648.9097"/><text fill="#000000" font-family="sans-serif" font-size="12" lengthAdjust="spacingAndGlyphs" textLength="75" x="320" y="670.0483">Wall explote</text><rect fill="#FEFECE" filter="url(#f12piddpk8ad6x)" height="33.9688" rx="12.5" ry="12.5" style="stroke: #A80036; stroke-width: 1.5;" width="130" x="292.5" y="766.2808"/><text fill="#000000" font-family="sans-serif" font-size="12" lengthAdjust="spacingAndGlyphs" textLength="110" x="302.5" y="787.4194">powerup appears</text><polygon fill="#FEFECE" filter="url(#f12piddpk8ad6x)" points="312,717.8784,403,717.8784,415,729.8784,403,741.8784,312,741.8784,300,729.8784,312,717.8784" style="stroke: #A80036; stroke-width: 1.5;"/><text fill="#000000" font-family="sans-serif" font-size="11" lengthAdjust="spacingAndGlyphs" textLength="23" x="361.5" y="752.0889">true</text><text fill="#000000" font-family="sans-serif" font-size="11" lengthAdjust="spacingAndGlyphs" textLength="91" x="312" y="733.6865">have a powerup</text><polygon fill="#FEFECE" filter="url(#f12piddpk8ad6x)" points="357.5,824.6519,369.5,836.6519,357.5,848.6519,345.5,836.6519,357.5,824.6519" style="stroke: #A80036; stroke-width: 1.5;"/><rect fill="#FEFECE" filter="url(#f12piddpk8ad6x)" height="33.9688" rx="12.5" ry="12.5" style="stroke: #A80036; stroke-width: 1.5;" width="82" x="464.5" y="648.9097"/><text fill="#000000" font-family="sans-serif" font-size="12" lengthAdjust="spacingAndGlyphs" textLength="62" x="474.5" y="670.0483">Wall stays</text><polygon fill="#FEFECE" filter="url(#f12piddpk8ad6x)" points="431.5,854.6519,443.5,866.6519,431.5,878.6519,419.5,866.6519,431.5,854.6519" style="stroke: #A80036; stroke-width: 1.5;"/><rect fill="#FEFECE" filter="url(#f12piddpk8ad6x)" height="33.9688" rx="12.5" ry="12.5" style="stroke: #A80036; stroke-width: 1.5;" width="43" x="613.5" y="524.9565"/><text fill="#000000" font-family="sans-serif" font-size="12" lengthAdjust="spacingAndGlyphs" textLength="23" x="623.5" y="546.0952">You</text><rect fill="#FEFECE" filter="url(#f12piddpk8ad6x)" height="33.9688" rx="12.5" ry="12.5" style="stroke: #A80036; stroke-width: 1.5;" width="70" x="600" y="593.9253"/><text fill="#000000" font-family="sans-serif" font-size="12" lengthAdjust="spacingAndGlyphs" textLength="50" x="610" y="615.064">Lose HP</text><rect fill="#FEFECE" filter="url(#f12piddpk8ad6x)" height="33.9688" rx="12.5" ry="12.5" style="stroke: #A80036; stroke-width: 1.5;" width="74" x="598" y="711.2964"/><text fill="#000000" font-family="sans-serif" font-size="12" lengthAdjust="spacingAndGlyphs" textLength="54" x="608" y="732.4351">You died</text><rect fill="#FEFECE" filter="url(#f12piddpk8ad6x)" height="33.9688" rx="12.5" ry="12.5" style="stroke: #A80036; stroke-width: 1.5;" width="81" x="594.5" y="780.2651"/><text fill="#000000" font-family="sans-serif" font-size="12" lengthAdjust="spacingAndGlyphs" textLength="61" x="604.5" y="801.4038">Lose level</text><ellipse cx="635" cy="859.2339" fill="#FFFFFF" filter="url(#f12piddpk8ad6x)" rx="10" ry="10" style="stroke: #000000; stroke-width: 1.5;"/><line style="stroke: #000000; stroke-width: 2.5;" x1="628.8128" x2="641.1872" y1="853.0467" y2="865.4211"/><line style="stroke: #000000; stroke-width: 2.5;" x1="641.1872" x2="628.8128" y1="853.0467" y2="865.4211"/><polygon fill="#FEFECE" filter="url(#f12piddpk8ad6x)" points="615.5,662.894,654.5,662.894,666.5,674.894,654.5,686.894,615.5,686.894,603.5,674.894,615.5,662.894" style="stroke: #A80036; stroke-width: 1.5;"/><text fill="#000000" font-family="sans-serif" font-size="11" lengthAdjust="spacingAndGlyphs" textLength="23" x="639" y="697.1045">true</text><text fill="#000000" font-family="sans-serif" font-size="11" lengthAdjust="spacingAndGlyphs" textLength="39" x="615.5" y="678.7021">HP = 0</text><text fill="#000000" font-family="sans-serif" font-size="11" lengthAdjust="spacingAndGlyphs" textLength="28" x="666.5" y="672.2998">false</text><rect fill="#000000" filter="url(#f12piddpk8ad6x)" height="6" rx="2.5" ry="2.5" style="stroke: #000000; stroke-width: 1.0;" width="649.5" x="62" y="919.6362"/><polygon fill="#FEFECE" filter="url(#f12piddpk8ad6x)" points="310.25,450.5542,463.25,450.5542,475.25,462.5542,463.25,474.5542,310.25,474.5542,298.25,462.5542,310.25,450.5542" style="stroke: #A80036; stroke-width: 1.5;"/><text fill="#000000" font-family="sans-serif" font-size="11" lengthAdjust="spacingAndGlyphs" textLength="23" x="390.75" y="484.7646">true</text><text fill="#000000" font-family="sans-serif" font-size="11" lengthAdjust="spacingAndGlyphs" textLength="153" x="310.25" y="466.3623">Explosion touch something</text><text fill="#000000" font-family="sans-serif" font-size="11" lengthAdjust="spacingAndGlyphs" textLength="28" x="475.25" y="459.96">false</text><polygon fill="#FEFECE" filter="url(#f12piddpk8ad6x)" points="386.75,945.6362,398.75,957.6362,386.75,969.6362,374.75,957.6362,386.75,945.6362" style="stroke: #A80036; stroke-width: 1.5;"/><rect fill="#FEFECE" filter="url(#f12piddpk8ad6x)" height="33.9688" rx="12.5" ry="12.5" style="stroke: #A80036; stroke-width: 1.5;" width="52" x="952.5" y="396.5854"/><text fill="#000000" font-family="sans-serif" font-size="12" lengthAdjust="spacingAndGlyphs" textLength="32" x="962.5" y="417.7241">Move</text><rect fill="#000000" filter="url(#f12piddpk8ad6x)" height="6" rx="2.5" ry="2.5" style="stroke: #000000; stroke-width: 1.0;" width="434" x="761.5" y="450.5542"/><rect fill="#FEFECE" filter="url(#f12piddpk8ad6x)" height="33.9688" rx="12.5" ry="12.5" style="stroke: #A80036; stroke-width: 1.5;" width="76" x="775.5" y="476.5542"/><text fill="#000000" font-family="sans-serif" font-size="12" lengthAdjust="spacingAndGlyphs" textLength="56" x="785.5" y="497.6929">Move left</text><rect fill="#FEFECE" filter="url(#f12piddpk8ad6x)" height="33.9688" rx="12.5" ry="12.5" style="stroke: #A80036; stroke-width: 1.5;" width="85" x="879.5" y="476.5542"/><text fill="#000000" font-family="sans-serif" font-size="12" lengthAdjust="spacingAndGlyphs" textLength="65" x="889.5" y="497.6929">Move right</text><rect fill="#FEFECE" filter="url(#f12piddpk8ad6x)" height="33.9688" rx="12.5" ry="12.5" style="stroke: #A80036; stroke-width: 1.5;" width="72" x="992.5" y="476.5542"/><text fill="#000000" font-family="sans-serif" font-size="12" lengthAdjust="spacingAndGlyphs" textLength="52" x="1002.5" y="497.6929">Move up</text><rect fill="#FEFECE" filter="url(#f12piddpk8ad6x)" height="33.9688" rx="12.5" ry="12.5" style="stroke: #A80036; stroke-width: 1.5;" width="89" x="1092.5" y="476.5542"/><text fill="#000000" font-family="sans-serif" font-size="12" lengthAdjust="spacingAndGlyphs" textLength="69" x="1102.5" y="497.6929">Move down</text><rect fill="#000000" filter="url(#f12piddpk8ad6x)" height="6" rx="2.5" ry="2.5" style="stroke: #000000; stroke-width: 1.0;" width="434" x="761.5" y="530.5229"/><rect fill="#FEFECE" filter="url(#f12piddpk8ad6x)" height="33.9688" rx="12.5" ry="12.5" style="stroke: #A80036; stroke-width: 1.5;" width="100" x="928.5" y="619.9253"/><text fill="#000000" font-family="sans-serif" font-size="12" lengthAdjust="spacingAndGlyphs" textLength="80" x="938.5" y="641.064">HP = HP - 50</text><rect fill="#FEFECE" filter="url(#f12piddpk8ad6x)" height="33.9688" rx="12.5" ry="12.5" style="stroke: #A80036; stroke-width: 1.5;" width="81" x="938" y="737.2964"/><text fill="#000000" font-family="sans-serif" font-size="12" lengthAdjust="spacingAndGlyphs" textLength="61" x="948" y="758.4351">Lose level</text><ellipse cx="978.5" cy="816.2651" fill="#FFFFFF" filter="url(#f12piddpk8ad6x)" rx="10" ry="10" style="stroke: #000000; stroke-width: 1.5;"/><line style="stroke: #000000; stroke-width: 2.5;" x1="972.3128" x2="984.6872" y1="810.078" y2="822.4523"/><line style="stroke: #000000; stroke-width: 2.5;" x1="984.6872" x2="972.3128" y1="810.078" y2="822.4523"/><polygon fill="#FEFECE" filter="url(#f12piddpk8ad6x)" points="959,688.894,998,688.894,1010,700.894,998,712.894,959,712.894,947,700.894,959,688.894" style="stroke: #A80036; stroke-width: 1.5;"/><text fill="#000000" font-family="sans-serif" font-size="11" lengthAdjust="spacingAndGlyphs" textLength="23" x="982.5" y="723.1045">true</text><text fill="#000000" font-family="sans-serif" font-size="11" lengthAdjust="spacingAndGlyphs" textLength="39" x="959" y="704.7021">HP = 0</text><text fill="#000000" font-family="sans-serif" font-size="11" lengthAdjust="spacingAndGlyphs" textLength="28" x="1010" y="698.2998">false</text><polygon fill="#FEFECE" filter="url(#f12piddpk8ad6x)" points="942,571.5229,1015,571.5229,1027,583.5229,1015,595.5229,942,595.5229,930,583.5229,942,571.5229" style="stroke: #A80036; stroke-width: 1.5;"/><text fill="#000000" font-family="sans-serif" font-size="11" lengthAdjust="spacingAndGlyphs" textLength="23" x="982.5" y="605.7334">true</text><text fill="#000000" font-family="sans-serif" font-size="11" lengthAdjust="spacingAndGlyphs" textLength="73" x="942" y="587.3311">touch enemy</text><text fill="#000000" font-family="sans-serif" font-size="11" lengthAdjust="spacingAndGlyphs" textLength="28" x="1027" y="580.9287">false</text><polygon fill="#FEFECE" filter="url(#f12piddpk8ad6x)" points="978.5,881.0698,990.5,893.0698,978.5,905.0698,966.5,893.0698,978.5,881.0698" style="stroke: #A80036; stroke-width: 1.5;"/><rect fill="#FEFECE" filter="url(#f12piddpk8ad6x)" height="33.9688" rx="12.5" ry="12.5" style="stroke: #A80036; stroke-width: 1.5;" width="107" x="1227.5" y="591.8589"/><text fill="#000000" font-family="sans-serif" font-size="12" lengthAdjust="spacingAndGlyphs" textLength="87" x="1237.5" y="612.9976">Pick power up</text><rect fill="#FEFECE" filter="url(#f12piddpk8ad6x)" height="33.9688" rx="12.5" ry="12.5" style="stroke: #A80036; stroke-width: 1.5;" width="115" x="1223.5" y="660.8276"/><text fill="#000000" font-family="sans-serif" font-size="12" lengthAdjust="spacingAndGlyphs" textLength="95" x="1233.5" y="681.9663">Apply power up</text><rect fill="#000000" filter="url(#f12piddpk8ad6x)" height="6" rx="2.5" ry="2.5" style="stroke: #000000; stroke-width: 1.0;" width="1314.5" x="38" y="989.6362"/><rect fill="#FEFECE" filter="url(#f12piddpk8ad6x)" height="33.9688" rx="12.5" ry="12.5" style="stroke: #A80036; stroke-width: 1.5;" width="78" x="1362.5" y="301.6167"/><text fill="#000000" font-family="sans-serif" font-size="12" lengthAdjust="spacingAndGlyphs" textLength="58" x="1372.5" y="322.7554">lose level</text><ellipse cx="1401.5" cy="380.5854" fill="#FFFFFF" filter="url(#f12piddpk8ad6x)" rx="10" ry="10" style="stroke: #000000; stroke-width: 1.5;"/><line style="stroke: #000000; stroke-width: 2.5;" x1="1395.3128" x2="1407.6872" y1="374.3983" y2="386.7726"/><line style="stroke: #000000; stroke-width: 2.5;" x1="1407.6872" x2="1395.3128" y1="374.3983" y2="386.7726"/><polygon fill="#FEFECE" filter="url(#f12piddpk8ad6x)" points="1005.875,103.9688,1100.875,103.9688,1112.875,115.9688,1100.875,127.9688,1005.875,127.9688,993.875,115.9688,1005.875,103.9688" style="stroke: #A80036; stroke-width: 1.5;"/><text fill="#000000" font-family="sans-serif" font-size="11" lengthAdjust="spacingAndGlyphs" textLength="23" x="1057.375" y="138.1792">true</text><text fill="#000000" font-family="sans-serif" font-size="11" lengthAdjust="spacingAndGlyphs" textLength="95" x="1005.875" y="119.7769">Level incomplete</text><text fill="#000000" font-family="sans-serif" font-size="11" lengthAdjust="spacingAndGlyphs" textLength="28" x="965.875" y="113.3745">false</text><rect fill="#FEFECE" filter="url(#f12piddpk8ad6x)" height="33.9688" rx="12.5" ry="12.5" style="stroke: #A80036; stroke-width: 1.5;" width="113" x="996.875" y="1037.6362"/><text fill="#000000" font-family="sans-serif" font-size="12" lengthAdjust="spacingAndGlyphs" textLength="93" x="1006.875" y="1058.7749">Level complete</text><ellipse cx="1053.375" cy="1102.605" fill="#FFFFFF" filter="url(#f12piddpk8ad6x)" rx="11" ry="11" style="stroke: #000000; stroke-width: 1.0;"/><ellipse cx="1053.375" cy="1102.605" fill="#000000" rx="6" ry="6" style="stroke: #7F7F7F; stroke-width: 1.0;"/><line style="stroke: #A80036; stroke-width: 1.5;" x1="1053.375" x2="1053.375" y1="30" y2="50"/><polygon fill="#A80036" points="1049.375,40,1053.375,50,1057.375,40,1053.375,44" style="stroke: #A80036; stroke-width: 1.0;"/><line style="stroke: #A80036; stroke-width: 1.5;" x1="1053.375" x2="1053.375" y1="193.6479" y2="213.6479"/><polygon fill="#A80036" points="1049.375,203.6479,1053.375,213.6479,1057.375,203.6479,1053.375,207.6479" style="stroke: #A80036; stroke-width: 1.0;"/><line style="stroke: #A80036; stroke-width: 1.5;" x1="386.75" x2="386.75" y1="361.5854" y2="396.5854"/><polygon fill="#A80036" points="382.75,386.5854,386.75,396.5854,390.75,386.5854,386.75,390.5854" style="stroke: #A80036; stroke-width: 1.0;"/><line style="stroke: #A80036; stroke-width: 1.5;" x1="154.5" x2="154.5" y1="612.812" y2="647.812"/><polygon fill="#A80036" points="150.5,637.812,154.5,647.812,158.5,637.812,154.5,641.812" style="stroke: #A80036; stroke-width: 1.0;"/><line style="stroke: #A80036; stroke-width: 1.5;" x1="112" x2="112" y1="784.7495" y2="819.7495"/><polygon fill="#A80036" points="108,809.7495,112,819.7495,116,809.7495,112,813.7495" style="stroke: #A80036; stroke-width: 1.0;"/><line style="stroke: #A80036; stroke-width: 1.5;" x1="122" x2="112" y1="728.7808" y2="728.7808"/><line style="stroke: #A80036; stroke-width: 1.5;" x1="112" x2="112" y1="728.7808" y2="750.7808"/><polygon fill="#A80036" points="108,740.7808,112,750.7808,116,740.7808,112,744.7808" style="stroke: #A80036; stroke-width: 1.0;"/><line style="stroke: #A80036; stroke-width: 1.5;" x1="187" x2="197" y1="728.7808" y2="728.7808"/><line style="stroke: #A80036; stroke-width: 1.5;" x1="197" x2="197" y1="728.7808" y2="750.7808"/><polygon fill="#A80036" points="193,740.7808,197,750.7808,201,740.7808,197,744.7808" style="stroke: #A80036; stroke-width: 1.0;"/><line style="stroke: #A80036; stroke-width: 1.5;" x1="197" x2="197" y1="784.7495" y2="845.7495"/><line style="stroke: #A80036; stroke-width: 1.5;" x1="197" x2="154.5" y1="845.7495" y2="845.7495"/><line style="stroke: #A80036; stroke-width: 1.5;" x1="154.5" x2="154.5" y1="845.7495" y2="919.6362"/><polygon fill="#A80036" points="150.5,909.6362,154.5,919.6362,158.5,909.6362,154.5,913.6362" style="stroke: #A80036; stroke-width: 1.0;"/><line style="stroke: #A80036; stroke-width: 1.5;" x1="154.5" x2="154.5" y1="681.7808" y2="716.7808"/><polygon fill="#A80036" points="150.5,706.7808,154.5,716.7808,158.5,706.7808,154.5,710.7808" style="stroke: #A80036; stroke-width: 1.0;"/><line style="stroke: #A80036; stroke-width: 1.5;" x1="357.5" x2="357.5" y1="741.8784" y2="766.2808"/><polygon fill="#A80036" points="353.5,756.2808,357.5,766.2808,361.5,756.2808,357.5,760.2808" style="stroke: #A80036; stroke-width: 1.0;"/><line style="stroke: #A80036; stroke-width: 1.5;" x1="415" x2="432.5" y1="729.8784" y2="729.8784"/><polygon fill="#A80036" points="428.5,773.2651,432.5,783.2651,436.5,773.2651,432.5,777.2651" style="stroke: #A80036; stroke-width: 1.5;"/><line style="stroke: #A80036; stroke-width: 1.5;" x1="432.5" x2="432.5" y1="729.8784" y2="836.6519"/><line style="stroke: #A80036; stroke-width: 1.5;" x1="432.5" x2="369.5" y1="836.6519" y2="836.6519"/><polygon fill="#A80036" points="379.5,832.6519,369.5,836.6519,379.5,840.6519,375.5,836.6519" style="stroke: #A80036; stroke-width: 1.0;"/><line style="stroke: #A80036; stroke-width: 1.5;" x1="357.5" x2="357.5" y1="800.2495" y2="824.6519"/><polygon fill="#A80036" points="353.5,814.6519,357.5,824.6519,361.5,814.6519,357.5,818.6519" style="stroke: #A80036; stroke-width: 1.0;"/><line style="stroke: #A80036; stroke-width: 1.5;" x1="357.5" x2="357.5" y1="682.8784" y2="717.8784"/><polygon fill="#A80036" points="353.5,707.8784,357.5,717.8784,361.5,707.8784,357.5,711.8784" style="stroke: #A80036; stroke-width: 1.0;"/><line style="stroke: #A80036; stroke-width: 1.5;" x1="370" x2="357.5" y1="626.9097" y2="626.9097"/><line style="stroke: #A80036; stroke-width: 1.5;" x1="357.5" x2="357.5" y1="626.9097" y2="648.9097"/><polygon fill="#A80036" points="353.5,638.9097,357.5,648.9097,361.5,638.9097,357.5,642.9097" style="stroke: #A80036; stroke-width: 1.0;"/><line style="stroke: #A80036; stroke-width: 1.5;" x1="493" x2="505.5" y1="626.9097" y2="626.9097"/><line style="stroke: #A80036; stroke-width: 1.5;" x1="505.5" x2="505.5" y1="626.9097" y2="648.9097"/><polygon fill="#A80036" points="501.5,638.9097,505.5,648.9097,509.5,638.9097,505.5,642.9097" style="stroke: #A80036; stroke-width: 1.0;"/><line style="stroke: #A80036; stroke-width: 1.5;" x1="357.5" x2="357.5" y1="848.6519" y2="866.6519"/><line style="stroke: #A80036; stroke-width: 1.5;" x1="357.5" x2="419.5" y1="866.6519" y2="866.6519"/><polygon fill="#A80036" points="409.5,862.6519,419.5,866.6519,409.5,870.6519,413.5,866.6519" style="stroke: #A80036; stroke-width: 1.0;"/><line style="stroke: #A80036; stroke-width: 1.5;" x1="505.5" x2="505.5" y1="682.8784" y2="866.6519"/><line style="stroke: #A80036; stroke-width: 1.5;" x1="505.5" x2="443.5" y1="866.6519" y2="866.6519"/><polygon fill="#A80036" points="453.5,862.6519,443.5,866.6519,453.5,870.6519,449.5,866.6519" style="stroke: #A80036; stroke-width: 1.0;"/><line style="stroke: #A80036; stroke-width: 1.5;" x1="431.5" x2="431.5" y1="579.9097" y2="614.9097"/><polygon fill="#A80036" points="427.5,604.9097,431.5,614.9097,435.5,604.9097,431.5,608.9097" style="stroke: #A80036; stroke-width: 1.0;"/><line style="stroke: #A80036; stroke-width: 1.5;" x1="635" x2="635" y1="558.9253" y2="593.9253"/><polygon fill="#A80036" points="631,583.9253,635,593.9253,639,583.9253,635,587.9253" style="stroke: #A80036; stroke-width: 1.0;"/><line style="stroke: #A80036; stroke-width: 1.5;" x1="635" x2="635" y1="745.2651" y2="780.2651"/><polygon fill="#A80036" points="631,770.2651,635,780.2651,639,770.2651,635,774.2651" style="stroke: #A80036; stroke-width: 1.0;"/><line style="stroke: #A80036; stroke-width: 1.5;" x1="635" x2="635" y1="814.2339" y2="849.2339"/><polygon fill="#A80036" points="631,839.2339,635,849.2339,639,839.2339,635,843.2339" style="stroke: #A80036; stroke-width: 1.0;"/><line style="stroke: #A80036; stroke-width: 1.5;" x1="635" x2="635" y1="686.894" y2="711.2964"/><polygon fill="#A80036" points="631,701.2964,635,711.2964,639,701.2964,635,705.2964" style="stroke: #A80036; stroke-width: 1.0;"/><line style="stroke: #A80036; stroke-width: 1.5;" x1="666.5" x2="685.5" y1="674.894" y2="674.894"/><polygon fill="#A80036" points="681.5,777.2651,685.5,787.2651,689.5,777.2651,685.5,781.2651" style="stroke: #A80036; stroke-width: 1.5;"/><line style="stroke: #A80036; stroke-width: 1.5;" x1="685.5" x2="685.5" y1="674.894" y2="899.6362"/><line style="stroke: #A80036; stroke-width: 1.5;" x1="685.5" x2="635" y1="899.6362" y2="899.6362"/><line style="stroke: #A80036; stroke-width: 1.5;" x1="635" x2="635" y1="899.6362" y2="919.6362"/><polygon fill="#A80036" points="631,909.6362,635,919.6362,639,909.6362,635,913.6362" style="stroke: #A80036; stroke-width: 1.0;"/><line style="stroke: #A80036; stroke-width: 1.5;" x1="635" x2="635" y1="627.894" y2="662.894"/><polygon fill="#A80036" points="631,652.894,635,662.894,639,652.894,635,656.894" style="stroke: #A80036; stroke-width: 1.0;"/><line style="stroke: #A80036; stroke-width: 1.5;" x1="154.5" x2="154.5" y1="504.9565" y2="578.8433"/><polygon fill="#A80036" points="150.5,568.8433,154.5,578.8433,158.5,568.8433,154.5,572.8433" style="stroke: #A80036; stroke-width: 1.0;"/><line style="stroke: #A80036; stroke-width: 1.5;" x1="431.5" x2="431.5" y1="504.9565" y2="545.9409"/><polygon fill="#A80036" points="427.5,535.9409,431.5,545.9409,435.5,535.9409,431.5,539.9409" style="stroke: #A80036; stroke-width: 1.0;"/><line style="stroke: #A80036; stroke-width: 1.5;" x1="635" x2="635" y1="504.9565" y2="524.9565"/><polygon fill="#A80036" points="631,514.9565,635,524.9565,639,514.9565,635,518.9565" style="stroke: #A80036; stroke-width: 1.0;"/><line style="stroke: #A80036; stroke-width: 1.5;" x1="431.5" x2="431.5" y1="878.6519" y2="919.6362"/><polygon fill="#A80036" points="427.5,909.6362,431.5,919.6362,435.5,909.6362,431.5,913.6362" style="stroke: #A80036; stroke-width: 1.0;"/><line style="stroke: #A80036; stroke-width: 1.5;" x1="386.75" x2="386.75" y1="474.5542" y2="498.9565"/><polygon fill="#A80036" points="382.75,488.9565,386.75,498.9565,390.75,488.9565,386.75,492.9565" style="stroke: #A80036; stroke-width: 1.0;"/><line style="stroke: #A80036; stroke-width: 1.5;" x1="475.25" x2="721.5" y1="462.5542" y2="462.5542"/><polygon fill="#A80036" points="717.5,702.2964,721.5,712.2964,725.5,702.2964,721.5,706.2964" style="stroke: #A80036; stroke-width: 1.5;"/><line style="stroke: #A80036; stroke-width: 1.5;" x1="721.5" x2="721.5" y1="462.5542" y2="957.6362"/><line style="stroke: #A80036; stroke-width: 1.5;" x1="721.5" x2="398.75" y1="957.6362" y2="957.6362"/><polygon fill="#A80036" points="408.75,953.6362,398.75,957.6362,408.75,961.6362,404.75,957.6362" style="stroke: #A80036; stroke-width: 1.0;"/><line style="stroke: #A80036; stroke-width: 1.5;" x1="386.75" x2="386.75" y1="925.6362" y2="945.6362"/><polygon fill="#A80036" points="382.75,935.6362,386.75,945.6362,390.75,935.6362,386.75,939.6362" style="stroke: #A80036; stroke-width: 1.0;"/><line style="stroke: #A80036; stroke-width: 1.5;" x1="386.75" x2="386.75" y1="430.5542" y2="450.5542"/><polygon fill="#A80036" points="382.75,440.5542,386.75,450.5542,390.75,440.5542,386.75,444.5542" style="stroke: #A80036; stroke-width: 1.0;"/><line style="stroke: #A80036; stroke-width: 1.5;" x1="813.5" x2="813.5" y1="456.5542" y2="476.5542"/><polygon fill="#A80036" points="809.5,466.5542,813.5,476.5542,817.5,466.5542,813.5,470.5542" style="stroke: #A80036; stroke-width: 1.0;"/><line style="stroke: #A80036; stroke-width: 1.5;" x1="922" x2="922" y1="456.5542" y2="476.5542"/><polygon fill="#A80036" points="918,466.5542,922,476.5542,926,466.5542,922,470.5542" style="stroke: #A80036; stroke-width: 1.0;"/><line style="stroke: #A80036; stroke-width: 1.5;" x1="1028.5" x2="1028.5" y1="456.5542" y2="476.5542"/><polygon fill="#A80036" points="1024.5,466.5542,1028.5,476.5542,1032.5,466.5542,1028.5,470.5542" style="stroke: #A80036; stroke-width: 1.0;"/><line style="stroke: #A80036; stroke-width: 1.5;" x1="1137" x2="1137" y1="456.5542" y2="476.5542"/><polygon fill="#A80036" points="1133,466.5542,1137,476.5542,1141,466.5542,1137,470.5542" style="stroke: #A80036; stroke-width: 1.0;"/><line style="stroke: #A80036; stroke-width: 1.5;" x1="813.5" x2="813.5" y1="510.5229" y2="530.5229"/><polygon fill="#A80036" points="809.5,520.5229,813.5,530.5229,817.5,520.5229,813.5,524.5229" style="stroke: #A80036; stroke-width: 1.0;"/><line style="stroke: #A80036; stroke-width: 1.5;" x1="922" x2="922" y1="510.5229" y2="530.5229"/><polygon fill="#A80036" points="918,520.5229,922,530.5229,926,520.5229,922,524.5229" style="stroke: #A80036; stroke-width: 1.0;"/><line style="stroke: #A80036; stroke-width: 1.5;" x1="1028.5" x2="1028.5" y1="510.5229" y2="530.5229"/><polygon fill="#A80036" points="1024.5,520.5229,1028.5,530.5229,1032.5,520.5229,1028.5,524.5229" style="stroke: #A80036; stroke-width: 1.0;"/><line style="stroke: #A80036; stroke-width: 1.5;" x1="1137" x2="1137" y1="510.5229" y2="530.5229"/><polygon fill="#A80036" points="1133,520.5229,1137,530.5229,1141,520.5229,1137,524.5229" style="stroke: #A80036; stroke-width: 1.0;"/><line style="stroke: #A80036; stroke-width: 1.5;" x1="978.5" x2="978.5" y1="430.5542" y2="450.5542"/><polygon fill="#A80036" points="974.5,440.5542,978.5,450.5542,982.5,440.5542,978.5,444.5542" style="stroke: #A80036; stroke-width: 1.0;"/><line style="stroke: #A80036; stroke-width: 1.5;" x1="978.5" x2="978.5" y1="771.2651" y2="806.2651"/><polygon fill="#A80036" points="974.5,796.2651,978.5,806.2651,982.5,796.2651,978.5,800.2651" style="stroke: #A80036; stroke-width: 1.0;"/><line style="stroke: #A80036; stroke-width: 1.5;" x1="978.5" x2="978.5" y1="712.894" y2="737.2964"/><polygon fill="#A80036" points="974.5,727.2964,978.5,737.2964,982.5,727.2964,978.5,731.2964" style="stroke: #A80036; stroke-width: 1.0;"/><line style="stroke: #A80036; stroke-width: 1.5;" x1="1010" x2="1029" y1="700.894" y2="700.894"/><polygon fill="#A80036" points="1025,768.7808,1029,778.7808,1033,768.7808,1029,772.7808" style="stroke: #A80036; stroke-width: 1.5;"/><line style="stroke: #A80036; stroke-width: 1.5;" x1="1029" x2="1029" y1="700.894" y2="856.6675"/><line style="stroke: #A80036; stroke-width: 1.5;" x1="1029" x2="978.5" y1="856.6675" y2="856.6675"/><line style="stroke: #A80036; stroke-width: 1.5;" x1="978.5" x2="978.5" y1="856.6675" y2="881.0698"/><polygon fill="#A80036" points="974.5,871.0698,978.5,881.0698,982.5,871.0698,978.5,875.0698" style="stroke: #A80036; stroke-width: 1.0;"/><line style="stroke: #A80036; stroke-width: 1.5;" x1="978.5" x2="978.5" y1="653.894" y2="688.894"/><polygon fill="#A80036" points="974.5,678.894,978.5,688.894,982.5,678.894,978.5,682.894" style="stroke: #A80036; stroke-width: 1.0;"/><line style="stroke: #A80036; stroke-width: 1.5;" x1="978.5" x2="978.5" y1="595.5229" y2="619.9253"/><polygon fill="#A80036" points="974.5,609.9253,978.5,619.9253,982.5,609.9253,978.5,613.9253" style="stroke: #A80036; stroke-width: 1.0;"/><line style="stroke: #A80036; stroke-width: 1.5;" x1="1027" x2="1051" y1="583.5229" y2="583.5229"/><polygon fill="#A80036" points="1047,728.2964,1051,738.2964,1055,728.2964,1051,732.2964" style="stroke: #A80036; stroke-width: 1.5;"/><line style="stroke: #A80036; stroke-width: 1.5;" x1="1051" x2="1051" y1="583.5229" y2="893.0698"/><line style="stroke: #A80036; stroke-width: 1.5;" x1="1051" x2="990.5" y1="893.0698" y2="893.0698"/><polygon fill="#A80036" points="1000.5,889.0698,990.5,893.0698,1000.5,897.0698,996.5,893.0698" style="stroke: #A80036; stroke-width: 1.0;"/><line style="stroke: #A80036; stroke-width: 1.5;" x1="978.5" x2="978.5" y1="536.5229" y2="571.5229"/><polygon fill="#A80036" points="974.5,561.5229,978.5,571.5229,982.5,561.5229,978.5,565.5229" style="stroke: #A80036; stroke-width: 1.0;"/><line style="stroke: #A80036; stroke-width: 1.5;" x1="1281" x2="1281" y1="625.8276" y2="660.8276"/><polygon fill="#A80036" points="1277,650.8276,1281,660.8276,1285,650.8276,1281,654.8276" style="stroke: #A80036; stroke-width: 1.0;"/><line style="stroke: #A80036; stroke-width: 1.5;" x1="386.75" x2="386.75" y1="307.6167" y2="327.6167"/><polygon fill="#A80036" points="382.75,317.6167,386.75,327.6167,390.75,317.6167,386.75,321.6167" style="stroke: #A80036; stroke-width: 1.0;"/><line style="stroke: #A80036; stroke-width: 1.5;" x1="978.5" x2="978.5" y1="307.6167" y2="396.5854"/><polygon fill="#A80036" points="974.5,386.5854,978.5,396.5854,982.5,386.5854,978.5,390.5854" style="stroke: #A80036; stroke-width: 1.0;"/><line style="stroke: #A80036; stroke-width: 1.5;" x1="1281" x2="1281" y1="307.6167" y2="591.8589"/><polygon fill="#A80036" points="1277,581.8589,1281,591.8589,1285,581.8589,1281,585.8589" style="stroke: #A80036; stroke-width: 1.0;"/><line style="stroke: #A80036; stroke-width: 1.5;" x1="386.75" x2="386.75" y1="969.6362" y2="989.6362"/><polygon fill="#A80036" points="382.75,979.6362,386.75,989.6362,390.75,979.6362,386.75,983.6362" style="stroke: #A80036; stroke-width: 1.0;"/><line style="stroke: #A80036; stroke-width: 1.5;" x1="978.5" x2="978.5" y1="905.0698" y2="989.6362"/><polygon fill="#A80036" points="974.5,979.6362,978.5,989.6362,982.5,979.6362,978.5,983.6362" style="stroke: #A80036; stroke-width: 1.0;"/><line style="stroke: #A80036; stroke-width: 1.5;" x1="1281" x2="1281" y1="694.7964" y2="989.6362"/><polygon fill="#A80036" points="1277,979.6362,1281,989.6362,1285,979.6362,1281,983.6362" style="stroke: #A80036; stroke-width: 1.0;"/><line style="stroke: #A80036; stroke-width: 1.5;" x1="1401.5" x2="1401.5" y1="335.5854" y2="370.5854"/><polygon fill="#A80036" points="1397.5,360.5854,1401.5,370.5854,1405.5,360.5854,1401.5,364.5854" style="stroke: #A80036; stroke-width: 1.0;"/><line style="stroke: #A80036; stroke-width: 1.5;" x1="1016.875" x2="695.25" y1="279.6167" y2="279.6167"/><line style="stroke: #A80036; stroke-width: 1.5;" x1="695.25" x2="695.25" y1="279.6167" y2="301.6167"/><polygon fill="#A80036" points="691.25,291.6167,695.25,301.6167,699.25,291.6167,695.25,295.6167" style="stroke: #A80036; stroke-width: 1.0;"/><line style="stroke: #A80036; stroke-width: 1.5;" x1="1089.875" x2="1401.5" y1="279.6167" y2="279.6167"/><line style="stroke: #A80036; stroke-width: 1.5;" x1="1401.5" x2="1401.5" y1="279.6167" y2="301.6167"/><polygon fill="#A80036" points="1397.5,291.6167,1401.5,301.6167,1405.5,291.6167,1401.5,295.6167" style="stroke: #A80036; stroke-width: 1.0;"/><line style="stroke: #A80036; stroke-width: 1.5;" x1="695.25" x2="695.25" y1="995.6362" y2="1000.6362"/><line style="stroke: #A80036; stroke-width: 1.5;" x1="695.25" x2="1454.5" y1="1000.6362" y2="1000.6362"/><polygon fill="#A80036" points="1450.5,545.9565,1454.5,535.9565,1458.5,545.9565,1454.5,541.9565" style="stroke: #A80036; stroke-width: 1.5;"/><line style="stroke: #A80036; stroke-width: 1.5;" x1="1454.5" x2="1454.5" y1="115.9688" y2="1000.6362"/><line style="stroke: #A80036; stroke-width: 1.5;" x1="1454.5" x2="1112.875" y1="115.9688" y2="115.9688"/><polygon fill="#A80036" points="1122.875,111.9688,1112.875,115.9688,1122.875,119.9688,1118.875,115.9688" style="stroke: #A80036; stroke-width: 1.0;"/><line style="stroke: #A80036; stroke-width: 1.5;" x1="1053.375" x2="1053.375" y1="247.6167" y2="267.6167"/><polygon fill="#A80036" points="1049.375,257.6167,1053.375,267.6167,1057.375,257.6167,1053.375,261.6167" style="stroke: #A80036; stroke-width: 1.0;"/><line style="stroke: #A80036; stroke-width: 1.5;" x1="1053.375" x2="1053.375" y1="127.9688" y2="159.6792"/><polygon fill="#A80036" points="1049.375,149.6792,1053.375,159.6792,1057.375,149.6792,1053.375,153.6792" style="stroke: #A80036; stroke-width: 1.0;"/><line style="stroke: #A80036; stroke-width: 1.5;" x1="993.875" x2="24" y1="115.9688" y2="115.9688"/><polygon fill="#A80036" points="20,537.9565,24,547.9565,28,537.9565,24,541.9565" style="stroke: #A80036; stroke-width: 1.5;"/><line style="stroke: #A80036; stroke-width: 1.5;" x1="24" x2="24" y1="115.9688" y2="1017.6362"/><line style="stroke: #A80036; stroke-width: 1.5;" x1="24" x2="1053.375" y1="1017.6362" y2="1017.6362"/><line style="stroke: #A80036; stroke-width: 1.5;" x1="1053.375" x2="1053.375" y1="1017.6362" y2="1037.6362"/><polygon fill="#A80036" points="1049.375,1027.6362,1053.375,1037.6362,1057.375,1027.6362,1053.375,1031.6362" style="stroke: #A80036; stroke-width: 1.0;"/><line style="stroke: #A80036; stroke-width: 1.5;" x1="1053.375" x2="1053.375" y1="83.9688" y2="103.9688"/><polygon fill="#A80036" points="1049.375,93.9688,1053.375,103.9688,1057.375,93.9688,1053.375,97.9688" style="stroke: #A80036; stroke-width: 1.0;"/><line style="stroke: #A80036; stroke-width: 1.5;" x1="1053.375" x2="1053.375" y1="1071.605" y2="1091.605"/><polygon fill="#A80036" points="1049.375,1081.605,1053.375,1091.605,1057.375,1081.605,1053.375,1085.605" style="stroke: #A80036; stroke-width: 1.0;"/><!--
@startuml
start
:Game starts;
while(Level incomplete) is (true)
:Time = 300;
:Time = Time - 1;
if (time = 0) then (false)
fork
  :Plant Bomb;
  :Explosion;
  if (Explosion touch something) then (true)
  fork
  :Enemy;
    :Lose Life;
    if (life = 0) then (true)
      :dead;
      end
        else (false)
       :continue;
      endif
  fork again
  :Wall;
    if (can be destroyed) then (true)
      :Wall explote;
      if (have a powerup) then (true)
        :powerup appears;
      endif
    else (false)
      :Wall stays;
    endif
  fork again
  :You;
  :Lose HP;
  if (HP = 0) then (true)
    :You died;
    :Lose level;
    end
    else (false)
  endif
end fork
  else (false)
  endif
fork again
  :Move;
  fork
  :Move left;
  fork again
  :Move right;
  fork again
  :Move up;
  fork again
  :Move down;
  end fork
if (touch enemy) then (true)
  :HP = HP - 50;
if (HP = 0) then (true)
  :Lose level;
  end 
else (false)
endif
else (false)
endif
fork again
  :Pick power up;
    :Apply power up;
end fork




else (true)
:lose level;
end
endif
endwhile (false)
:Level complete;



stop
@enduml

PlantUML version 1.2019.04(Fri Mar 29 15:44:36 UTC 2019)
(GPL source distribution)
Java Runtime: OpenJDK Runtime Environment
JVM: OpenJDK 64-Bit Server VM
Java Version: 1.8.0_201-heroku-b09
Operating System: Linux
OS Version: 4.4.0-1048-aws
Default Encoding: UTF-8
Language: en
Country: US
--></g></svg>